M48
METRIC,LZ,000.000
;FILE_FORMAT=3:3
;TYPE=PLATED
;Layer: PTH_Through
;EasyEDA v6.5.9, 2022-08-17 00:45:25
;3d046d26f260489bb0fd4f172441b01e,e2b945bbd7ed4cf1bff08b0f7bdd4537,10
;Gerber Generator version 0.2
;Holesize 1 = 0.305 mm
T01C0.305
;Holesize 2 = 0.306 mm
T02C0.306
;Holesize 3 = 0.501 mm
T03C0.501
;Holesize 4 = 0.600 mm
T04C0.600
;Holesize 5 = 0.701 mm
T05C0.701
;Holesize 6 = 1.000 mm
T06C1.000
%
G05
G90
T01
X027142Y100422
X027782Y100442
X030782Y101542
X049277Y086517
X048277Y086457
X044837Y086497
X047680Y086460
X050677Y094057
X050677Y094657
X052177Y094057
X052177Y094657
X035980Y096740
X035400Y098000
X034900Y097600
X034402Y097982
X033900Y097500
X033402Y097982
X032900Y097600
X032382Y097982
X031382Y098042
X030902Y097602
X022382Y096542
X022082Y091942
X022082Y090742
X026282Y094642
X038820Y084880
X037500Y084960
X034100Y089100
T02
X055320Y084280
X021771Y096047
X026851Y101127
X026851Y090967
X037011Y090967
X041600Y090400
X047171Y090967
X-001128Y099847
X-001128Y094767
X-001128Y089687
X-001060Y084900
X003952Y104927
X003952Y099847
X003952Y094767
X003952Y089687
X004020Y084900
X009032Y104927
X009032Y099847
X009032Y094767
X009032Y089687
X009100Y084900
X014112Y104927
X014112Y099847
X014112Y094767
X014112Y089687
X014180Y084900
X019192Y104927
X019192Y099847
X019192Y094767
X019192Y089687
X019260Y084900
X024272Y104927
X029352Y104927
X029420Y084900
X034432Y104927
X034500Y084900
X039512Y099847
X044592Y099847
X049672Y104927
X049672Y099847
X054752Y104927
X059832Y094767
X059832Y084607
T03
X044582Y092242
X039582Y097142
X054100Y090700
X054377Y098457
T04
X060439Y090537G85X059639Y090537
X056439Y099177G85X055339Y099177
X056439Y090537G85X055339Y090537
X060439Y099177G85X059639Y099177
T05
X043999Y104000G85X044200Y104000
X041999Y104000G85X042200Y104000
X040000Y104000G85X040200Y104000
X038000Y104400G85X038000Y103600
X046200Y104400G85X046200Y103600
T06
X001550Y082900
X004090Y082900
X006630Y082900
X009170Y082900
X011710Y082900
X014250Y082900
X016790Y082900
X019330Y082900
X021870Y082900
X024410Y082900
X026950Y082900
X029490Y082900
X032030Y082900
X034570Y082900
X037110Y082900
X039650Y082900
M30
