G04 Layer: TopLayer*
G04 EasyEDA v6.5.9, 2022-08-17 00:45:25*
G04 3d046d26f260489bb0fd4f172441b01e,e2b945bbd7ed4cf1bff08b0f7bdd4537,10*
G04 Gerber Generator version 0.2*
G04 Scale: 100 percent, Rotated: No, Reflected: No *
G04 Dimensions in millimeters *
G04 leading zeros omitted , absolute positions ,4 integer and 5 decimal *
%FSLAX45Y45*%
%MOMM*%

%ADD10C,0.2540*%
%ADD11C,0.2400*%
%ADD12C,0.2000*%
%ADD13C,0.6000*%
%ADD14C,1.0000*%
%ADD15C,0.4000*%
%ADD16C,0.2700*%
%ADD17R,0.8000X0.8000*%
%ADD18R,1.5000X0.5000*%
%ADD19R,0.5400X0.7901*%
%ADD20R,0.8000X0.8640*%
%ADD21R,0.8350X0.3150*%
%ADD22R,1.5500X1.0000*%
%ADD23R,1.1500X0.6000*%
%ADD24R,1.1500X0.3000*%
%ADD25C,1.6000*%
%ADD26C,0.6096*%
%ADD27C,0.5000*%
%ADD28C,0.6100*%
%ADD29C,0.0122*%

%LPD*%
G36*
X3597757Y9805263D02*
G01*
X3593896Y9806482D01*
X3590848Y9809073D01*
X3589070Y9812680D01*
X3587597Y9817862D01*
X3583686Y9826091D01*
X3577844Y9834067D01*
X3576421Y9836912D01*
X3575913Y9840061D01*
X3575913Y9845548D01*
X3576370Y9848545D01*
X3578910Y9856978D01*
X3579723Y9865106D01*
X3579723Y9987127D01*
X3578910Y9995306D01*
X3576675Y10002672D01*
X3573018Y10009479D01*
X3568141Y10015474D01*
X3562197Y10020350D01*
X3555390Y10024008D01*
X3547973Y10026243D01*
X3540302Y10027005D01*
X3532632Y10026243D01*
X3525265Y10024008D01*
X3520084Y10021214D01*
X3516934Y10020147D01*
X3513632Y10020147D01*
X3510483Y10021214D01*
X3505352Y10023957D01*
X3497986Y10026192D01*
X3490315Y10026954D01*
X3482644Y10026192D01*
X3475228Y10023957D01*
X3470097Y10021214D01*
X3466998Y10020147D01*
X3463645Y10020147D01*
X3460546Y10021214D01*
X3455365Y10024008D01*
X3447999Y10026243D01*
X3440328Y10027005D01*
X3432657Y10026243D01*
X3425240Y10024008D01*
X3420110Y10021214D01*
X3416960Y10020147D01*
X3413658Y10020147D01*
X3410508Y10021214D01*
X3405378Y10023957D01*
X3397961Y10026192D01*
X3390290Y10026954D01*
X3382619Y10026192D01*
X3375253Y10023957D01*
X3370122Y10021214D01*
X3366973Y10020147D01*
X3363671Y10020147D01*
X3360521Y10021214D01*
X3355390Y10024008D01*
X3347974Y10026243D01*
X3340303Y10027005D01*
X3332632Y10026243D01*
X3325266Y10024008D01*
X3320084Y10021214D01*
X3316935Y10020147D01*
X3313633Y10020147D01*
X3310483Y10021214D01*
X3305352Y10023957D01*
X3301187Y10025227D01*
X3297580Y10027208D01*
X3295040Y10030409D01*
X3294024Y10034371D01*
X3294634Y10038435D01*
X3296767Y10041940D01*
X3300120Y10044277D01*
X3304133Y10045090D01*
X3310890Y10045090D01*
X3317240Y10045852D01*
X3322675Y10047732D01*
X3327603Y10050830D01*
X3333953Y10057333D01*
X3336848Y10058857D01*
X3340100Y10059416D01*
X3907485Y10059416D01*
X3915511Y10060228D01*
X3922776Y10062413D01*
X3929430Y10065969D01*
X3935628Y10071100D01*
X4186174Y10321594D01*
X4189831Y10323931D01*
X4194098Y10324541D01*
X4200347Y10324084D01*
X4219549Y10324084D01*
X4231284Y10324947D01*
X4242308Y10327487D01*
X4252874Y10331602D01*
X4258868Y10335107D01*
X4262882Y10336377D01*
X4267098Y10335971D01*
X4270756Y10333837D01*
X4273245Y10330434D01*
X4274108Y10326268D01*
X4274108Y10193121D01*
X4273346Y10189260D01*
X4271162Y10185958D01*
X3956253Y9871303D01*
X3953001Y9869119D01*
X3949090Y9868357D01*
X3921048Y9868357D01*
X3917696Y9868916D01*
X3914698Y9870541D01*
X3912463Y9873081D01*
X3909415Y9877958D01*
X3905300Y9882022D01*
X3900424Y9885121D01*
X3894937Y9887051D01*
X3888638Y9887762D01*
X3835755Y9887762D01*
X3829456Y9887051D01*
X3823970Y9885121D01*
X3819093Y9882022D01*
X3814978Y9877958D01*
X3811930Y9873030D01*
X3810000Y9867595D01*
X3809288Y9861245D01*
X3809288Y9828326D01*
X3808526Y9824466D01*
X3806342Y9821164D01*
X3802938Y9817760D01*
X3799636Y9815576D01*
X3795776Y9814814D01*
X3759555Y9814763D01*
X3751275Y9815525D01*
X3629304Y9815525D01*
X3621125Y9814712D01*
X3613708Y9812477D01*
X3606901Y9808870D01*
X3605276Y9807498D01*
X3601720Y9805619D01*
G37*

%LPD*%
G36*
X5059426Y9328048D02*
G01*
X5055514Y9328912D01*
X5052212Y9331248D01*
X5019700Y9365640D01*
X5017719Y9368739D01*
X5016957Y9372346D01*
X5016246Y9402724D01*
X5016957Y9406737D01*
X5019192Y9410141D01*
X5029352Y9420301D01*
X5032806Y9424060D01*
X5035804Y9427921D01*
X5038394Y9432036D01*
X5040630Y9436354D01*
X5042509Y9440875D01*
X5043982Y9445498D01*
X5045049Y9450273D01*
X5045659Y9455099D01*
X5045913Y9460179D01*
X5045913Y9569754D01*
X5045659Y9574834D01*
X5045049Y9579711D01*
X5043982Y9584436D01*
X5042509Y9589109D01*
X5040630Y9593580D01*
X5038394Y9597948D01*
X5035804Y9602063D01*
X5032806Y9605924D01*
X5029352Y9609683D01*
X5018887Y9620148D01*
X5016652Y9623450D01*
X5015890Y9627362D01*
X5015890Y9665462D01*
X5016398Y9668662D01*
X5017922Y9671507D01*
X5020259Y9673793D01*
X5108295Y9735007D01*
X5112359Y9736683D01*
X5116779Y9736480D01*
X5120640Y9734448D01*
X5123332Y9730943D01*
X5124246Y9726676D01*
X5124246Y9646310D01*
X5124958Y9639960D01*
X5126888Y9634524D01*
X5129987Y9629597D01*
X5134051Y9625533D01*
X5138978Y9622434D01*
X5144414Y9620554D01*
X5150764Y9619843D01*
X5304586Y9619843D01*
X5310936Y9620554D01*
X5313883Y9621570D01*
X5317236Y9622129D01*
X5437886Y9622129D01*
X5441746Y9621367D01*
X5445048Y9619132D01*
X5447233Y9615881D01*
X5448046Y9611969D01*
X5448046Y9608566D01*
X5447334Y9604908D01*
X5445404Y9601758D01*
X5442407Y9599472D01*
X5438851Y9598456D01*
X5433060Y9597898D01*
X5425948Y9595815D01*
X5419394Y9592310D01*
X5413197Y9587331D01*
X5395315Y9569602D01*
X5392013Y9567418D01*
X5388152Y9566656D01*
X5225084Y9566656D01*
X5221732Y9567214D01*
X5218734Y9568891D01*
X5215890Y9572345D01*
X5211775Y9576409D01*
X5206898Y9579508D01*
X5201412Y9581438D01*
X5195112Y9582150D01*
X5096256Y9582150D01*
X5089956Y9581438D01*
X5084470Y9579508D01*
X5079593Y9576409D01*
X5075478Y9572345D01*
X5072380Y9567418D01*
X5070500Y9561982D01*
X5069789Y9555683D01*
X5069789Y9501784D01*
X5070500Y9495485D01*
X5072380Y9489998D01*
X5075478Y9485122D01*
X5079593Y9481007D01*
X5084470Y9477959D01*
X5089956Y9476028D01*
X5096256Y9475317D01*
X5195112Y9475317D01*
X5201412Y9476028D01*
X5206898Y9477959D01*
X5211775Y9481007D01*
X5215890Y9485122D01*
X5218785Y9488627D01*
X5221732Y9490252D01*
X5225084Y9490811D01*
X5367528Y9490811D01*
X5371185Y9490151D01*
X5374335Y9488220D01*
X5376621Y9485223D01*
X5377637Y9481667D01*
X5377992Y9478416D01*
X5380126Y9471355D01*
X5384292Y9463633D01*
X5385511Y9459671D01*
X5385003Y9455505D01*
X5382869Y9451898D01*
X5379466Y9449511D01*
X5375402Y9448647D01*
X5323179Y9448647D01*
X5315305Y9447834D01*
X5308193Y9445701D01*
X5301640Y9442196D01*
X5295493Y9437166D01*
X5237988Y9379610D01*
X5234686Y9377426D01*
X5230774Y9376664D01*
X5225084Y9376664D01*
X5221732Y9377222D01*
X5218734Y9378899D01*
X5215890Y9382353D01*
X5211775Y9386468D01*
X5206898Y9389516D01*
X5201412Y9391446D01*
X5195112Y9392158D01*
X5096256Y9392158D01*
X5089956Y9391446D01*
X5084470Y9389516D01*
X5079593Y9386468D01*
X5075478Y9382353D01*
X5072380Y9377476D01*
X5070500Y9371990D01*
X5069789Y9365691D01*
X5069789Y9338208D01*
X5068976Y9334296D01*
X5066741Y9330944D01*
X5063388Y9328759D01*
G37*

%LPD*%
G36*
X4719675Y8491626D02*
G01*
X4715814Y8492439D01*
X4712563Y8494623D01*
X4680458Y8526729D01*
X4671568Y8534349D01*
X4661966Y8540394D01*
X4657801Y8542223D01*
X4654550Y8544458D01*
X4652416Y8547760D01*
X4651705Y8551621D01*
X4652518Y8555482D01*
X4654702Y8558733D01*
X4658004Y8560917D01*
X4661865Y8561679D01*
X4667707Y8561679D01*
X4674006Y8562390D01*
X4679492Y8564321D01*
X4684369Y8567369D01*
X4688484Y8571484D01*
X4691583Y8576360D01*
X4693462Y8581847D01*
X4694174Y8588146D01*
X4694174Y8618524D01*
X4693462Y8624874D01*
X4691583Y8630310D01*
X4688484Y8635187D01*
X4684369Y8639302D01*
X4679492Y8642400D01*
X4674006Y8644280D01*
X4667707Y8644991D01*
X4585360Y8644991D01*
X4579010Y8644280D01*
X4573574Y8642400D01*
X4568647Y8639302D01*
X4564583Y8635187D01*
X4561484Y8630310D01*
X4559604Y8624874D01*
X4558893Y8618524D01*
X4558893Y8588146D01*
X4559604Y8581847D01*
X4561484Y8576360D01*
X4564583Y8571484D01*
X4568647Y8567369D01*
X4573574Y8564321D01*
X4579010Y8562390D01*
X4585360Y8561679D01*
X4590796Y8561679D01*
X4595164Y8560714D01*
X4598670Y8557971D01*
X4600702Y8553958D01*
X4600752Y8549538D01*
X4598974Y8545423D01*
X4595571Y8542528D01*
X4586122Y8537549D01*
X4576368Y8530336D01*
X4573574Y8528862D01*
X4570476Y8528354D01*
X4532731Y8527745D01*
X4528769Y8528507D01*
X4520387Y8533942D01*
X4514900Y8535822D01*
X4508601Y8536533D01*
X4455718Y8536533D01*
X4449419Y8535822D01*
X4443933Y8533942D01*
X4439056Y8530844D01*
X4434941Y8527796D01*
X4431030Y8527034D01*
X4266234Y8527034D01*
X4262323Y8527796D01*
X4259021Y8530031D01*
X4077157Y8711895D01*
X4073398Y8715298D01*
X4069537Y8718296D01*
X4065422Y8720886D01*
X4061104Y8723172D01*
X4056583Y8725001D01*
X4051960Y8726474D01*
X4047185Y8727541D01*
X4042359Y8728202D01*
X4037279Y8728405D01*
X3933088Y8728405D01*
X3929227Y8729167D01*
X3925112Y8732215D01*
X3920185Y8735263D01*
X3914749Y8737193D01*
X3908399Y8737904D01*
X3855567Y8737904D01*
X3849217Y8737193D01*
X3843782Y8735263D01*
X3838854Y8732215D01*
X3834790Y8729167D01*
X3830878Y8728405D01*
X3803091Y8728405D01*
X3799230Y8729167D01*
X3795928Y8731402D01*
X3793083Y8734196D01*
X3788206Y8737295D01*
X3782720Y8739174D01*
X3776421Y8739886D01*
X3723538Y8739886D01*
X3717239Y8739174D01*
X3711803Y8737295D01*
X3706876Y8734196D01*
X3705301Y8732621D01*
X3701999Y8730386D01*
X3698087Y8729624D01*
X3694226Y8730386D01*
X3690924Y8732621D01*
X3684168Y8739378D01*
X3680409Y8742781D01*
X3676548Y8745778D01*
X3672433Y8748369D01*
X3668115Y8750655D01*
X3663746Y8752433D01*
X3656888Y8754364D01*
X3654501Y8755380D01*
X3652418Y8756954D01*
X3589172Y8820200D01*
X3586987Y8823502D01*
X3586226Y8827414D01*
X3586226Y9075674D01*
X3585413Y9084564D01*
X3583076Y9092692D01*
X3580790Y9097314D01*
X3579723Y9101836D01*
X3579723Y9137142D01*
X3578910Y9145320D01*
X3576675Y9152686D01*
X3573018Y9159494D01*
X3568141Y9165488D01*
X3562146Y9170365D01*
X3555339Y9174022D01*
X3547973Y9176258D01*
X3540302Y9177020D01*
X3532632Y9176258D01*
X3525215Y9174022D01*
X3518458Y9170365D01*
X3512464Y9165488D01*
X3507587Y9159494D01*
X3503929Y9152686D01*
X3501694Y9145320D01*
X3500882Y9137142D01*
X3500882Y9101836D01*
X3499815Y9097264D01*
X3498951Y9095536D01*
X3496106Y9092082D01*
X3492042Y9090152D01*
X3487521Y9090202D01*
X3483508Y9092184D01*
X3480714Y9095689D01*
X3479698Y9100058D01*
X3479698Y9137142D01*
X3478885Y9145320D01*
X3476650Y9152686D01*
X3473043Y9159494D01*
X3468115Y9165488D01*
X3462172Y9170365D01*
X3455365Y9174022D01*
X3447999Y9176258D01*
X3440277Y9177020D01*
X3432606Y9176258D01*
X3425240Y9174022D01*
X3420059Y9171228D01*
X3416960Y9170162D01*
X3413607Y9170162D01*
X3410508Y9171228D01*
X3405327Y9173972D01*
X3397961Y9176207D01*
X3390290Y9176969D01*
X3382619Y9176207D01*
X3375202Y9173972D01*
X3370072Y9171228D01*
X3366973Y9170162D01*
X3363671Y9170162D01*
X3360521Y9171228D01*
X3355340Y9174022D01*
X3347974Y9176258D01*
X3340303Y9177020D01*
X3332632Y9176258D01*
X3325215Y9174022D01*
X3320084Y9171228D01*
X3316935Y9170162D01*
X3313633Y9170162D01*
X3310483Y9171228D01*
X3305352Y9173972D01*
X3297986Y9176207D01*
X3290265Y9176969D01*
X3282594Y9176207D01*
X3275228Y9173972D01*
X3270097Y9171228D01*
X3266948Y9170162D01*
X3263646Y9170162D01*
X3260496Y9171228D01*
X3255365Y9174022D01*
X3247999Y9176258D01*
X3240278Y9177020D01*
X3232607Y9176258D01*
X3225241Y9174022D01*
X3220059Y9171228D01*
X3216960Y9170162D01*
X3213608Y9170162D01*
X3210509Y9171228D01*
X3205327Y9173972D01*
X3197961Y9176207D01*
X3190290Y9176969D01*
X3182620Y9176207D01*
X3175203Y9173972D01*
X3170072Y9171228D01*
X3166973Y9170162D01*
X3163671Y9170162D01*
X3160522Y9171228D01*
X3155340Y9174022D01*
X3147974Y9176258D01*
X3140303Y9177020D01*
X3132632Y9176258D01*
X3125216Y9174022D01*
X3120085Y9171228D01*
X3116935Y9170162D01*
X3113633Y9170162D01*
X3110484Y9171228D01*
X3105353Y9173972D01*
X3097987Y9176207D01*
X3090265Y9176969D01*
X3082594Y9176207D01*
X3075228Y9173972D01*
X3070098Y9171228D01*
X3066948Y9170162D01*
X3063646Y9170162D01*
X3060496Y9171228D01*
X3055366Y9174022D01*
X3048000Y9176258D01*
X3040278Y9177020D01*
X3032607Y9176258D01*
X3025241Y9174022D01*
X3020060Y9171228D01*
X3016961Y9170162D01*
X3013608Y9170162D01*
X3010509Y9171228D01*
X3005328Y9173972D01*
X2997962Y9176207D01*
X2990291Y9176969D01*
X2982620Y9176207D01*
X2975203Y9173972D01*
X2968447Y9170365D01*
X2962452Y9165437D01*
X2957576Y9159494D01*
X2953918Y9152686D01*
X2951683Y9145320D01*
X2950870Y9137142D01*
X2950870Y9015120D01*
X2951683Y9006941D01*
X2953918Y8999575D01*
X2957576Y8992768D01*
X2962452Y8986774D01*
X2968447Y8981897D01*
X2975203Y8978239D01*
X2982620Y8976004D01*
X2990291Y8975242D01*
X2997962Y8976004D01*
X3005328Y8978239D01*
X3010509Y8981033D01*
X3013659Y8982100D01*
X3016961Y8982100D01*
X3020110Y8981033D01*
X3025241Y8978290D01*
X3032607Y8976055D01*
X3040278Y8975293D01*
X3048000Y8976055D01*
X3055366Y8978290D01*
X3060496Y8981033D01*
X3063646Y8982100D01*
X3066948Y8982100D01*
X3070047Y8981033D01*
X3075228Y8978239D01*
X3082594Y8976004D01*
X3090265Y8975242D01*
X3097987Y8976004D01*
X3105353Y8978239D01*
X3110534Y8981033D01*
X3113633Y8982100D01*
X3116986Y8982100D01*
X3120085Y8981033D01*
X3125216Y8978290D01*
X3132632Y8976055D01*
X3140303Y8975293D01*
X3147974Y8976055D01*
X3155340Y8978290D01*
X3160471Y8981033D01*
X3163620Y8982100D01*
X3166922Y8982100D01*
X3170072Y8981033D01*
X3175203Y8978239D01*
X3182620Y8976004D01*
X3190290Y8975242D01*
X3197961Y8976004D01*
X3205327Y8978239D01*
X3210509Y8981033D01*
X3213658Y8982100D01*
X3216960Y8982100D01*
X3220110Y8981033D01*
X3225241Y8978290D01*
X3232607Y8976055D01*
X3240278Y8975293D01*
X3247999Y8976055D01*
X3255365Y8978290D01*
X3260496Y8981033D01*
X3263646Y8982100D01*
X3266948Y8982100D01*
X3270046Y8981033D01*
X3275228Y8978239D01*
X3282594Y8976004D01*
X3290265Y8975242D01*
X3297986Y8976004D01*
X3305352Y8978239D01*
X3310534Y8981033D01*
X3313633Y8982100D01*
X3316986Y8982100D01*
X3320084Y8981033D01*
X3325215Y8978290D01*
X3332632Y8976055D01*
X3340303Y8975293D01*
X3347974Y8976055D01*
X3355340Y8978290D01*
X3360470Y8981033D01*
X3363620Y8982100D01*
X3366922Y8982100D01*
X3370072Y8981033D01*
X3375202Y8978239D01*
X3382619Y8976004D01*
X3390290Y8975242D01*
X3397961Y8976004D01*
X3405327Y8978239D01*
X3410508Y8981033D01*
X3413658Y8982100D01*
X3416960Y8982100D01*
X3420110Y8981033D01*
X3425240Y8978290D01*
X3432606Y8976055D01*
X3440277Y8975293D01*
X3447999Y8976055D01*
X3455365Y8978290D01*
X3462172Y8981897D01*
X3468115Y8986824D01*
X3473043Y8992768D01*
X3475278Y8996984D01*
X3478174Y9000337D01*
X3482238Y9002166D01*
X3486708Y9002064D01*
X3490671Y9000032D01*
X3493414Y8996527D01*
X3494379Y8992209D01*
X3494430Y8802420D01*
X3495649Y8793683D01*
X3498342Y8785656D01*
X3502507Y8778189D01*
X3507130Y8772448D01*
X3508959Y8769096D01*
X3509365Y8765336D01*
X3508400Y8761679D01*
X3506165Y8758631D01*
X3502964Y8756599D01*
X3499256Y8755888D01*
X2797352Y8755888D01*
X2793492Y8756650D01*
X2790190Y8758885D01*
X2758897Y8790178D01*
X2756662Y8793480D01*
X2755900Y8797340D01*
X2755900Y8879382D01*
X2756662Y8883294D01*
X2758897Y8886545D01*
X2763418Y8891117D01*
X2766466Y8895994D01*
X2768396Y8901430D01*
X2769108Y8907780D01*
X2769108Y8960612D01*
X2768396Y8966962D01*
X2766466Y8972397D01*
X2763418Y8977325D01*
X2759303Y8981389D01*
X2754426Y8984488D01*
X2748940Y8986418D01*
X2742641Y8987129D01*
X2722829Y8987129D01*
X2718155Y8988196D01*
X2708554Y8989872D01*
X2698800Y8989872D01*
X2689250Y8988196D01*
X2684526Y8987129D01*
X2664764Y8987129D01*
X2658414Y8986418D01*
X2652979Y8984488D01*
X2648051Y8981389D01*
X2641701Y8974734D01*
X2638755Y8973108D01*
X2635402Y8972499D01*
X2627680Y8972499D01*
X2624074Y8973159D01*
X2620924Y8975039D01*
X2618638Y8977985D01*
X2617470Y8982506D01*
X2615539Y8987993D01*
X2612440Y8992870D01*
X2608376Y8996984D01*
X2603449Y9000032D01*
X2598013Y9001963D01*
X2591663Y9002674D01*
X2512822Y9002674D01*
X2506522Y9001963D01*
X2501036Y9000032D01*
X2496159Y8996984D01*
X2492044Y8992870D01*
X2490876Y8990990D01*
X2488031Y8988044D01*
X2484323Y8986469D01*
X2480208Y8986469D01*
X2476500Y8988044D01*
X2473655Y8990990D01*
X2472486Y8992870D01*
X2468372Y8996984D01*
X2463495Y9000032D01*
X2458008Y9001963D01*
X2451709Y9002674D01*
X2438450Y9002674D01*
X2434488Y9003487D01*
X2431135Y9005773D01*
X2428951Y9009176D01*
X2428290Y9013139D01*
X2429205Y9017101D01*
X2431592Y9020352D01*
X2435098Y9022435D01*
X2437485Y9023248D01*
X2442413Y9026347D01*
X2446477Y9030462D01*
X2449576Y9035338D01*
X2451455Y9040774D01*
X2452166Y9047124D01*
X2452166Y9099956D01*
X2451455Y9106306D01*
X2449576Y9111742D01*
X2446477Y9116669D01*
X2442413Y9120733D01*
X2437485Y9123832D01*
X2433726Y9125153D01*
X2430170Y9127286D01*
X2427732Y9130690D01*
X2426919Y9134754D01*
X2427732Y9138818D01*
X2430170Y9142222D01*
X2433726Y9144355D01*
X2437485Y9145676D01*
X2442413Y9148724D01*
X2446477Y9152839D01*
X2449576Y9157716D01*
X2451455Y9163202D01*
X2452166Y9169501D01*
X2452166Y9222384D01*
X2451455Y9228683D01*
X2449931Y9233154D01*
X2449322Y9236913D01*
X2450185Y9240570D01*
X2452319Y9243720D01*
X2543149Y9334550D01*
X2546451Y9336735D01*
X2550312Y9337548D01*
X2729382Y9337548D01*
X2733497Y9336633D01*
X2736900Y9334195D01*
X2739034Y9330537D01*
X2740202Y9318447D01*
X2742438Y9311030D01*
X2745181Y9305899D01*
X2746248Y9302800D01*
X2746248Y9299448D01*
X2745181Y9296349D01*
X2742438Y9291218D01*
X2740202Y9283801D01*
X2739440Y9276130D01*
X2740202Y9268460D01*
X2742438Y9261094D01*
X2745232Y9255912D01*
X2746298Y9252762D01*
X2746298Y9249460D01*
X2745232Y9246311D01*
X2742438Y9241180D01*
X2740202Y9233814D01*
X2739440Y9226092D01*
X2740202Y9218422D01*
X2742438Y9211056D01*
X2746095Y9204248D01*
X2750972Y9198305D01*
X2756966Y9193377D01*
X2763774Y9189770D01*
X2771140Y9187535D01*
X2779318Y9186722D01*
X2901340Y9186722D01*
X2909519Y9187535D01*
X2916885Y9189770D01*
X2923692Y9193377D01*
X2929636Y9198305D01*
X2934563Y9204248D01*
X2938170Y9211056D01*
X2940405Y9218422D01*
X2941167Y9226092D01*
X2940405Y9233814D01*
X2938170Y9241180D01*
X2935427Y9246311D01*
X2934360Y9249460D01*
X2934360Y9252762D01*
X2935427Y9255912D01*
X2938170Y9261094D01*
X2940405Y9268460D01*
X2941167Y9276130D01*
X2940405Y9283801D01*
X2938170Y9291218D01*
X2935427Y9296349D01*
X2934360Y9299448D01*
X2934360Y9302800D01*
X2935427Y9305899D01*
X2938170Y9311030D01*
X2940405Y9318447D01*
X2941167Y9326118D01*
X2940405Y9333788D01*
X2938170Y9341154D01*
X2935427Y9346336D01*
X2934360Y9349486D01*
X2934360Y9352788D01*
X2935427Y9355937D01*
X2938170Y9361068D01*
X2940405Y9368434D01*
X2941167Y9376156D01*
X2940405Y9383826D01*
X2938170Y9391192D01*
X2934563Y9398000D01*
X2929636Y9403994D01*
X2923692Y9408871D01*
X2916885Y9412478D01*
X2909519Y9414764D01*
X2901340Y9415526D01*
X2779318Y9415526D01*
X2770632Y9414764D01*
X2530602Y9414764D01*
X2522575Y9413951D01*
X2515362Y9411766D01*
X2508707Y9408210D01*
X2502458Y9403080D01*
X2359914Y9260484D01*
X2353665Y9252559D01*
X2350617Y9249968D01*
X2346807Y9248749D01*
X2341524Y9248140D01*
X2336038Y9246260D01*
X2331161Y9243161D01*
X2327046Y9239046D01*
X2323998Y9234170D01*
X2322068Y9228683D01*
X2321356Y9222384D01*
X2321356Y9169501D01*
X2322068Y9163202D01*
X2323998Y9157716D01*
X2327046Y9152839D01*
X2331161Y9148724D01*
X2336038Y9145676D01*
X2339848Y9144355D01*
X2343404Y9142222D01*
X2345791Y9138818D01*
X2346655Y9134754D01*
X2345791Y9130690D01*
X2343404Y9127286D01*
X2339848Y9125153D01*
X2336038Y9123832D01*
X2331161Y9120733D01*
X2327046Y9116669D01*
X2323998Y9111742D01*
X2322068Y9106306D01*
X2321356Y9099956D01*
X2321356Y9047124D01*
X2322068Y9040774D01*
X2323998Y9035338D01*
X2327046Y9030462D01*
X2331161Y9026347D01*
X2336038Y9023248D01*
X2341372Y9021419D01*
X2344928Y9019286D01*
X2347315Y9015882D01*
X2348179Y9011818D01*
X2348179Y8987332D01*
X2347061Y8982506D01*
X2346350Y8976207D01*
X2346350Y8890914D01*
X2347061Y8884615D01*
X2348992Y8879128D01*
X2352090Y8874252D01*
X2356154Y8870137D01*
X2361082Y8867089D01*
X2366518Y8865158D01*
X2372868Y8864447D01*
X2451709Y8864447D01*
X2458008Y8865158D01*
X2463495Y8867089D01*
X2468372Y8870137D01*
X2472486Y8874252D01*
X2473655Y8876131D01*
X2476500Y8879078D01*
X2480208Y8880703D01*
X2484323Y8880703D01*
X2488031Y8879078D01*
X2490876Y8876131D01*
X2492044Y8874252D01*
X2496159Y8870137D01*
X2501036Y8867089D01*
X2506522Y8865158D01*
X2512822Y8864447D01*
X2591663Y8864447D01*
X2598013Y8865158D01*
X2603449Y8867089D01*
X2608376Y8870137D01*
X2612440Y8874252D01*
X2615539Y8879128D01*
X2617470Y8884615D01*
X2618689Y8889746D01*
X2620924Y8892692D01*
X2624074Y8894572D01*
X2627680Y8895283D01*
X2633878Y8895283D01*
X2637790Y8894521D01*
X2641092Y8892336D01*
X2643327Y8889034D01*
X2644089Y8885123D01*
X2644089Y8770315D01*
X2644292Y8766708D01*
X2643733Y8762644D01*
X2641600Y8759139D01*
X2638196Y8756751D01*
X2634183Y8755938D01*
X2177440Y8755938D01*
X2173528Y8756700D01*
X2170277Y8758885D01*
X2098751Y8830208D01*
X2096566Y8833510D01*
X2095804Y8837422D01*
X2095804Y9952532D01*
X2096566Y9956444D01*
X2098751Y9959746D01*
X2302713Y10163657D01*
X2305964Y10165892D01*
X2309876Y10166654D01*
X2313787Y10165892D01*
X2317038Y10163657D01*
X2551125Y9929622D01*
X2553309Y9926320D01*
X2554071Y9922408D01*
X2554071Y9820198D01*
X2554325Y9815118D01*
X2554935Y9810292D01*
X2556002Y9805517D01*
X2557475Y9800844D01*
X2559354Y9796373D01*
X2561590Y9792055D01*
X2564180Y9787940D01*
X2567178Y9784029D01*
X2570632Y9780270D01*
X2614117Y9736785D01*
X2618943Y9732467D01*
X2621381Y9729216D01*
X2622346Y9725304D01*
X2621686Y9721291D01*
X2619502Y9717836D01*
X2616149Y9715550D01*
X2612186Y9714738D01*
X2586482Y9714738D01*
X2582570Y9715500D01*
X2579268Y9717735D01*
X2495854Y9801148D01*
X2489606Y9806228D01*
X2482951Y9809835D01*
X2475738Y9812020D01*
X2467711Y9812782D01*
X2440127Y9812782D01*
X2436266Y9813594D01*
X2432964Y9815779D01*
X2429306Y9819386D01*
X2424430Y9822484D01*
X2418943Y9824415D01*
X2412644Y9825126D01*
X2263749Y9825126D01*
X2257450Y9824415D01*
X2251964Y9822484D01*
X2247087Y9819386D01*
X2242972Y9815322D01*
X2239924Y9810394D01*
X2237994Y9804958D01*
X2237282Y9798608D01*
X2237282Y9749790D01*
X2237994Y9743440D01*
X2239924Y9738004D01*
X2242972Y9733076D01*
X2247087Y9729012D01*
X2251964Y9725914D01*
X2257450Y9723983D01*
X2263749Y9723272D01*
X2412644Y9723272D01*
X2418943Y9723983D01*
X2424430Y9725914D01*
X2429306Y9729012D01*
X2432913Y9732619D01*
X2436215Y9734804D01*
X2440127Y9735566D01*
X2448001Y9735566D01*
X2451912Y9734804D01*
X2455214Y9732619D01*
X2538628Y9649155D01*
X2544876Y9644075D01*
X2551531Y9640519D01*
X2558745Y9638284D01*
X2566771Y9637522D01*
X2665831Y9637522D01*
X2670098Y9636607D01*
X2673553Y9633966D01*
X2675636Y9630156D01*
X2675890Y9625838D01*
X2674315Y9621774D01*
X2662123Y9603232D01*
X2659888Y9600793D01*
X2656941Y9599218D01*
X2653639Y9598660D01*
X2504440Y9598660D01*
X2496413Y9597847D01*
X2489200Y9595662D01*
X2482494Y9592106D01*
X2476296Y9587026D01*
X2465171Y9575749D01*
X2461869Y9573514D01*
X2457958Y9572752D01*
X2440178Y9572752D01*
X2436266Y9573514D01*
X2433015Y9575749D01*
X2429306Y9579406D01*
X2424430Y9582505D01*
X2418943Y9584385D01*
X2412644Y9585096D01*
X2263749Y9585096D01*
X2257450Y9584385D01*
X2251964Y9582505D01*
X2247087Y9579406D01*
X2242972Y9575342D01*
X2239924Y9570415D01*
X2237994Y9564979D01*
X2237282Y9558629D01*
X2237282Y9509760D01*
X2237994Y9503460D01*
X2239924Y9497974D01*
X2242972Y9493097D01*
X2247087Y9488982D01*
X2251964Y9485934D01*
X2257450Y9484004D01*
X2263749Y9483293D01*
X2412644Y9483293D01*
X2418943Y9484004D01*
X2424430Y9485934D01*
X2429306Y9488982D01*
X2432862Y9492538D01*
X2436164Y9494774D01*
X2440076Y9495536D01*
X2477770Y9495536D01*
X2485796Y9496348D01*
X2493010Y9498533D01*
X2499715Y9502089D01*
X2505913Y9507169D01*
X2517038Y9518446D01*
X2520340Y9520682D01*
X2524252Y9521444D01*
X2679446Y9521444D01*
X2687472Y9522256D01*
X2694686Y9524441D01*
X2701391Y9527997D01*
X2707233Y9532772D01*
X2712313Y9538970D01*
X2726080Y9559899D01*
X2729026Y9562846D01*
X2732938Y9564319D01*
X2737104Y9564166D01*
X2740812Y9562287D01*
X2743504Y9559086D01*
X2745232Y9555937D01*
X2746298Y9552787D01*
X2746298Y9549485D01*
X2745232Y9546336D01*
X2742438Y9541154D01*
X2740202Y9533788D01*
X2739440Y9526117D01*
X2740202Y9518446D01*
X2742438Y9511030D01*
X2745181Y9505899D01*
X2746248Y9502800D01*
X2746248Y9499447D01*
X2745181Y9496348D01*
X2742438Y9491218D01*
X2740202Y9483801D01*
X2739440Y9476130D01*
X2740202Y9468459D01*
X2742438Y9461093D01*
X2746095Y9454286D01*
X2750972Y9448292D01*
X2756966Y9443415D01*
X2763774Y9439757D01*
X2771140Y9437522D01*
X2779318Y9436709D01*
X2901340Y9436709D01*
X2909519Y9437522D01*
X2916885Y9439757D01*
X2923692Y9443415D01*
X2929636Y9448292D01*
X2934563Y9454286D01*
X2938170Y9461093D01*
X2940405Y9468459D01*
X2941167Y9476130D01*
X2940405Y9483801D01*
X2938170Y9491218D01*
X2935427Y9496348D01*
X2934360Y9499447D01*
X2934360Y9502800D01*
X2935427Y9505899D01*
X2938170Y9511030D01*
X2940405Y9518446D01*
X2941167Y9526117D01*
X2940405Y9533788D01*
X2938170Y9541154D01*
X2935427Y9546336D01*
X2934360Y9549485D01*
X2934360Y9552787D01*
X2935427Y9555937D01*
X2938170Y9561068D01*
X2940405Y9568434D01*
X2941167Y9576155D01*
X2940405Y9583826D01*
X2938170Y9591192D01*
X2935427Y9596323D01*
X2934360Y9599472D01*
X2934360Y9602774D01*
X2935427Y9605924D01*
X2938170Y9611055D01*
X2940405Y9618421D01*
X2941167Y9626092D01*
X2940405Y9633813D01*
X2938170Y9641179D01*
X2935427Y9646310D01*
X2934360Y9649460D01*
X2934360Y9652762D01*
X2935427Y9655911D01*
X2938170Y9661093D01*
X2940405Y9668459D01*
X2941167Y9676130D01*
X2940405Y9683800D01*
X2938170Y9691217D01*
X2935427Y9696348D01*
X2934360Y9699447D01*
X2934360Y9702800D01*
X2935427Y9705898D01*
X2938170Y9711029D01*
X2940405Y9718446D01*
X2941167Y9726117D01*
X2940405Y9733788D01*
X2938170Y9741154D01*
X2935427Y9746335D01*
X2934360Y9749485D01*
X2934360Y9752787D01*
X2935427Y9755936D01*
X2938170Y9761067D01*
X2940405Y9768433D01*
X2941167Y9776155D01*
X2940405Y9783826D01*
X2938170Y9791192D01*
X2934563Y9797999D01*
X2929636Y9803942D01*
X2923692Y9808870D01*
X2916885Y9812477D01*
X2909519Y9814712D01*
X2901340Y9815525D01*
X2865983Y9815525D01*
X2861462Y9816592D01*
X2856890Y9818878D01*
X2848711Y9821214D01*
X2839872Y9822027D01*
X2809544Y9821976D01*
X2805379Y9822840D01*
X2801924Y9825380D01*
X2799842Y9829038D01*
X2799435Y9833254D01*
X2799994Y9838588D01*
X2799994Y9916464D01*
X2799283Y9922764D01*
X2797403Y9928250D01*
X2794304Y9933127D01*
X2790240Y9937242D01*
X2785313Y9940340D01*
X2779877Y9942220D01*
X2773527Y9942931D01*
X2720695Y9942931D01*
X2714345Y9942220D01*
X2708910Y9940340D01*
X2703982Y9937242D01*
X2699918Y9933127D01*
X2696819Y9928250D01*
X2694889Y9922764D01*
X2694178Y9916464D01*
X2694178Y9842195D01*
X2693416Y9838334D01*
X2691231Y9835032D01*
X2687929Y9832797D01*
X2684018Y9832035D01*
X2681224Y9832035D01*
X2677312Y9832797D01*
X2674010Y9835032D01*
X2668879Y9840163D01*
X2666695Y9843465D01*
X2665882Y9847326D01*
X2665882Y9949586D01*
X2665679Y9954666D01*
X2665018Y9959492D01*
X2664002Y9964267D01*
X2662529Y9968890D01*
X2660650Y9973411D01*
X2658414Y9977729D01*
X2655773Y9981844D01*
X2652826Y9985705D01*
X2649372Y9989464D01*
X2462174Y10176662D01*
X2459990Y10179964D01*
X2459228Y10183825D01*
X2459990Y10187736D01*
X2462174Y10191038D01*
X2465476Y10193223D01*
X2469388Y10193985D01*
X2891231Y10193985D01*
X2895295Y10193172D01*
X2898648Y10190784D01*
X2900781Y10187228D01*
X2901391Y10183164D01*
X2900883Y10176408D01*
X2900883Y10149179D01*
X2900121Y10145268D01*
X2897073Y10141153D01*
X2894025Y10136225D01*
X2892094Y10130790D01*
X2891383Y10124440D01*
X2891383Y10071608D01*
X2892094Y10065258D01*
X2894025Y10059822D01*
X2897073Y10054894D01*
X2901188Y10050830D01*
X2906064Y10047732D01*
X2911551Y10045852D01*
X2917850Y10045090D01*
X2937916Y10045090D01*
X2940507Y10044785D01*
X2944164Y10043769D01*
X2948076Y10041788D01*
X2950718Y10038283D01*
X2951683Y10033965D01*
X2951683Y9995662D01*
X2950870Y9987127D01*
X2950870Y9865106D01*
X2951683Y9856927D01*
X2953918Y9849561D01*
X2957576Y9842754D01*
X2962452Y9836759D01*
X2968447Y9831882D01*
X2975254Y9828225D01*
X2982620Y9825990D01*
X2990291Y9825228D01*
X2997962Y9825990D01*
X3005378Y9828225D01*
X3012186Y9831882D01*
X3018129Y9836759D01*
X3023006Y9842754D01*
X3026664Y9849561D01*
X3028899Y9856927D01*
X3029712Y9865106D01*
X3029712Y9987127D01*
X3028899Y9995763D01*
X3028899Y10064038D01*
X3028137Y10072065D01*
X3025902Y10079278D01*
X3023412Y10084003D01*
X3022498Y10086289D01*
X3022193Y10088778D01*
X3022193Y10124440D01*
X3021482Y10130790D01*
X3019602Y10136225D01*
X3013303Y10146030D01*
X3012744Y10149789D01*
X3013557Y10153446D01*
X3015691Y10156596D01*
X3050133Y10191038D01*
X3053435Y10193223D01*
X3057347Y10193985D01*
X3859834Y10193985D01*
X3864914Y10194239D01*
X3869740Y10194848D01*
X3874515Y10195915D01*
X3879138Y10197388D01*
X3883660Y10199268D01*
X3887978Y10201503D01*
X3892092Y10204145D01*
X3895953Y10207091D01*
X3899712Y10210546D01*
X4010304Y10321086D01*
X4013555Y10323322D01*
X4017467Y10324084D01*
X4019651Y10324084D01*
X4031335Y10324947D01*
X4042359Y10327487D01*
X4052925Y10331602D01*
X4062729Y10337292D01*
X4068978Y10342219D01*
X4072890Y10344150D01*
X4077106Y10344251D01*
X4077004Y10347807D01*
X4078630Y10351770D01*
X4085742Y10362082D01*
X4090619Y10372242D01*
X4093972Y10383113D01*
X4095699Y10394289D01*
X4095699Y10405668D01*
X4093972Y10416844D01*
X4090619Y10427716D01*
X4087926Y10433354D01*
X4086910Y10437368D01*
X4087622Y10441482D01*
X4089857Y10444937D01*
X4106011Y10461091D01*
X4109313Y10463326D01*
X4113174Y10464088D01*
X4132935Y10464088D01*
X4137253Y10463174D01*
X4140708Y10460482D01*
X4142740Y10456621D01*
X4142943Y10452252D01*
X4141317Y10448188D01*
X4134256Y10437876D01*
X4129328Y10427716D01*
X4125976Y10416844D01*
X4124299Y10405668D01*
X4124299Y10394289D01*
X4125976Y10383113D01*
X4127144Y10379405D01*
X4127550Y10375798D01*
X4126687Y10372242D01*
X4124604Y10369245D01*
X4094175Y10338816D01*
X4090619Y10336530D01*
X4086402Y10335869D01*
X4085082Y10336225D01*
X4085437Y10335107D01*
X4084828Y10330789D01*
X4082491Y10327132D01*
X3894988Y10139629D01*
X3891686Y10137394D01*
X3887774Y10136632D01*
X3340100Y10136632D01*
X3336848Y10137190D01*
X3333953Y10138714D01*
X3327603Y10145217D01*
X3322675Y10148316D01*
X3317240Y10150195D01*
X3310890Y10150906D01*
X3255467Y10150906D01*
X3249168Y10150195D01*
X3243275Y10148163D01*
X3239922Y10147604D01*
X3236569Y10148163D01*
X3230676Y10150195D01*
X3224326Y10150906D01*
X3168904Y10150906D01*
X3162604Y10150195D01*
X3157118Y10148316D01*
X3152241Y10145217D01*
X3148126Y10141153D01*
X3145028Y10136225D01*
X3143148Y10130790D01*
X3142437Y10124440D01*
X3142437Y10071608D01*
X3143148Y10065258D01*
X3145028Y10059822D01*
X3150920Y10051034D01*
X3151682Y10047173D01*
X3151682Y10037064D01*
X3150819Y10032949D01*
X3148330Y10029545D01*
X3144723Y10027412D01*
X3132632Y10026243D01*
X3125266Y10024008D01*
X3120085Y10021214D01*
X3116935Y10020147D01*
X3113633Y10020147D01*
X3110484Y10021214D01*
X3105353Y10023957D01*
X3097987Y10026192D01*
X3090316Y10026954D01*
X3082645Y10026192D01*
X3075228Y10023957D01*
X3068421Y10020350D01*
X3062478Y10015423D01*
X3057601Y10009479D01*
X3053943Y10002672D01*
X3051708Y9995306D01*
X3050895Y9987127D01*
X3050895Y9865106D01*
X3051708Y9856927D01*
X3053842Y9849866D01*
X3054299Y9846919D01*
X3054299Y9799929D01*
X3053638Y9796373D01*
X3051759Y9793224D01*
X3049016Y9790125D01*
X3044342Y9782251D01*
X3041142Y9773716D01*
X3039516Y9764776D01*
X3039516Y9755632D01*
X3041142Y9746691D01*
X3044342Y9738156D01*
X3049016Y9730282D01*
X3055061Y9723424D01*
X3062173Y9717735D01*
X3070199Y9713417D01*
X3078886Y9710623D01*
X3087928Y9709404D01*
X3097022Y9709810D01*
X3105912Y9711842D01*
X3114294Y9715398D01*
X3121914Y9720427D01*
X3128518Y9726726D01*
X3133852Y9734092D01*
X3137814Y9742322D01*
X3139084Y9746945D01*
X3140659Y9750196D01*
X3143300Y9752736D01*
X3146602Y9754158D01*
X3153918Y9755835D01*
X3162300Y9759391D01*
X3169920Y9764420D01*
X3176524Y9770719D01*
X3177946Y9772700D01*
X3180842Y9775393D01*
X3184601Y9776764D01*
X3188614Y9776561D01*
X3192221Y9774885D01*
X3194862Y9771938D01*
X3197047Y9768281D01*
X3203041Y9761423D01*
X3210153Y9755733D01*
X3218180Y9751415D01*
X3226866Y9748621D01*
X3234842Y9747554D01*
X3238296Y9746386D01*
X3241141Y9744151D01*
X3242970Y9741052D01*
X3244138Y9737902D01*
X3248863Y9730079D01*
X3254857Y9723221D01*
X3261969Y9717532D01*
X3269996Y9713214D01*
X3278682Y9710369D01*
X3287725Y9709150D01*
X3296818Y9709556D01*
X3305708Y9711588D01*
X3314090Y9715195D01*
X3321710Y9720224D01*
X3331362Y9729368D01*
X3335070Y9730740D01*
X3339084Y9730536D01*
X3342690Y9728860D01*
X3345332Y9725914D01*
X3348837Y9720072D01*
X3354832Y9713214D01*
X3361994Y9707524D01*
X3370021Y9703206D01*
X3378657Y9700412D01*
X3387699Y9699142D01*
X3396843Y9699548D01*
X3405733Y9701580D01*
X3414115Y9705187D01*
X3421684Y9710216D01*
X3428288Y9716516D01*
X3433673Y9723882D01*
X3436721Y9728403D01*
X3440125Y9730435D01*
X3444087Y9730943D01*
X3447948Y9729927D01*
X3451098Y9727488D01*
X3454857Y9723221D01*
X3461969Y9717532D01*
X3469995Y9713214D01*
X3478682Y9710369D01*
X3487724Y9709150D01*
X3496818Y9709556D01*
X3505708Y9711588D01*
X3514090Y9715195D01*
X3521710Y9720224D01*
X3528314Y9726523D01*
X3533648Y9733889D01*
X3538016Y9742932D01*
X3541318Y9746945D01*
X3543452Y9748469D01*
X3545941Y9749383D01*
X3555695Y9751618D01*
X3564077Y9755174D01*
X3571697Y9760204D01*
X3576065Y9764369D01*
X3579164Y9766401D01*
X3582822Y9767163D01*
X3586479Y9766604D01*
X3589680Y9764725D01*
X3592017Y9761829D01*
X3596081Y9754260D01*
X3600907Y9748316D01*
X3608019Y9742627D01*
X3610711Y9739325D01*
X3611778Y9735261D01*
X3611168Y9731095D01*
X3608882Y9727539D01*
X3605377Y9725253D01*
X3601212Y9724542D01*
X3595725Y9724796D01*
X3586683Y9723577D01*
X3577996Y9720732D01*
X3569970Y9716414D01*
X3562858Y9710724D01*
X3556863Y9703866D01*
X3552139Y9696043D01*
X3548938Y9687509D01*
X3547313Y9678517D01*
X3547313Y9669424D01*
X3548938Y9660432D01*
X3552139Y9651898D01*
X3556863Y9644075D01*
X3562858Y9637217D01*
X3569970Y9631527D01*
X3577996Y9627209D01*
X3583533Y9625431D01*
X3586429Y9623907D01*
X3588664Y9621621D01*
X3590086Y9618675D01*
X3592423Y9611055D01*
X3595166Y9605924D01*
X3596233Y9602774D01*
X3596233Y9599472D01*
X3595166Y9596323D01*
X3592423Y9591192D01*
X3590188Y9583826D01*
X3589426Y9576155D01*
X3590188Y9568434D01*
X3592423Y9561068D01*
X3595166Y9555937D01*
X3596233Y9552787D01*
X3596233Y9549485D01*
X3595166Y9546336D01*
X3592423Y9541154D01*
X3590188Y9533788D01*
X3589426Y9526117D01*
X3590188Y9518446D01*
X3592423Y9511030D01*
X3595166Y9505899D01*
X3596233Y9502800D01*
X3596233Y9499447D01*
X3595166Y9496348D01*
X3592423Y9491218D01*
X3590188Y9483801D01*
X3589426Y9476130D01*
X3590188Y9468459D01*
X3592423Y9461093D01*
X3595166Y9455912D01*
X3596233Y9452762D01*
X3596233Y9449460D01*
X3595166Y9446310D01*
X3592423Y9441180D01*
X3590188Y9433814D01*
X3589426Y9426092D01*
X3590188Y9418421D01*
X3592423Y9411055D01*
X3595166Y9405924D01*
X3596233Y9402775D01*
X3596233Y9399473D01*
X3595166Y9396323D01*
X3592423Y9391192D01*
X3590188Y9383826D01*
X3589426Y9376156D01*
X3590188Y9368434D01*
X3592423Y9361068D01*
X3595166Y9355937D01*
X3596233Y9352788D01*
X3596233Y9349486D01*
X3595166Y9346336D01*
X3592423Y9341154D01*
X3590188Y9333788D01*
X3589426Y9326118D01*
X3590188Y9318447D01*
X3592423Y9311030D01*
X3595166Y9305899D01*
X3596233Y9302800D01*
X3596233Y9299448D01*
X3595166Y9296349D01*
X3592423Y9291218D01*
X3590188Y9283801D01*
X3589426Y9276130D01*
X3590188Y9268460D01*
X3592423Y9261094D01*
X3595166Y9255912D01*
X3596233Y9252762D01*
X3596233Y9249460D01*
X3595166Y9246311D01*
X3592423Y9241180D01*
X3590188Y9233814D01*
X3589426Y9226092D01*
X3590188Y9218422D01*
X3592423Y9211056D01*
X3596081Y9204248D01*
X3600958Y9198305D01*
X3606901Y9193377D01*
X3613708Y9189770D01*
X3621125Y9187535D01*
X3629304Y9186722D01*
X3751275Y9186722D01*
X3760012Y9187535D01*
X3867810Y9187535D01*
X3871417Y9186824D01*
X3874566Y9184944D01*
X3876852Y9181998D01*
X3879799Y9173006D01*
X3882898Y9168079D01*
X3887012Y9164015D01*
X3891889Y9160916D01*
X3897376Y9158986D01*
X3903675Y9158274D01*
X3982516Y9158274D01*
X3988866Y9158986D01*
X3994302Y9160916D01*
X3999229Y9164015D01*
X4003294Y9168079D01*
X4006392Y9173006D01*
X4008323Y9178442D01*
X4009034Y9184792D01*
X4009034Y9263634D01*
X4008323Y9269933D01*
X4006392Y9275419D01*
X4003294Y9280296D01*
X3999229Y9284411D01*
X3994302Y9287510D01*
X3988866Y9289389D01*
X3982516Y9290100D01*
X3903675Y9290100D01*
X3897376Y9289389D01*
X3891889Y9287510D01*
X3887012Y9284411D01*
X3882898Y9280296D01*
X3879799Y9275419D01*
X3878478Y9271508D01*
X3876344Y9268002D01*
X3872941Y9265564D01*
X3868877Y9264751D01*
X3801211Y9264751D01*
X3797096Y9265615D01*
X3793693Y9268053D01*
X3791559Y9271711D01*
X3790391Y9283801D01*
X3788156Y9291218D01*
X3785412Y9296349D01*
X3784346Y9299448D01*
X3784346Y9302800D01*
X3785412Y9305899D01*
X3788156Y9311030D01*
X3790391Y9318447D01*
X3791153Y9326118D01*
X3790391Y9333788D01*
X3788156Y9341154D01*
X3785412Y9346336D01*
X3784346Y9349486D01*
X3784346Y9352788D01*
X3785412Y9355937D01*
X3788156Y9361068D01*
X3790391Y9368434D01*
X3791153Y9376156D01*
X3790391Y9383826D01*
X3788156Y9391192D01*
X3785412Y9396323D01*
X3784346Y9399473D01*
X3784346Y9402775D01*
X3785412Y9405924D01*
X3788156Y9411055D01*
X3790391Y9418421D01*
X3791153Y9426092D01*
X3790391Y9433814D01*
X3788156Y9441180D01*
X3785412Y9446310D01*
X3784346Y9449460D01*
X3784346Y9452762D01*
X3785412Y9455912D01*
X3788156Y9461093D01*
X3790391Y9468459D01*
X3791153Y9476130D01*
X3790391Y9483801D01*
X3788156Y9491218D01*
X3785412Y9496348D01*
X3784346Y9499447D01*
X3784346Y9502800D01*
X3785412Y9505899D01*
X3788156Y9511030D01*
X3790391Y9518446D01*
X3791153Y9526117D01*
X3790645Y9531045D01*
X3791102Y9535261D01*
X3793236Y9538868D01*
X3796639Y9541357D01*
X3800754Y9542221D01*
X4122267Y9542221D01*
X4126179Y9541459D01*
X4129481Y9539224D01*
X4282186Y9386468D01*
X4288434Y9381388D01*
X4295089Y9377832D01*
X4302353Y9375597D01*
X4310380Y9374835D01*
X4709261Y9374835D01*
X4713173Y9374073D01*
X4716475Y9371838D01*
X4776520Y9311792D01*
X4782769Y9306661D01*
X4788560Y9303562D01*
X4790694Y9302038D01*
X4792370Y9300006D01*
X4795469Y9295130D01*
X4799533Y9291066D01*
X4804460Y9287967D01*
X4809896Y9286036D01*
X4816246Y9285325D01*
X4915103Y9285325D01*
X4921402Y9286036D01*
X4930800Y9289745D01*
X4934254Y9289897D01*
X4937607Y9288881D01*
X4940350Y9286798D01*
X4986883Y9237573D01*
X4990693Y9233916D01*
X4994351Y9230969D01*
X4998720Y9227972D01*
X5040477Y9202521D01*
X5049570Y9197949D01*
X5058918Y9195206D01*
X5069992Y9194088D01*
X5193842Y9192971D01*
X5198008Y9192006D01*
X5201462Y9189415D01*
X5203494Y9185656D01*
X5203799Y9181338D01*
X5202275Y9177324D01*
X5199176Y9171787D01*
X5196230Y9164777D01*
X5195062Y9161221D01*
X5193233Y9153855D01*
X5192623Y9150146D01*
X5191861Y9142577D01*
X5193893Y8785504D01*
X5193131Y8781542D01*
X5190896Y8778240D01*
X4962194Y8549538D01*
X4958791Y8547303D01*
X4954828Y8546541D01*
X4929428Y8547049D01*
X4917694Y8546388D01*
X4906619Y8544052D01*
X4895951Y8540140D01*
X4886045Y8534654D01*
X4881727Y8531301D01*
X4878781Y8529777D01*
X4875530Y8529218D01*
X4872837Y8529218D01*
X4868976Y8529980D01*
X4865674Y8532215D01*
X4863439Y8535517D01*
X4862677Y8539378D01*
X4862677Y8553500D01*
X4861966Y8559850D01*
X4860086Y8565286D01*
X4856988Y8570214D01*
X4852873Y8574278D01*
X4847996Y8577376D01*
X4842510Y8579307D01*
X4836210Y8580018D01*
X4753864Y8580018D01*
X4747514Y8579307D01*
X4742078Y8577376D01*
X4737150Y8574278D01*
X4733086Y8570214D01*
X4729988Y8565286D01*
X4728108Y8559850D01*
X4727397Y8553500D01*
X4727397Y8523173D01*
X4728108Y8516823D01*
X4731359Y8508238D01*
X4731613Y8505037D01*
X4730800Y8501837D01*
X4729073Y8497824D01*
X4726838Y8494572D01*
X4723587Y8492388D01*
G37*

%LPC*%
G36*
X4073855Y9158274D02*
G01*
X4152696Y9158274D01*
X4159046Y9158986D01*
X4164482Y9160916D01*
X4169410Y9164015D01*
X4173474Y9168079D01*
X4176572Y9173006D01*
X4178604Y9178798D01*
X4180738Y9182354D01*
X4184142Y9184741D01*
X4188206Y9185605D01*
X4207967Y9185605D01*
X4211218Y9185046D01*
X4214164Y9183522D01*
X4220514Y9177020D01*
X4225442Y9173921D01*
X4230878Y9171990D01*
X4237177Y9171279D01*
X4292650Y9171279D01*
X4298950Y9171990D01*
X4304385Y9173921D01*
X4309313Y9177020D01*
X4313377Y9181084D01*
X4316476Y9186011D01*
X4318406Y9191447D01*
X4319117Y9197797D01*
X4319117Y9250629D01*
X4318406Y9256979D01*
X4316476Y9262414D01*
X4313377Y9267342D01*
X4309313Y9271406D01*
X4304385Y9274505D01*
X4298950Y9276384D01*
X4292650Y9277096D01*
X4237177Y9277096D01*
X4230878Y9276384D01*
X4225442Y9274505D01*
X4220514Y9271406D01*
X4214164Y9264904D01*
X4211218Y9263329D01*
X4207967Y9262821D01*
X4188206Y9262821D01*
X4184142Y9263684D01*
X4180738Y9266072D01*
X4178604Y9269628D01*
X4176572Y9275419D01*
X4173474Y9280296D01*
X4169410Y9284411D01*
X4164482Y9287510D01*
X4159046Y9289389D01*
X4152696Y9290100D01*
X4073855Y9290100D01*
X4067556Y9289389D01*
X4062069Y9287510D01*
X4057192Y9284411D01*
X4053078Y9280296D01*
X4049979Y9275419D01*
X4048099Y9269933D01*
X4047388Y9263634D01*
X4047388Y9184792D01*
X4048099Y9178442D01*
X4049979Y9173006D01*
X4053078Y9168079D01*
X4057192Y9164015D01*
X4062069Y9160916D01*
X4067556Y9158986D01*
G37*

%LPD*%
G36*
X-183896Y8055864D02*
G01*
X-187807Y8056625D01*
X-191109Y8058861D01*
X-193294Y8062112D01*
X-194056Y8066024D01*
X-194106Y10299293D01*
X-193192Y10321899D01*
X-190601Y10343235D01*
X-186385Y10364368D01*
X-180543Y10385044D01*
X-173024Y10405211D01*
X-163982Y10424769D01*
X-153466Y10443514D01*
X-141478Y10461396D01*
X-128117Y10478262D01*
X-113487Y10494060D01*
X-97688Y10508640D01*
X-80772Y10521950D01*
X-62839Y10533837D01*
X-44043Y10544352D01*
X-24485Y10553344D01*
X-4318Y10560761D01*
X16408Y10566552D01*
X37541Y10570718D01*
X58877Y10573207D01*
X80670Y10574020D01*
X4074871Y10574020D01*
X4078833Y10573207D01*
X4082186Y10570921D01*
X4084370Y10567466D01*
X4085031Y10563453D01*
X4084065Y10559542D01*
X4081627Y10556290D01*
X4078122Y10554208D01*
X4071315Y10551922D01*
X4063949Y10547807D01*
X4057040Y10542066D01*
X3992727Y10477550D01*
X3990441Y10475823D01*
X3987749Y10474807D01*
X3977640Y10472470D01*
X3967073Y10468356D01*
X3957269Y10462666D01*
X3948429Y10455605D01*
X3940708Y10447274D01*
X3934307Y10437926D01*
X3929379Y10427716D01*
X3926027Y10416844D01*
X3924350Y10405668D01*
X3924350Y10397490D01*
X3923588Y10393629D01*
X3921353Y10390327D01*
X3893261Y10362184D01*
X3889959Y10359999D01*
X3886047Y10359237D01*
X3882186Y10359999D01*
X3878884Y10362184D01*
X3876700Y10365486D01*
X3875887Y10369397D01*
X3875887Y10439603D01*
X3875024Y10451287D01*
X3872534Y10462361D01*
X3868369Y10472877D01*
X3862679Y10482732D01*
X3855618Y10491571D01*
X3847337Y10499293D01*
X3837940Y10505694D01*
X3827729Y10510621D01*
X3816908Y10513974D01*
X3805682Y10515650D01*
X3794353Y10515650D01*
X3783126Y10513974D01*
X3772255Y10510621D01*
X3762044Y10505694D01*
X3752697Y10499293D01*
X3744366Y10491571D01*
X3737305Y10482732D01*
X3731615Y10472877D01*
X3727500Y10462361D01*
X3724960Y10451287D01*
X3724097Y10439603D01*
X3724097Y10360355D01*
X3724960Y10348671D01*
X3727500Y10337596D01*
X3731615Y10327081D01*
X3735120Y10321086D01*
X3736390Y10317022D01*
X3735984Y10312857D01*
X3733850Y10309199D01*
X3730447Y10306710D01*
X3726281Y10305846D01*
X2310079Y10305846D01*
X2304999Y10305592D01*
X2300173Y10304983D01*
X2295398Y10303916D01*
X2290775Y10302443D01*
X2286254Y10300563D01*
X2281936Y10298328D01*
X2277821Y10295686D01*
X2273960Y10292740D01*
X2270201Y10289286D01*
X2000504Y10019588D01*
X1997049Y10015829D01*
X1994103Y10011968D01*
X1991461Y10007854D01*
X1989226Y10003536D01*
X1987346Y9999014D01*
X1985873Y9994392D01*
X1984806Y9989616D01*
X1984197Y9984790D01*
X1983943Y9979710D01*
X1983943Y9406940D01*
X1983181Y9403080D01*
X1980996Y9399778D01*
X1977694Y9397593D01*
X1973783Y9396780D01*
X531114Y9396780D01*
X526034Y9396577D01*
X521208Y9395917D01*
X516432Y9394901D01*
X511809Y9393428D01*
X507288Y9391548D01*
X502970Y9389313D01*
X498856Y9386671D01*
X494995Y9383725D01*
X491235Y9380270D01*
X110794Y8999829D01*
X104241Y8992006D01*
X99364Y8983573D01*
X96012Y8974429D01*
X94335Y8964828D01*
X94335Y8955125D01*
X96012Y8945524D01*
X98450Y8938818D01*
X99110Y8935364D01*
X99110Y8406028D01*
X98298Y8402167D01*
X96113Y8398865D01*
X92811Y8396681D01*
X88950Y8395868D01*
X75590Y8395868D01*
X69240Y8395157D01*
X63804Y8393277D01*
X58877Y8390178D01*
X54813Y8386114D01*
X51714Y8381187D01*
X49784Y8375751D01*
X49072Y8369401D01*
X49072Y8210550D01*
X49784Y8204250D01*
X51714Y8198764D01*
X54813Y8193887D01*
X58877Y8189772D01*
X63804Y8186674D01*
X69240Y8184794D01*
X75590Y8184083D01*
X234442Y8184083D01*
X240741Y8184794D01*
X246227Y8186674D01*
X251104Y8189772D01*
X255219Y8193887D01*
X258267Y8198764D01*
X260197Y8204250D01*
X260908Y8210550D01*
X260908Y8369401D01*
X260197Y8375751D01*
X258267Y8381187D01*
X255219Y8386114D01*
X251104Y8390178D01*
X246227Y8393277D01*
X240741Y8395157D01*
X234442Y8395868D01*
X221081Y8395868D01*
X217170Y8396681D01*
X213867Y8398865D01*
X211683Y8402167D01*
X210921Y8406028D01*
X210921Y8937599D01*
X211683Y8941511D01*
X213867Y8944813D01*
X551078Y9282023D01*
X554380Y9284208D01*
X558292Y9284970D01*
X1973783Y9284970D01*
X1977694Y9284208D01*
X1980996Y9282023D01*
X1983181Y9278721D01*
X1983943Y9274810D01*
X1983943Y8810193D01*
X1984197Y8805062D01*
X1984806Y8800287D01*
X1985873Y8795461D01*
X1987346Y8790889D01*
X1989226Y8786317D01*
X1991461Y8782050D01*
X1994103Y8777884D01*
X1997049Y8774074D01*
X2000554Y8770264D01*
X2110486Y8660587D01*
X2114194Y8657183D01*
X2118106Y8654186D01*
X2122170Y8651595D01*
X2126538Y8649309D01*
X2131009Y8647480D01*
X2135733Y8646007D01*
X2140407Y8644940D01*
X2145284Y8644331D01*
X2150313Y8644077D01*
X3617112Y8644077D01*
X3621024Y8643315D01*
X3624326Y8641080D01*
X3632301Y8633104D01*
X3636060Y8629700D01*
X3639921Y8626703D01*
X3644036Y8624112D01*
X3648354Y8621826D01*
X3652875Y8619947D01*
X3657498Y8618524D01*
X3662273Y8617458D01*
X3667099Y8616797D01*
X3672179Y8616594D01*
X3701084Y8616594D01*
X3703878Y8616188D01*
X3706469Y8615019D01*
X3711803Y8611717D01*
X3717239Y8609787D01*
X3723538Y8609076D01*
X3776421Y8609076D01*
X3782720Y8609787D01*
X3788206Y8611717D01*
X3793490Y8615019D01*
X3796131Y8616188D01*
X3798925Y8616594D01*
X3830878Y8616594D01*
X3834739Y8615832D01*
X3838854Y8612784D01*
X3843782Y8609685D01*
X3849217Y8607806D01*
X3855567Y8607094D01*
X3908399Y8607094D01*
X3914749Y8607806D01*
X3920185Y8609685D01*
X3925112Y8612784D01*
X3929227Y8615832D01*
X3933139Y8616594D01*
X4010101Y8616594D01*
X4014012Y8615832D01*
X4017314Y8613597D01*
X4199178Y8431733D01*
X4202938Y8428329D01*
X4206798Y8425332D01*
X4210913Y8422741D01*
X4215231Y8420455D01*
X4219752Y8418576D01*
X4224375Y8417153D01*
X4229150Y8416086D01*
X4233976Y8415426D01*
X4239056Y8415223D01*
X4431030Y8415223D01*
X4434941Y8414461D01*
X4439056Y8411413D01*
X4443933Y8408365D01*
X4449419Y8406434D01*
X4455718Y8405723D01*
X4508601Y8405723D01*
X4514900Y8406434D01*
X4520387Y8408365D01*
X4525264Y8411413D01*
X4526788Y8412937D01*
X4530039Y8415121D01*
X4533849Y8415934D01*
X4571593Y8416544D01*
X4575556Y8415782D01*
X4578908Y8413546D01*
X4768088Y8224469D01*
X4774895Y8218779D01*
X4776927Y8217357D01*
X4784547Y8212785D01*
X4786731Y8211667D01*
X4794961Y8208264D01*
X4797298Y8207502D01*
X4805934Y8205368D01*
X4808321Y8204962D01*
X4817211Y8204149D01*
X5042662Y8204149D01*
X5051501Y8204962D01*
X5053939Y8205368D01*
X5062524Y8207502D01*
X5064861Y8208264D01*
X5073091Y8211667D01*
X5075275Y8212785D01*
X5082895Y8217357D01*
X5084927Y8218779D01*
X5091734Y8224469D01*
X5384241Y8516874D01*
X5387492Y8519058D01*
X5391404Y8519820D01*
X5507278Y8519820D01*
X5519013Y8520734D01*
X5530037Y8523224D01*
X5540603Y8527389D01*
X5542483Y8528456D01*
X5546445Y8529777D01*
X5553405Y8530539D01*
X5558891Y8532469D01*
X5563768Y8535517D01*
X5567883Y8539632D01*
X5570982Y8544509D01*
X5572861Y8549995D01*
X5573623Y8556853D01*
X5574538Y8560104D01*
X5578297Y8567978D01*
X5581650Y8578850D01*
X5583326Y8590076D01*
X5583326Y8601405D01*
X5581650Y8612632D01*
X5578297Y8623452D01*
X5574588Y8631224D01*
X5573623Y8634476D01*
X5572861Y8641486D01*
X5570982Y8646972D01*
X5567883Y8651849D01*
X5563768Y8655964D01*
X5558891Y8659012D01*
X5553405Y8660942D01*
X5546547Y8661704D01*
X5542686Y8662924D01*
X5540654Y8664092D01*
X5530037Y8668258D01*
X5519013Y8670798D01*
X5507278Y8671661D01*
X5353100Y8671610D01*
X5344261Y8670747D01*
X5341823Y8670340D01*
X5333187Y8668207D01*
X5330850Y8667445D01*
X5322620Y8664041D01*
X5315813Y8660130D01*
X5311851Y8658758D01*
X5307685Y8659114D01*
X5304028Y8661095D01*
X5301437Y8664346D01*
X5300421Y8668410D01*
X5301132Y8672525D01*
X5303367Y8676030D01*
X5325821Y8698585D01*
X5331155Y8705037D01*
X5332882Y8707475D01*
X5337149Y8714638D01*
X5338521Y8717330D01*
X5341670Y8725052D01*
X5342585Y8727897D01*
X5344617Y8736025D01*
X5345074Y8738971D01*
X5345836Y8747302D01*
X5343804Y9103207D01*
X5344617Y9107170D01*
X5346852Y9110522D01*
X5402884Y9165539D01*
X5410606Y9174378D01*
X5419445Y9188043D01*
X5422696Y9190177D01*
X5426557Y9190888D01*
X5467858Y9190532D01*
X5474512Y9189821D01*
X5572556Y9189821D01*
X5576620Y9188958D01*
X5579973Y9186570D01*
X5582107Y9183014D01*
X5585764Y9172651D01*
X5590590Y9164066D01*
X5596788Y9156344D01*
X5604205Y9149791D01*
X5612638Y9144609D01*
X5621832Y9140901D01*
X5631535Y9138818D01*
X5641390Y9138412D01*
X5651246Y9139682D01*
X5660694Y9142577D01*
X5669534Y9147048D01*
X5677509Y9152890D01*
X5684316Y9160052D01*
X5689904Y9168282D01*
X5693968Y9177274D01*
X5696458Y9186875D01*
X5697321Y9196730D01*
X5696458Y9206585D01*
X5693968Y9216186D01*
X5693257Y9217710D01*
X5692343Y9221622D01*
X5693054Y9225584D01*
X5695188Y9228988D01*
X5698490Y9231274D01*
X5702401Y9232087D01*
X5706364Y9231325D01*
X5709716Y9229090D01*
X5776112Y9162694D01*
X5778296Y9159443D01*
X5779058Y9155531D01*
X5779058Y8985910D01*
X5778296Y8982049D01*
X5776112Y8978747D01*
X5739434Y8942120D01*
X5736183Y8939936D01*
X5732272Y8939123D01*
X5638241Y8939123D01*
X5631942Y8938412D01*
X5626455Y8936532D01*
X5621578Y8933434D01*
X5617464Y8929319D01*
X5614365Y8924442D01*
X5612485Y8919006D01*
X5611774Y8912656D01*
X5611774Y8758783D01*
X5612485Y8752484D01*
X5614365Y8746998D01*
X5617464Y8742121D01*
X5621578Y8738006D01*
X5626455Y8734958D01*
X5631942Y8733028D01*
X5638241Y8732316D01*
X5737098Y8732316D01*
X5743448Y8733028D01*
X5748883Y8734958D01*
X5753811Y8738006D01*
X5757875Y8742121D01*
X5760974Y8746998D01*
X5762853Y8752484D01*
X5763564Y8758783D01*
X5763564Y8852814D01*
X5764377Y8856726D01*
X5766562Y8860028D01*
X5844641Y8938056D01*
X5849721Y8944305D01*
X5853277Y8950960D01*
X5855512Y8958224D01*
X5856274Y8966200D01*
X5856274Y9175242D01*
X5855512Y9183268D01*
X5853277Y9190482D01*
X5849721Y9197136D01*
X5844641Y9203385D01*
X5663946Y9384030D01*
X5661761Y9387332D01*
X5660999Y9391243D01*
X5661761Y9395155D01*
X5663996Y9398457D01*
X5674055Y9408414D01*
X5679135Y9414510D01*
X5682640Y9421063D01*
X5684875Y9428124D01*
X5685688Y9435998D01*
X5685688Y9485274D01*
X5684875Y9493148D01*
X5682742Y9500260D01*
X5679236Y9506762D01*
X5674207Y9512909D01*
X5649620Y9537242D01*
X5643676Y9542119D01*
X5637123Y9545624D01*
X5630011Y9547758D01*
X5624017Y9548368D01*
X5620410Y9549384D01*
X5617464Y9551670D01*
X5615533Y9554819D01*
X5614822Y9558477D01*
X5614822Y9575139D01*
X5614111Y9581489D01*
X5613247Y9585706D01*
X5614111Y9589973D01*
X5614822Y9596272D01*
X5614822Y9625126D01*
X5614111Y9631476D01*
X5613247Y9635744D01*
X5614111Y9639960D01*
X5614822Y9646310D01*
X5614822Y9675164D01*
X5615178Y9680041D01*
X5617260Y9683750D01*
X5620715Y9686239D01*
X5624880Y9687102D01*
X5707176Y9687102D01*
X5715203Y9687915D01*
X5722416Y9690100D01*
X5729122Y9693656D01*
X5735320Y9698786D01*
X5844641Y9808057D01*
X5849721Y9814306D01*
X5853277Y9820960D01*
X5855512Y9828225D01*
X5856274Y9836200D01*
X5856274Y10030307D01*
X5855512Y10038334D01*
X5853277Y10045547D01*
X5849721Y10052253D01*
X5844641Y10058450D01*
X5791555Y10111536D01*
X5789371Y10114788D01*
X5788609Y10118699D01*
X5788609Y10165283D01*
X5787898Y10171582D01*
X5785967Y10177068D01*
X5782919Y10181945D01*
X5778804Y10186060D01*
X5773928Y10189108D01*
X5768441Y10191038D01*
X5762142Y10191750D01*
X5683250Y10191750D01*
X5676950Y10191038D01*
X5671464Y10189108D01*
X5666587Y10186060D01*
X5662472Y10181945D01*
X5659424Y10177068D01*
X5657494Y10171582D01*
X5656783Y10165283D01*
X5656783Y10086390D01*
X5657494Y10080091D01*
X5659424Y10074605D01*
X5662472Y10069728D01*
X5666587Y10065613D01*
X5671464Y10062565D01*
X5676950Y10060635D01*
X5683250Y10059924D01*
X5729732Y10059924D01*
X5733643Y10059162D01*
X5736945Y10056977D01*
X5776112Y10017810D01*
X5778296Y10014508D01*
X5779058Y10010597D01*
X5779058Y9855911D01*
X5778296Y9852050D01*
X5776112Y9848748D01*
X5712206Y9784842D01*
X5708650Y9782556D01*
X5704433Y9781895D01*
X5700369Y9783013D01*
X5697067Y9785705D01*
X5695188Y9789464D01*
X5693968Y9794189D01*
X5689904Y9803180D01*
X5684316Y9811410D01*
X5677509Y9818573D01*
X5669534Y9824415D01*
X5660694Y9828885D01*
X5651246Y9831781D01*
X5641390Y9833051D01*
X5631535Y9832644D01*
X5621832Y9830562D01*
X5612638Y9826853D01*
X5604205Y9821672D01*
X5596788Y9815118D01*
X5590590Y9807397D01*
X5585764Y9798812D01*
X5582107Y9788448D01*
X5579973Y9784892D01*
X5576620Y9782454D01*
X5572556Y9781641D01*
X5444998Y9781692D01*
X5441137Y9782454D01*
X5437835Y9784689D01*
X5387492Y9835032D01*
X5383733Y9838436D01*
X5379872Y9841433D01*
X5375757Y9844024D01*
X5371439Y9846310D01*
X5366918Y9848189D01*
X5362244Y9849612D01*
X5357520Y9850678D01*
X5352643Y9851339D01*
X5347563Y9851542D01*
X5097830Y9851542D01*
X5092954Y9851339D01*
X5087874Y9850678D01*
X5083352Y9849662D01*
X5078476Y9848138D01*
X5074158Y9846411D01*
X5069636Y9844024D01*
X5065522Y9841433D01*
X4928260Y9746030D01*
X4924044Y9742779D01*
X4920589Y9739630D01*
X4917135Y9735921D01*
X4914341Y9732213D01*
X4911547Y9727895D01*
X4909413Y9723780D01*
X4907432Y9719106D01*
X4906060Y9714636D01*
X4904943Y9709658D01*
X4904333Y9705035D01*
X4904079Y9699752D01*
X4904079Y9600336D01*
X4904587Y9592970D01*
X4903978Y9588855D01*
X4901844Y9585350D01*
X4898491Y9582962D01*
X4894427Y9582150D01*
X4816246Y9582150D01*
X4809896Y9581438D01*
X4804460Y9579508D01*
X4799533Y9576409D01*
X4795469Y9572345D01*
X4792421Y9567468D01*
X4790744Y9565436D01*
X4788560Y9563912D01*
X4782769Y9560814D01*
X4776520Y9555683D01*
X4716475Y9495637D01*
X4713173Y9493402D01*
X4709261Y9492640D01*
X4346854Y9492640D01*
X4342993Y9493402D01*
X4339691Y9495637D01*
X4186936Y9648393D01*
X4180687Y9653473D01*
X4174032Y9657029D01*
X4166819Y9659264D01*
X4158792Y9660026D01*
X3800754Y9660026D01*
X3796639Y9660890D01*
X3793236Y9663379D01*
X3791102Y9666986D01*
X3790645Y9671202D01*
X3791153Y9676130D01*
X3790391Y9683800D01*
X3788156Y9691217D01*
X3784498Y9698024D01*
X3779621Y9703968D01*
X3773678Y9708845D01*
X3766870Y9712502D01*
X3759454Y9714738D01*
X3751275Y9715550D01*
X3630066Y9715550D01*
X3627018Y9716008D01*
X3623056Y9718192D01*
X3620109Y9721291D01*
X3618687Y9725304D01*
X3619093Y9729571D01*
X3621176Y9733280D01*
X3624630Y9735820D01*
X3628796Y9736734D01*
X3751275Y9736734D01*
X3760266Y9737547D01*
X3815486Y9737598D01*
X3823512Y9738410D01*
X3830726Y9740595D01*
X3837381Y9744151D01*
X3843629Y9749282D01*
X3848303Y9753955D01*
X3851605Y9756140D01*
X3855516Y9756902D01*
X3888638Y9756902D01*
X3894937Y9757613D01*
X3900424Y9759543D01*
X3905300Y9762642D01*
X3909415Y9766706D01*
X3912565Y9771786D01*
X3914851Y9774326D01*
X3917848Y9775952D01*
X3921201Y9776510D01*
X3974033Y9776561D01*
X3982770Y9777780D01*
X3990797Y9780473D01*
X3998214Y9784588D01*
X4005072Y9790277D01*
X4353712Y10138714D01*
X4359046Y10145776D01*
X4362805Y10153345D01*
X4365091Y10161473D01*
X4365955Y10170363D01*
X4365904Y10451846D01*
X4364685Y10460583D01*
X4361992Y10468610D01*
X4357878Y10475976D01*
X4352137Y10482884D01*
X4291279Y10543692D01*
X4284218Y10549026D01*
X4276648Y10552785D01*
X4272076Y10554106D01*
X4268419Y10555986D01*
X4265828Y10559186D01*
X4264710Y10563199D01*
X4265269Y10567263D01*
X4267403Y10570819D01*
X4270806Y10573156D01*
X4274820Y10574020D01*
X5872937Y10574020D01*
X5875883Y10573613D01*
X5879338Y10572546D01*
X5883402Y10572089D01*
X5905906Y10571175D01*
X5927242Y10568584D01*
X5948375Y10564368D01*
X5969050Y10558475D01*
X5989218Y10551007D01*
X6008776Y10541965D01*
X6027521Y10531449D01*
X6045403Y10519460D01*
X6062268Y10506100D01*
X6078067Y10491470D01*
X6092647Y10475671D01*
X6105956Y10458754D01*
X6117844Y10440822D01*
X6128359Y10422026D01*
X6137351Y10402468D01*
X6144768Y10382300D01*
X6150559Y10361574D01*
X6154724Y10340441D01*
X6157214Y10319105D01*
X6158077Y10297312D01*
X6158992Y10291114D01*
X6158992Y8066024D01*
X6158230Y8062112D01*
X6155994Y8058861D01*
X6152743Y8056625D01*
X6148832Y8055864D01*
G37*

%LPC*%
G36*
X4614316Y10284307D02*
G01*
X4625644Y10284307D01*
X4636871Y10285984D01*
X4647692Y10289336D01*
X4657902Y10294264D01*
X4667300Y10300665D01*
X4675581Y10308386D01*
X4682642Y10317226D01*
X4688332Y10327081D01*
X4692497Y10337596D01*
X4694986Y10348671D01*
X4695901Y10360355D01*
X4695901Y10439603D01*
X4694986Y10451287D01*
X4692497Y10462361D01*
X4688332Y10472877D01*
X4682642Y10482732D01*
X4675581Y10491571D01*
X4667300Y10499293D01*
X4657902Y10505694D01*
X4647692Y10510621D01*
X4636871Y10513974D01*
X4625644Y10515650D01*
X4614316Y10515650D01*
X4603089Y10513974D01*
X4592269Y10510621D01*
X4582058Y10505694D01*
X4572660Y10499293D01*
X4564329Y10491571D01*
X4557268Y10482732D01*
X4551629Y10472877D01*
X4547463Y10462361D01*
X4544923Y10451287D01*
X4544060Y10439603D01*
X4544060Y10360355D01*
X4544923Y10348671D01*
X4547463Y10337596D01*
X4551629Y10327081D01*
X4557268Y10317226D01*
X4564329Y10308386D01*
X4572660Y10300665D01*
X4582058Y10294264D01*
X4592269Y10289336D01*
X4603089Y10285984D01*
G37*
G36*
X408990Y8184083D02*
G01*
X422808Y8184997D01*
X436422Y8187690D01*
X449529Y8192160D01*
X461924Y8198307D01*
X473456Y8205978D01*
X483870Y8215122D01*
X493014Y8225536D01*
X500684Y8237016D01*
X506831Y8249462D01*
X511251Y8262569D01*
X513994Y8276183D01*
X514858Y8290001D01*
X513994Y8303818D01*
X511251Y8317382D01*
X506831Y8330488D01*
X500684Y8342934D01*
X493014Y8354466D01*
X483870Y8364880D01*
X473456Y8373973D01*
X461924Y8381695D01*
X449529Y8387791D01*
X436422Y8392261D01*
X422808Y8394954D01*
X408990Y8395868D01*
X395173Y8394954D01*
X381609Y8392261D01*
X368452Y8387791D01*
X356057Y8381695D01*
X344525Y8373973D01*
X334111Y8364880D01*
X324967Y8354466D01*
X317296Y8342934D01*
X311150Y8330488D01*
X306730Y8317382D01*
X304038Y8303818D01*
X303123Y8290001D01*
X304038Y8276183D01*
X306730Y8262569D01*
X311150Y8249462D01*
X317296Y8237016D01*
X324967Y8225536D01*
X334111Y8215122D01*
X344525Y8205978D01*
X356057Y8198307D01*
X368452Y8192160D01*
X381609Y8187690D01*
X395173Y8184997D01*
G37*
G36*
X1170990Y8184083D02*
G01*
X1184808Y8184997D01*
X1198422Y8187690D01*
X1211529Y8192160D01*
X1223924Y8198307D01*
X1235456Y8205978D01*
X1245870Y8215122D01*
X1255014Y8225536D01*
X1262684Y8237016D01*
X1268831Y8249462D01*
X1273251Y8262569D01*
X1275994Y8276183D01*
X1276858Y8290001D01*
X1275994Y8303818D01*
X1273251Y8317382D01*
X1268831Y8330488D01*
X1262684Y8342934D01*
X1255014Y8354466D01*
X1245870Y8364880D01*
X1235456Y8373973D01*
X1223924Y8381695D01*
X1211529Y8387791D01*
X1198422Y8392261D01*
X1184808Y8394954D01*
X1170990Y8395868D01*
X1157173Y8394954D01*
X1143609Y8392261D01*
X1130452Y8387791D01*
X1118057Y8381695D01*
X1106525Y8373973D01*
X1096111Y8364880D01*
X1086967Y8354466D01*
X1079296Y8342934D01*
X1073150Y8330488D01*
X1068730Y8317382D01*
X1066038Y8303818D01*
X1065123Y8290001D01*
X1066038Y8276183D01*
X1068730Y8262569D01*
X1073150Y8249462D01*
X1079296Y8237016D01*
X1086967Y8225536D01*
X1096111Y8215122D01*
X1106525Y8205978D01*
X1118057Y8198307D01*
X1130452Y8192160D01*
X1143609Y8187690D01*
X1157173Y8184997D01*
G37*
G36*
X662990Y8184083D02*
G01*
X676808Y8184997D01*
X690422Y8187690D01*
X703529Y8192160D01*
X715924Y8198307D01*
X727456Y8205978D01*
X737870Y8215122D01*
X747014Y8225536D01*
X754684Y8237016D01*
X760831Y8249462D01*
X765251Y8262569D01*
X767994Y8276183D01*
X768858Y8290001D01*
X767994Y8303818D01*
X765251Y8317382D01*
X760831Y8330488D01*
X754684Y8342934D01*
X747014Y8354466D01*
X737870Y8364880D01*
X727456Y8373973D01*
X715924Y8381695D01*
X703529Y8387791D01*
X690422Y8392261D01*
X676808Y8394954D01*
X662990Y8395868D01*
X649173Y8394954D01*
X635609Y8392261D01*
X622452Y8387791D01*
X610057Y8381695D01*
X598525Y8373973D01*
X588111Y8364880D01*
X578967Y8354466D01*
X571296Y8342934D01*
X565150Y8330488D01*
X560730Y8317382D01*
X558038Y8303818D01*
X557123Y8290001D01*
X558038Y8276183D01*
X560730Y8262569D01*
X565150Y8249462D01*
X571296Y8237016D01*
X578967Y8225536D01*
X588111Y8215122D01*
X598525Y8205978D01*
X610057Y8198307D01*
X622452Y8192160D01*
X635609Y8187690D01*
X649173Y8184997D01*
G37*
G36*
X916990Y8184083D02*
G01*
X930808Y8184997D01*
X944422Y8187690D01*
X957529Y8192160D01*
X969924Y8198307D01*
X981456Y8205978D01*
X991869Y8215122D01*
X1001014Y8225536D01*
X1008684Y8237016D01*
X1014831Y8249462D01*
X1019251Y8262569D01*
X1021994Y8276183D01*
X1022858Y8290001D01*
X1021994Y8303818D01*
X1019251Y8317382D01*
X1014831Y8330488D01*
X1008684Y8342934D01*
X1001014Y8354466D01*
X991869Y8364880D01*
X981456Y8373973D01*
X969924Y8381695D01*
X957529Y8387791D01*
X944422Y8392261D01*
X930808Y8394954D01*
X916990Y8395868D01*
X903173Y8394954D01*
X889609Y8392261D01*
X876452Y8387791D01*
X864057Y8381695D01*
X852525Y8373973D01*
X842111Y8364880D01*
X832967Y8354466D01*
X825296Y8342934D01*
X819150Y8330488D01*
X814730Y8317382D01*
X812038Y8303818D01*
X811123Y8290001D01*
X812038Y8276183D01*
X814730Y8262569D01*
X819150Y8249462D01*
X825296Y8237016D01*
X832967Y8225536D01*
X842111Y8215122D01*
X852525Y8205978D01*
X864057Y8198307D01*
X876452Y8192160D01*
X889609Y8187690D01*
X903173Y8184997D01*
G37*
G36*
X1932990Y8184083D02*
G01*
X1946808Y8184997D01*
X1960422Y8187690D01*
X1973529Y8192160D01*
X1985924Y8198307D01*
X1997456Y8205978D01*
X2007870Y8215122D01*
X2017014Y8225536D01*
X2024684Y8237016D01*
X2030831Y8249462D01*
X2035251Y8262569D01*
X2037994Y8276183D01*
X2038857Y8290001D01*
X2037994Y8303818D01*
X2035251Y8317382D01*
X2030831Y8330488D01*
X2024684Y8342934D01*
X2017014Y8354466D01*
X2007870Y8364880D01*
X1997456Y8373973D01*
X1985924Y8381695D01*
X1973529Y8387791D01*
X1960422Y8392261D01*
X1946808Y8394954D01*
X1932990Y8395868D01*
X1919173Y8394954D01*
X1905609Y8392261D01*
X1892452Y8387791D01*
X1880057Y8381695D01*
X1868525Y8373973D01*
X1858111Y8364880D01*
X1848967Y8354466D01*
X1841296Y8342934D01*
X1835150Y8330488D01*
X1830730Y8317382D01*
X1828038Y8303818D01*
X1827123Y8290001D01*
X1828038Y8276183D01*
X1830730Y8262569D01*
X1835150Y8249462D01*
X1841296Y8237016D01*
X1848967Y8225536D01*
X1858111Y8215122D01*
X1868525Y8205978D01*
X1880057Y8198307D01*
X1892452Y8192160D01*
X1905609Y8187690D01*
X1919173Y8184997D01*
G37*
G36*
X3710990Y8184083D02*
G01*
X3724808Y8184997D01*
X3738422Y8187690D01*
X3751529Y8192160D01*
X3763924Y8198307D01*
X3775456Y8205978D01*
X3785870Y8215122D01*
X3795014Y8225536D01*
X3802684Y8237016D01*
X3808831Y8249462D01*
X3813251Y8262569D01*
X3815994Y8276183D01*
X3816858Y8290001D01*
X3815994Y8303818D01*
X3813251Y8317382D01*
X3808831Y8330488D01*
X3802684Y8342934D01*
X3795014Y8354466D01*
X3785870Y8364880D01*
X3775456Y8373973D01*
X3763924Y8381695D01*
X3751529Y8387791D01*
X3738422Y8392261D01*
X3724808Y8394954D01*
X3710990Y8395868D01*
X3697173Y8394954D01*
X3683609Y8392261D01*
X3670452Y8387791D01*
X3658057Y8381695D01*
X3646525Y8373973D01*
X3636111Y8364880D01*
X3626967Y8354466D01*
X3619296Y8342934D01*
X3613150Y8330488D01*
X3608730Y8317382D01*
X3606037Y8303818D01*
X3605123Y8290001D01*
X3606037Y8276183D01*
X3608730Y8262569D01*
X3613150Y8249462D01*
X3619296Y8237016D01*
X3626967Y8225536D01*
X3636111Y8215122D01*
X3646525Y8205978D01*
X3658057Y8198307D01*
X3670452Y8192160D01*
X3683609Y8187690D01*
X3697173Y8184997D01*
G37*
G36*
X3202990Y8184083D02*
G01*
X3216808Y8184997D01*
X3230422Y8187690D01*
X3243529Y8192160D01*
X3255924Y8198307D01*
X3267456Y8205978D01*
X3277870Y8215122D01*
X3287014Y8225536D01*
X3294684Y8237016D01*
X3300831Y8249462D01*
X3305251Y8262569D01*
X3307994Y8276183D01*
X3308858Y8290001D01*
X3307994Y8303818D01*
X3305251Y8317382D01*
X3300831Y8330488D01*
X3294684Y8342934D01*
X3287014Y8354466D01*
X3277870Y8364880D01*
X3267456Y8373973D01*
X3255924Y8381695D01*
X3243529Y8387791D01*
X3230422Y8392261D01*
X3216808Y8394954D01*
X3202990Y8395868D01*
X3189173Y8394954D01*
X3175609Y8392261D01*
X3162452Y8387791D01*
X3150057Y8381695D01*
X3138525Y8373973D01*
X3128111Y8364880D01*
X3118967Y8354466D01*
X3111296Y8342934D01*
X3105150Y8330488D01*
X3100730Y8317382D01*
X3098038Y8303818D01*
X3097123Y8290001D01*
X3098038Y8276183D01*
X3100730Y8262569D01*
X3105150Y8249462D01*
X3111296Y8237016D01*
X3118967Y8225536D01*
X3128111Y8215122D01*
X3138525Y8205978D01*
X3150057Y8198307D01*
X3162452Y8192160D01*
X3175609Y8187690D01*
X3189173Y8184997D01*
G37*
G36*
X2948990Y8184083D02*
G01*
X2962808Y8184997D01*
X2976422Y8187690D01*
X2989529Y8192160D01*
X3001924Y8198307D01*
X3013456Y8205978D01*
X3023870Y8215122D01*
X3033014Y8225536D01*
X3040684Y8237016D01*
X3046831Y8249462D01*
X3051251Y8262569D01*
X3053994Y8276183D01*
X3054858Y8290001D01*
X3053994Y8303818D01*
X3051251Y8317382D01*
X3046831Y8330488D01*
X3040684Y8342934D01*
X3033014Y8354466D01*
X3023870Y8364880D01*
X3013456Y8373973D01*
X3001924Y8381695D01*
X2989529Y8387791D01*
X2976422Y8392261D01*
X2962808Y8394954D01*
X2948990Y8395868D01*
X2935173Y8394954D01*
X2921609Y8392261D01*
X2908452Y8387791D01*
X2896057Y8381695D01*
X2884525Y8373973D01*
X2874111Y8364880D01*
X2864967Y8354466D01*
X2857296Y8342934D01*
X2851150Y8330488D01*
X2846730Y8317382D01*
X2844038Y8303818D01*
X2843123Y8290001D01*
X2844038Y8276183D01*
X2846730Y8262569D01*
X2851150Y8249462D01*
X2857296Y8237016D01*
X2864967Y8225536D01*
X2874111Y8215122D01*
X2884525Y8205978D01*
X2896057Y8198307D01*
X2908452Y8192160D01*
X2921609Y8187690D01*
X2935173Y8184997D01*
G37*
G36*
X2694990Y8184083D02*
G01*
X2708808Y8184997D01*
X2722422Y8187690D01*
X2735529Y8192160D01*
X2747924Y8198307D01*
X2759456Y8205978D01*
X2769870Y8215122D01*
X2779014Y8225536D01*
X2786684Y8237016D01*
X2792831Y8249462D01*
X2797251Y8262569D01*
X2799994Y8276183D01*
X2800858Y8290001D01*
X2799994Y8303818D01*
X2797251Y8317382D01*
X2792831Y8330488D01*
X2786684Y8342934D01*
X2779014Y8354466D01*
X2769870Y8364880D01*
X2759456Y8373973D01*
X2747924Y8381695D01*
X2735529Y8387791D01*
X2722422Y8392261D01*
X2708808Y8394954D01*
X2694990Y8395868D01*
X2681173Y8394954D01*
X2667609Y8392261D01*
X2654452Y8387791D01*
X2642057Y8381695D01*
X2630525Y8373973D01*
X2620111Y8364880D01*
X2610967Y8354466D01*
X2603296Y8342934D01*
X2597150Y8330488D01*
X2592730Y8317382D01*
X2590038Y8303818D01*
X2589123Y8290001D01*
X2590038Y8276183D01*
X2592730Y8262569D01*
X2597150Y8249462D01*
X2603296Y8237016D01*
X2610967Y8225536D01*
X2620111Y8215122D01*
X2630525Y8205978D01*
X2642057Y8198307D01*
X2654452Y8192160D01*
X2667609Y8187690D01*
X2681173Y8184997D01*
G37*
G36*
X3456990Y8184083D02*
G01*
X3470808Y8184997D01*
X3484422Y8187690D01*
X3497529Y8192160D01*
X3509924Y8198307D01*
X3521456Y8205978D01*
X3531870Y8215122D01*
X3541014Y8225536D01*
X3548684Y8237016D01*
X3554831Y8249462D01*
X3559251Y8262569D01*
X3561994Y8276183D01*
X3562858Y8290001D01*
X3561994Y8303818D01*
X3559251Y8317382D01*
X3554831Y8330488D01*
X3548684Y8342934D01*
X3541014Y8354466D01*
X3531870Y8364880D01*
X3521456Y8373973D01*
X3509924Y8381695D01*
X3497529Y8387791D01*
X3484422Y8392261D01*
X3470808Y8394954D01*
X3456990Y8395868D01*
X3443173Y8394954D01*
X3429609Y8392261D01*
X3416452Y8387791D01*
X3404057Y8381695D01*
X3392525Y8373973D01*
X3382111Y8364880D01*
X3372967Y8354466D01*
X3365296Y8342934D01*
X3359150Y8330488D01*
X3354730Y8317382D01*
X3352037Y8303818D01*
X3351123Y8290001D01*
X3352037Y8276183D01*
X3354730Y8262569D01*
X3359150Y8249462D01*
X3365296Y8237016D01*
X3372967Y8225536D01*
X3382111Y8215122D01*
X3392525Y8205978D01*
X3404057Y8198307D01*
X3416452Y8192160D01*
X3429609Y8187690D01*
X3443173Y8184997D01*
G37*
G36*
X1424990Y8184083D02*
G01*
X1438808Y8184997D01*
X1452422Y8187690D01*
X1465529Y8192160D01*
X1477924Y8198307D01*
X1489456Y8205978D01*
X1499870Y8215122D01*
X1509014Y8225536D01*
X1516684Y8237016D01*
X1522831Y8249462D01*
X1527251Y8262569D01*
X1529994Y8276183D01*
X1530858Y8290001D01*
X1529994Y8303818D01*
X1527251Y8317382D01*
X1522831Y8330488D01*
X1516684Y8342934D01*
X1509014Y8354466D01*
X1499870Y8364880D01*
X1489456Y8373973D01*
X1477924Y8381695D01*
X1465529Y8387791D01*
X1452422Y8392261D01*
X1438808Y8394954D01*
X1424990Y8395868D01*
X1411173Y8394954D01*
X1397609Y8392261D01*
X1384452Y8387791D01*
X1372057Y8381695D01*
X1360525Y8373973D01*
X1350111Y8364880D01*
X1340967Y8354466D01*
X1333296Y8342934D01*
X1327150Y8330488D01*
X1322730Y8317382D01*
X1320038Y8303818D01*
X1319123Y8290001D01*
X1320038Y8276183D01*
X1322730Y8262569D01*
X1327150Y8249462D01*
X1333296Y8237016D01*
X1340967Y8225536D01*
X1350111Y8215122D01*
X1360525Y8205978D01*
X1372057Y8198307D01*
X1384452Y8192160D01*
X1397609Y8187690D01*
X1411173Y8184997D01*
G37*
G36*
X3964990Y8184083D02*
G01*
X3978808Y8184997D01*
X3992422Y8187690D01*
X4005529Y8192160D01*
X4017924Y8198307D01*
X4029456Y8205978D01*
X4039870Y8215122D01*
X4049014Y8225536D01*
X4056684Y8237016D01*
X4062831Y8249462D01*
X4067251Y8262569D01*
X4069994Y8276183D01*
X4070858Y8290001D01*
X4069994Y8303818D01*
X4067251Y8317382D01*
X4062831Y8330488D01*
X4056684Y8342934D01*
X4049014Y8354466D01*
X4039870Y8364880D01*
X4029456Y8373973D01*
X4017924Y8381695D01*
X4005529Y8387791D01*
X3992422Y8392261D01*
X3978808Y8394954D01*
X3964990Y8395868D01*
X3951173Y8394954D01*
X3937609Y8392261D01*
X3924452Y8387791D01*
X3912057Y8381695D01*
X3900525Y8373973D01*
X3890111Y8364880D01*
X3880967Y8354466D01*
X3873296Y8342934D01*
X3867150Y8330488D01*
X3862730Y8317382D01*
X3860037Y8303818D01*
X3859123Y8290001D01*
X3860037Y8276183D01*
X3862730Y8262569D01*
X3867150Y8249462D01*
X3873296Y8237016D01*
X3880967Y8225536D01*
X3890111Y8215122D01*
X3900525Y8205978D01*
X3912057Y8198307D01*
X3924452Y8192160D01*
X3937609Y8187690D01*
X3951173Y8184997D01*
G37*
G36*
X2186990Y8184083D02*
G01*
X2200808Y8184997D01*
X2214422Y8187690D01*
X2227529Y8192160D01*
X2239924Y8198307D01*
X2251456Y8205978D01*
X2261870Y8215122D01*
X2271014Y8225536D01*
X2278684Y8237016D01*
X2284831Y8249462D01*
X2289251Y8262569D01*
X2291994Y8276183D01*
X2292858Y8290001D01*
X2291994Y8303818D01*
X2289251Y8317382D01*
X2284831Y8330488D01*
X2278684Y8342934D01*
X2271014Y8354466D01*
X2261870Y8364880D01*
X2251456Y8373973D01*
X2239924Y8381695D01*
X2227529Y8387791D01*
X2214422Y8392261D01*
X2200808Y8394954D01*
X2186990Y8395868D01*
X2173173Y8394954D01*
X2159609Y8392261D01*
X2146452Y8387791D01*
X2134057Y8381695D01*
X2122525Y8373973D01*
X2112111Y8364880D01*
X2102967Y8354466D01*
X2095296Y8342934D01*
X2089150Y8330488D01*
X2084730Y8317382D01*
X2082038Y8303818D01*
X2081123Y8290001D01*
X2082038Y8276183D01*
X2084730Y8262569D01*
X2089150Y8249462D01*
X2095296Y8237016D01*
X2102967Y8225536D01*
X2112111Y8215122D01*
X2122525Y8205978D01*
X2134057Y8198307D01*
X2146452Y8192160D01*
X2159609Y8187690D01*
X2173173Y8184997D01*
G37*
G36*
X5653227Y8372805D02*
G01*
X5708650Y8372805D01*
X5715000Y8373516D01*
X5720435Y8375446D01*
X5725363Y8378545D01*
X5729427Y8382609D01*
X5732526Y8387537D01*
X5734456Y8392972D01*
X5735167Y8399322D01*
X5735167Y8452154D01*
X5734456Y8458504D01*
X5732526Y8463940D01*
X5729427Y8468868D01*
X5725363Y8472932D01*
X5721756Y8475878D01*
X5720130Y8478824D01*
X5719572Y8482177D01*
X5719572Y8521903D01*
X5720435Y8525967D01*
X5722823Y8529370D01*
X5726379Y8531504D01*
X5729071Y8532469D01*
X5733948Y8535517D01*
X5738063Y8539632D01*
X5741162Y8544509D01*
X5743041Y8549995D01*
X5743752Y8556294D01*
X5743752Y8635187D01*
X5743041Y8641486D01*
X5741162Y8646972D01*
X5738063Y8651849D01*
X5733948Y8655964D01*
X5729071Y8659012D01*
X5723585Y8660942D01*
X5717286Y8661654D01*
X5638444Y8661654D01*
X5632094Y8660942D01*
X5626658Y8659012D01*
X5621731Y8655964D01*
X5617667Y8651849D01*
X5614568Y8646972D01*
X5612638Y8641486D01*
X5611926Y8635187D01*
X5611926Y8556294D01*
X5612638Y8549995D01*
X5614568Y8544509D01*
X5617667Y8539632D01*
X5621731Y8535517D01*
X5626658Y8532469D01*
X5632094Y8530539D01*
X5636869Y8529320D01*
X5639765Y8527084D01*
X5641695Y8523935D01*
X5642356Y8520328D01*
X5642356Y8482177D01*
X5641797Y8478824D01*
X5640120Y8475878D01*
X5636564Y8472932D01*
X5632450Y8468868D01*
X5629402Y8463940D01*
X5627471Y8458504D01*
X5626760Y8452154D01*
X5626760Y8399322D01*
X5627471Y8392972D01*
X5629402Y8387537D01*
X5632450Y8382609D01*
X5636564Y8378545D01*
X5641441Y8375446D01*
X5646928Y8373516D01*
G37*
G36*
X16611Y10259009D02*
G01*
X30124Y10259466D01*
X43434Y10261701D01*
X56286Y10265664D01*
X68529Y10271353D01*
X79908Y10278618D01*
X90220Y10287355D01*
X99263Y10297363D01*
X106933Y10308488D01*
X113030Y10320528D01*
X117449Y10333278D01*
X120142Y10346486D01*
X121005Y10359948D01*
X120142Y10373461D01*
X117449Y10386669D01*
X113030Y10399420D01*
X106933Y10411460D01*
X99263Y10422585D01*
X90220Y10432592D01*
X79908Y10441330D01*
X68529Y10448594D01*
X56286Y10454284D01*
X43434Y10458246D01*
X30124Y10460482D01*
X16611Y10460939D01*
X3200Y10459618D01*
X-9956Y10456468D01*
X-22555Y10451642D01*
X-34391Y10445140D01*
X-45262Y10437114D01*
X-54965Y10427766D01*
X-63296Y10417149D01*
X-70205Y10405567D01*
X-75438Y10393121D01*
X-79044Y10380116D01*
X-80822Y10366705D01*
X-80822Y10353243D01*
X-79044Y10339832D01*
X-75438Y10326827D01*
X-70205Y10314381D01*
X-63296Y10302798D01*
X-54965Y10292181D01*
X-45262Y10282834D01*
X-34391Y10274808D01*
X-22555Y10268305D01*
X-9956Y10263479D01*
X3200Y10260330D01*
G37*
G36*
X5939942Y10254335D02*
G01*
X5953404Y10254792D01*
X5966714Y10257028D01*
X5979617Y10260990D01*
X5991860Y10266680D01*
X6003239Y10273944D01*
X6013551Y10282682D01*
X6022594Y10292689D01*
X6030214Y10303814D01*
X6036310Y10315854D01*
X6040729Y10328605D01*
X6043422Y10341813D01*
X6044336Y10355275D01*
X6043422Y10368788D01*
X6040729Y10381996D01*
X6036310Y10394746D01*
X6030214Y10406786D01*
X6022594Y10417911D01*
X6013551Y10427919D01*
X6003239Y10436656D01*
X5991860Y10443921D01*
X5979617Y10449610D01*
X5966714Y10453573D01*
X5953404Y10455808D01*
X5939942Y10456265D01*
X5926480Y10454944D01*
X5913374Y10451795D01*
X5900775Y10446969D01*
X5888939Y10440466D01*
X5878068Y10432440D01*
X5868365Y10423093D01*
X5859983Y10412476D01*
X5853125Y10400893D01*
X5847842Y10388447D01*
X5844286Y10375442D01*
X5842508Y10362031D01*
X5842508Y10348569D01*
X5844286Y10335158D01*
X5847842Y10322153D01*
X5853125Y10309707D01*
X5859983Y10298125D01*
X5868365Y10287508D01*
X5878068Y10278160D01*
X5888939Y10270134D01*
X5900775Y10263632D01*
X5913374Y10258806D01*
X5926480Y10255656D01*
G37*
G36*
X1678990Y8184083D02*
G01*
X1692808Y8184997D01*
X1706422Y8187690D01*
X1719529Y8192160D01*
X1731924Y8198307D01*
X1743456Y8205978D01*
X1753870Y8215122D01*
X1763014Y8225536D01*
X1770684Y8237016D01*
X1776831Y8249462D01*
X1781251Y8262569D01*
X1783994Y8276183D01*
X1784857Y8290001D01*
X1783994Y8303818D01*
X1781251Y8317382D01*
X1776831Y8330488D01*
X1770684Y8342934D01*
X1763014Y8354466D01*
X1753870Y8364880D01*
X1743456Y8373973D01*
X1731924Y8381695D01*
X1719529Y8387791D01*
X1706422Y8392261D01*
X1692808Y8394954D01*
X1678990Y8395868D01*
X1665173Y8394954D01*
X1651609Y8392261D01*
X1638452Y8387791D01*
X1626057Y8381695D01*
X1614525Y8373973D01*
X1604111Y8364880D01*
X1594967Y8354466D01*
X1587296Y8342934D01*
X1581150Y8330488D01*
X1576730Y8317382D01*
X1574038Y8303818D01*
X1573123Y8290001D01*
X1574038Y8276183D01*
X1576730Y8262569D01*
X1581150Y8249462D01*
X1587296Y8237016D01*
X1594967Y8225536D01*
X1604111Y8215122D01*
X1614525Y8205978D01*
X1626057Y8198307D01*
X1638452Y8192160D01*
X1651609Y8187690D01*
X1665173Y8184997D01*
G37*
G36*
X5513070Y10059924D02*
G01*
X5591962Y10059924D01*
X5598261Y10060635D01*
X5603748Y10062565D01*
X5608624Y10065613D01*
X5612739Y10069728D01*
X5615787Y10074605D01*
X5617718Y10080091D01*
X5618429Y10086390D01*
X5618429Y10165283D01*
X5617718Y10171582D01*
X5615787Y10177068D01*
X5612739Y10181945D01*
X5608624Y10186060D01*
X5603748Y10189108D01*
X5598261Y10191038D01*
X5591962Y10191750D01*
X5513070Y10191750D01*
X5506770Y10191038D01*
X5501284Y10189108D01*
X5496407Y10186060D01*
X5492292Y10181945D01*
X5489244Y10177068D01*
X5487162Y10171125D01*
X5485028Y10167569D01*
X5481624Y10165181D01*
X5477560Y10164318D01*
X5437936Y10164318D01*
X5434634Y10164876D01*
X5431688Y10166502D01*
X5425287Y10173055D01*
X5420410Y10176103D01*
X5414924Y10178034D01*
X5408625Y10178745D01*
X5353202Y10178745D01*
X5346852Y10178034D01*
X5341416Y10176103D01*
X5336540Y10173055D01*
X5332425Y10168940D01*
X5329326Y10164064D01*
X5327446Y10158577D01*
X5326735Y10152278D01*
X5326735Y10099395D01*
X5327446Y10093096D01*
X5329326Y10087610D01*
X5332425Y10082733D01*
X5336540Y10078618D01*
X5341416Y10075570D01*
X5346852Y10073640D01*
X5353202Y10072928D01*
X5408625Y10072928D01*
X5414924Y10073640D01*
X5420410Y10075570D01*
X5425287Y10078618D01*
X5431688Y10085120D01*
X5434584Y10086594D01*
X5437784Y10087102D01*
X5477662Y10087102D01*
X5481726Y10086289D01*
X5485079Y10083850D01*
X5487263Y10080294D01*
X5489244Y10074605D01*
X5492292Y10069728D01*
X5496407Y10065613D01*
X5501284Y10062565D01*
X5506770Y10060635D01*
G37*
G36*
X2440990Y8184083D02*
G01*
X2454808Y8184997D01*
X2468422Y8187690D01*
X2481529Y8192160D01*
X2493924Y8198307D01*
X2505456Y8205978D01*
X2515870Y8215122D01*
X2525014Y8225536D01*
X2532684Y8237016D01*
X2538831Y8249462D01*
X2543251Y8262569D01*
X2545994Y8276183D01*
X2546858Y8290001D01*
X2545994Y8303818D01*
X2543251Y8317382D01*
X2538831Y8330488D01*
X2532684Y8342934D01*
X2525014Y8354466D01*
X2515870Y8364880D01*
X2505456Y8373973D01*
X2493924Y8381695D01*
X2481529Y8387791D01*
X2468422Y8392261D01*
X2454808Y8394954D01*
X2440990Y8395868D01*
X2427173Y8394954D01*
X2413609Y8392261D01*
X2400452Y8387791D01*
X2388057Y8381695D01*
X2376525Y8373973D01*
X2366111Y8364880D01*
X2356967Y8354466D01*
X2349296Y8342934D01*
X2343150Y8330488D01*
X2338730Y8317382D01*
X2336038Y8303818D01*
X2335123Y8290001D01*
X2336038Y8276183D01*
X2338730Y8262569D01*
X2343150Y8249462D01*
X2349296Y8237016D01*
X2356967Y8225536D01*
X2366111Y8215122D01*
X2376525Y8205978D01*
X2388057Y8198307D01*
X2400452Y8192160D01*
X2413609Y8187690D01*
X2427173Y8184997D01*
G37*

%LPD*%
G36*
X5379974Y9929977D02*
G01*
X5339994Y9895738D01*
X5430012Y9805720D01*
X5531459Y9805720D01*
X5589981Y9864293D01*
X5589981Y9879990D01*
X5539994Y9929977D01*
G37*
G36*
X5369966Y10019995D02*
G01*
X5069992Y9999980D01*
X5069992Y9919970D01*
X5100015Y9889998D01*
X5314238Y9889998D01*
X5319979Y9895738D01*
X5335727Y9895738D01*
X5369966Y9929977D01*
X5369966Y9989972D01*
X5350002Y10009987D01*
X5360009Y10009987D01*
G37*
G36*
X5531459Y9165742D02*
G01*
X5360009Y9089999D01*
X5360009Y8729980D01*
X5350002Y8719972D01*
X5579973Y8719972D01*
X5589981Y8709964D01*
X5589981Y9107170D01*
G37*
D10*
X5677855Y8595738D02*
G01*
X5680956Y8592637D01*
X5680956Y8425726D01*
X5722764Y10125727D02*
G01*
X5817671Y10030813D01*
X5817671Y9835723D01*
X5707677Y9725728D01*
X5531426Y9725728D01*
X5552584Y10125727D02*
G01*
X5380954Y10125727D01*
D11*
X5067678Y9465724D02*
G01*
X5099664Y9433740D01*
X5145681Y9433740D01*
X5067678Y9405734D02*
G01*
X5095689Y9433740D01*
X5145681Y9433740D01*
X5217678Y9465724D02*
G01*
X5185686Y9433740D01*
X5145681Y9433740D01*
X5217678Y9405734D02*
G01*
X5189661Y9433740D01*
X5145681Y9433740D01*
X5440245Y9560740D02*
G01*
X5408246Y9528741D01*
X5145681Y9528741D01*
X5531426Y9410720D02*
G01*
X5322671Y9410720D01*
X5247673Y9335724D01*
X5244660Y9338749D01*
X5145681Y9338749D01*
X5531426Y9560740D02*
G01*
X5440245Y9560740D01*
X5415099Y9535848D01*
X5415099Y9485805D01*
X5440245Y9460913D01*
X5531426Y9460913D01*
X5531434Y9410832D02*
G01*
X5622615Y9410832D01*
X5647761Y9435724D01*
X5647761Y9485754D01*
X5622615Y9510646D01*
X5531434Y9510646D01*
D10*
X5067678Y9405721D02*
G01*
X5067678Y9465724D01*
X5067678Y9461731D01*
X5095671Y9433740D01*
X5145681Y9433740D01*
X5531434Y9660740D02*
G01*
X5262674Y9660740D01*
X5227675Y9695738D01*
X5227675Y9895738D02*
G01*
X5387670Y9895738D01*
X5437677Y9845733D01*
X5531431Y9165722D02*
G01*
X5505734Y9165722D01*
X5409996Y9069984D01*
X5531434Y9805723D02*
G01*
X5477687Y9805723D01*
X5437677Y9845733D01*
X4482157Y8580246D02*
G01*
X4483684Y8649848D01*
X4795006Y8603340D02*
G01*
X4768032Y8630315D01*
X4768032Y8645954D01*
X4795006Y8603340D02*
G01*
X4827673Y8636007D01*
X4827673Y8645730D01*
X4927673Y8580234D02*
G01*
X4927673Y8651722D01*
X5594350Y8425687D02*
G01*
X5531865Y8427974D01*
D12*
X3140311Y9926114D02*
G01*
X3138203Y9924000D01*
X3138203Y9804194D01*
X3090194Y9760204D02*
G01*
X3090194Y9926015D01*
X3090293Y9926114D01*
X3340211Y9798202D02*
G01*
X3340211Y9926010D01*
X3340310Y9926114D01*
X3238202Y9798202D02*
G01*
X3238202Y9924000D01*
X3240311Y9926114D01*
X3289985Y9759975D02*
G01*
X3289985Y9925860D01*
X3290194Y9926065D01*
X3390292Y9926116D02*
G01*
X3389985Y9925809D01*
X3389985Y9749967D01*
X3440310Y9926114D02*
G01*
X3440211Y9926010D01*
X3440211Y9798202D01*
X3490292Y9926116D02*
G01*
X3489985Y9925809D01*
X3489985Y9759975D01*
X3540310Y9926116D02*
G01*
X3539997Y9925804D01*
X3539997Y9799980D01*
X3690244Y9676129D02*
G01*
X3688085Y9673970D01*
X3597986Y9673970D01*
D10*
X4351487Y9224210D02*
G01*
X4458185Y9224210D01*
X3943103Y9224210D02*
G01*
X3941193Y9226120D01*
X3690292Y9226120D01*
X4113275Y9224210D02*
G01*
X4264919Y9224210D01*
X3862202Y9713315D02*
G01*
X3957302Y9713315D01*
X3958183Y9714202D01*
X3862202Y9713315D02*
G01*
X3849403Y9726114D01*
X3690292Y9726114D01*
X2956793Y10098024D02*
G01*
X2990298Y10064518D01*
X2990298Y9926114D01*
X3078200Y10154206D02*
G01*
X3040311Y10116317D01*
X3040311Y9926114D01*
X2714203Y10042220D02*
G01*
X2747106Y10009317D01*
X2747106Y9986545D01*
X2778206Y10044216D02*
G01*
X2747106Y10013116D01*
X2747106Y9986545D01*
X2703692Y8934206D02*
G01*
X2552265Y8933548D01*
X2412263Y8933548D02*
G01*
X2386777Y8959042D01*
X2386777Y9073553D01*
X2386777Y9073553D02*
G01*
X2386777Y9195953D01*
X2338202Y9774191D02*
G01*
X2468209Y9774191D01*
X2566273Y9676127D01*
X2840311Y9676127D01*
X2238202Y9654207D02*
G01*
X2338202Y9654207D01*
X2840311Y9426120D02*
G01*
X2666286Y9426120D01*
X2628198Y9464202D01*
X4865672Y9338744D02*
G01*
X4804171Y9338744D01*
X4729474Y9413440D01*
X4627874Y9413440D01*
X4309856Y9413440D01*
X4142473Y9580824D01*
X3841269Y9580824D01*
X3756487Y9580824D01*
X3751793Y9576130D01*
X3690294Y9576130D01*
X5227673Y9895740D02*
G01*
X5294348Y9962415D01*
X5294348Y10125839D01*
D13*
X4927673Y8471230D02*
G01*
X4907346Y8471230D01*
X4905263Y8473312D01*
X4795006Y8473312D01*
X4626427Y8473312D02*
G01*
X4482157Y8471032D01*
X3881983Y8672499D02*
G01*
X3671973Y8672499D01*
X3644491Y8699982D01*
X4482157Y8471128D02*
G01*
X4238848Y8471128D01*
X4037477Y8672499D01*
X3881983Y8672499D01*
X5531434Y9725789D02*
G01*
X5417642Y9725789D01*
X5347792Y9795639D01*
X5097599Y9795639D01*
X4959990Y9699980D01*
X4959990Y9599980D01*
X4959990Y9599980D02*
G01*
X4989990Y9569980D01*
X4989990Y9459981D01*
X4963749Y9433740D01*
X4865672Y9433740D01*
D10*
X3196617Y10098024D02*
G01*
X3190293Y10091699D01*
X3190293Y9926114D01*
X4865672Y9528736D02*
G01*
X4804171Y9528736D01*
X4729474Y9454040D01*
X4627874Y9454040D01*
X4326674Y9454040D01*
X4159288Y9621423D01*
X3858087Y9621423D01*
X3756487Y9621423D01*
X3751793Y9626117D01*
X3690294Y9626117D01*
X3283183Y10098024D02*
G01*
X3907998Y10098024D01*
X4209958Y10399984D01*
D13*
X5531358Y9245854D02*
G01*
X5069989Y9249981D01*
X5069989Y9249981D01*
X5027675Y9275826D01*
X4961636Y9345676D01*
X4959604Y9433813D01*
X4865624Y9433813D01*
D14*
X4927600Y8471154D02*
G01*
X4989990Y8469983D01*
X5269989Y8749982D01*
X5267706Y9139174D01*
X5349989Y9219981D01*
D10*
X3881983Y8672499D02*
G01*
X3671973Y8672499D01*
X3644491Y8699982D01*
D13*
X2703690Y8934206D02*
G01*
X2699994Y8930510D01*
X2699994Y8769982D01*
X2769994Y8699982D01*
X3644491Y8699982D01*
D15*
X3644493Y8699982D02*
G01*
X3540310Y8804165D01*
X3540310Y9076133D01*
D10*
X2386777Y9195953D02*
G01*
X2386777Y9232780D01*
X2530121Y9376133D01*
X2840311Y9376133D01*
X3490213Y9076181D02*
G01*
X3489959Y8960104D01*
X3439922Y8910065D01*
X3409950Y8910065D01*
D13*
X2309875Y10249915D02*
G01*
X2609994Y9949797D01*
X2609994Y9819980D01*
X2653842Y9776129D01*
X2747822Y9776129D01*
D15*
X2840309Y9776129D02*
G01*
X2840309Y9776129D01*
X2763994Y9775979D01*
X2747109Y9792865D01*
X2747109Y9877529D01*
D13*
X4010152Y10400029D02*
G01*
X3860038Y10249915D01*
X3029965Y10249915D01*
X2956813Y10176763D01*
X2956813Y10098024D01*
D15*
X5487664Y8835720D02*
G01*
X5409996Y8913388D01*
X5409996Y9069984D01*
D10*
X5531434Y9360738D02*
G01*
X5632668Y9360738D01*
X5817671Y9175732D01*
X5817671Y8965725D01*
X5687664Y8835722D01*
X2338324Y9534144D02*
G01*
X2478277Y9534144D01*
X2503931Y9560052D01*
X2679954Y9560052D01*
X2721993Y9623981D01*
X2840227Y9626092D01*
D13*
X3029965Y10249915D02*
G01*
X2309875Y10249915D01*
X2039874Y9979913D01*
X2039874Y8809989D01*
X2150109Y8700008D01*
X2769870Y8700008D01*
D14*
X5507682Y8595743D02*
G01*
X5355750Y8595743D01*
X5039989Y8279983D01*
X4819837Y8279983D01*
X4626505Y8473315D01*
D13*
X2039874Y9340890D02*
G01*
X530908Y9340890D01*
X149999Y8959982D01*
X154993Y8954988D01*
X154993Y8289983D01*
D15*
X3862324Y9822434D02*
G01*
X3972306Y9822434D01*
X4320031Y10169905D01*
X4320031Y10450068D01*
X4260088Y10510012D01*
X4089908Y10510012D01*
X4010152Y10430002D01*
X4010152Y10400029D01*
D10*
X3862324Y9822434D02*
G01*
X3816095Y9776205D01*
X3690289Y9776129D01*
D16*
X2901805Y9776129D02*
G01*
X2778805Y9776129D01*
X2901805Y9726117D02*
G01*
X2778805Y9726117D01*
X2901805Y9676129D02*
G01*
X2778805Y9676129D01*
X2901805Y9626117D02*
G01*
X2778805Y9626117D01*
X2901805Y9576130D02*
G01*
X2778805Y9576130D01*
X2901805Y9526117D02*
G01*
X2778805Y9526117D01*
X2901805Y9476130D02*
G01*
X2778805Y9476130D01*
X2901805Y9426117D02*
G01*
X2778805Y9426117D01*
X2901805Y9376130D02*
G01*
X2778805Y9376130D01*
X2901805Y9326118D02*
G01*
X2778805Y9326118D01*
X2901805Y9276130D02*
G01*
X2778805Y9276130D01*
X2901805Y9226118D02*
G01*
X2778805Y9226118D01*
X2990291Y9137632D02*
G01*
X2990291Y9014630D01*
X3040303Y9137632D02*
G01*
X3040303Y9014630D01*
X3090290Y9137632D02*
G01*
X3090290Y9014630D01*
X3140303Y9137632D02*
G01*
X3140303Y9014630D01*
X3190290Y9137632D02*
G01*
X3190290Y9014630D01*
X3240303Y9137632D02*
G01*
X3240303Y9014630D01*
X3290290Y9137632D02*
G01*
X3290290Y9014630D01*
X3340303Y9137632D02*
G01*
X3340303Y9014630D01*
X3390290Y9137632D02*
G01*
X3390290Y9014630D01*
X3440302Y9137632D02*
G01*
X3440302Y9014630D01*
X3490290Y9137632D02*
G01*
X3490290Y9014630D01*
X3540302Y9137632D02*
G01*
X3540302Y9014630D01*
X3751790Y9226118D02*
G01*
X3628791Y9226118D01*
X3751790Y9276130D02*
G01*
X3628791Y9276130D01*
X3751790Y9326118D02*
G01*
X3628791Y9326118D01*
X3751790Y9376130D02*
G01*
X3628791Y9376130D01*
X3751790Y9426117D02*
G01*
X3628791Y9426117D01*
X3751790Y9476130D02*
G01*
X3628791Y9476130D01*
X3751790Y9526117D02*
G01*
X3628791Y9526117D01*
X3751790Y9576130D02*
G01*
X3628791Y9576130D01*
X3751790Y9626117D02*
G01*
X3628791Y9626117D01*
X3751790Y9676129D02*
G01*
X3628791Y9676129D01*
X3751790Y9726117D02*
G01*
X3628791Y9726117D01*
X3751790Y9776129D02*
G01*
X3628791Y9776129D01*
X3540302Y9987617D02*
G01*
X3540302Y9864615D01*
X3490290Y9987617D02*
G01*
X3490290Y9864615D01*
X3440302Y9987617D02*
G01*
X3440302Y9864615D01*
X3390290Y9987617D02*
G01*
X3390290Y9864615D01*
X3340303Y9987617D02*
G01*
X3340303Y9864615D01*
X3290290Y9987617D02*
G01*
X3290290Y9864615D01*
X3240303Y9987617D02*
G01*
X3240303Y9864615D01*
X3190290Y9987617D02*
G01*
X3190290Y9864615D01*
X3140303Y9987617D02*
G01*
X3140303Y9864615D01*
X3090290Y9987617D02*
G01*
X3090290Y9864615D01*
X3040303Y9987617D02*
G01*
X3040303Y9864615D01*
X2990291Y9987617D02*
G01*
X2990291Y9864615D01*
D17*
G01*
X5552516Y10125837D03*
G01*
X5722696Y10125837D03*
G36*
X5352630Y10098839D02*
G01*
X5352630Y10152839D01*
X5409194Y10152839D01*
X5409194Y10098839D01*
G37*
G36*
X5322628Y10098839D02*
G01*
X5322628Y10152839D01*
X5266065Y10152839D01*
X5266065Y10098839D01*
G37*
D18*
G01*
X2338197Y9774199D03*
G01*
X2338197Y9654209D03*
G01*
X2338197Y9534220D03*
D17*
G01*
X5677865Y8595740D03*
G01*
X5507685Y8595740D03*
G36*
X5652676Y8398730D02*
G01*
X5652676Y8452731D01*
X5709239Y8452731D01*
X5709239Y8398730D01*
G37*
G36*
X5622673Y8398730D02*
G01*
X5622673Y8452731D01*
X5566110Y8452731D01*
X5566110Y8398730D01*
G37*
G36*
X3908991Y8632985D02*
G01*
X3854991Y8632985D01*
X3854991Y8711994D01*
X3908991Y8711994D01*
G37*
D19*
G01*
X3881983Y8563483D03*
G36*
X2720108Y9917036D02*
G01*
X2774109Y9917036D01*
X2774109Y9838027D01*
X2720108Y9838027D01*
G37*
G01*
X2747111Y9986543D03*
G36*
X3889202Y9782825D02*
G01*
X3835201Y9782825D01*
X3835201Y9861834D01*
X3889202Y9861834D01*
G37*
G01*
X3862197Y9713315D03*
G36*
X2996300Y10125024D02*
G01*
X2996300Y10071023D01*
X2917291Y10071023D01*
X2917291Y10125024D01*
G37*
G36*
X3026303Y10125024D02*
G01*
X3026303Y10071023D01*
X3105312Y10071023D01*
X3105312Y10125024D01*
G37*
G36*
X3776992Y8634984D02*
G01*
X3722992Y8634984D01*
X3722992Y8713993D01*
X3776992Y8713993D01*
G37*
G01*
X3750005Y8565464D03*
G36*
X2347267Y9168950D02*
G01*
X2347267Y9222950D01*
X2426276Y9222950D01*
X2426276Y9168950D01*
G37*
G36*
X2317264Y9168950D02*
G01*
X2317264Y9222950D01*
X2238255Y9222950D01*
X2238255Y9168950D01*
G37*
G36*
X2347267Y9046550D02*
G01*
X2347267Y9100550D01*
X2426276Y9100550D01*
X2426276Y9046550D01*
G37*
G36*
X2317264Y9046550D02*
G01*
X2317264Y9100550D01*
X2238255Y9100550D01*
X2238255Y9046550D01*
G37*
G36*
X2743197Y8961206D02*
G01*
X2743197Y8907205D01*
X2664188Y8907205D01*
X2664188Y8961206D01*
G37*
G36*
X2773199Y8961206D02*
G01*
X2773199Y8907205D01*
X2852209Y8907205D01*
X2852209Y8961206D01*
G37*
G36*
X4900675Y8510729D02*
G01*
X4954676Y8510729D01*
X4954676Y8431720D01*
X4900675Y8431720D01*
G37*
G01*
X4927676Y8580246D03*
G36*
X4455157Y8510638D02*
G01*
X4509157Y8510638D01*
X4509157Y8431629D01*
X4455157Y8431629D01*
G37*
G01*
X4482160Y8580145D03*
G36*
X5095679Y9556234D02*
G01*
X5195679Y9556234D01*
X5195679Y9501233D01*
X5095679Y9501233D01*
G37*
G36*
X5095679Y9461238D02*
G01*
X5195679Y9461238D01*
X5195679Y9406237D01*
X5095679Y9406237D01*
G37*
G36*
X5095679Y9366242D02*
G01*
X5195679Y9366242D01*
X5195679Y9311241D01*
X5095679Y9311241D01*
G37*
G36*
X4815669Y9366242D02*
G01*
X4915669Y9366242D01*
X4915669Y9311241D01*
X4815669Y9311241D01*
G37*
G36*
X4815669Y9461238D02*
G01*
X4915669Y9461238D01*
X4915669Y9406237D01*
X4815669Y9406237D01*
G37*
G36*
X4815669Y9556234D02*
G01*
X4915669Y9556234D01*
X4915669Y9501233D01*
X4815669Y9501233D01*
G37*
D17*
G01*
X4113275Y9224213D03*
G01*
X3943095Y9224213D03*
G36*
X3254903Y10071023D02*
G01*
X3254903Y10125024D01*
X3311466Y10125024D01*
X3311466Y10071023D01*
G37*
G36*
X3224900Y10071023D02*
G01*
X3224900Y10125024D01*
X3168337Y10125024D01*
X3168337Y10071023D01*
G37*
G36*
X4293194Y9251205D02*
G01*
X4293194Y9197205D01*
X4236631Y9197205D01*
X4236631Y9251205D01*
G37*
G36*
X4323196Y9251205D02*
G01*
X4323196Y9197205D01*
X4379760Y9197205D01*
X4379760Y9251205D01*
G37*
D20*
G01*
X2412263Y8933561D03*
G01*
X2552268Y8933561D03*
D21*
G01*
X4795011Y8473312D03*
G01*
X4795011Y8538337D03*
G01*
X4795011Y8603335D03*
G01*
X4626508Y8603335D03*
G01*
X4626508Y8473312D03*
D22*
G01*
X5227675Y9695738D03*
G01*
X5227675Y9895738D03*
G36*
X5637674Y8913230D02*
G01*
X5737674Y8913230D01*
X5737674Y8758229D01*
X5637674Y8758229D01*
G37*
G36*
X5437675Y8913230D02*
G01*
X5537674Y8913230D01*
X5537674Y8758229D01*
X5437675Y8758229D01*
G37*
D23*
G01*
X5531434Y9165717D03*
G01*
X5531434Y9245727D03*
G01*
X5531434Y9805720D03*
G01*
X5531434Y9725710D03*
D24*
G01*
X5531434Y9660712D03*
G01*
X5531434Y9610725D03*
G01*
X5531434Y9560712D03*
G01*
X5531434Y9510725D03*
G01*
X5531434Y9460712D03*
G01*
X5531434Y9410725D03*
G01*
X5531434Y9360712D03*
G01*
X5531434Y9310725D03*
G36*
X74996Y8369983D02*
G01*
X234995Y8369983D01*
X234995Y8209983D01*
X74996Y8209983D01*
G37*
D25*
G01*
X408990Y8289975D03*
G01*
X662990Y8289975D03*
G01*
X916990Y8289975D03*
G01*
X1170990Y8289975D03*
G01*
X1424990Y8289975D03*
G01*
X1678990Y8289975D03*
G01*
X1932990Y8289975D03*
G01*
X2186990Y8289975D03*
G01*
X2440990Y8289975D03*
G01*
X2694990Y8289975D03*
G01*
X2948990Y8289975D03*
G01*
X3202990Y8289975D03*
G01*
X3456990Y8289975D03*
G01*
X3710990Y8289975D03*
G01*
X3964990Y8289975D03*
D14*
G01*
X4458182Y9224213D03*
G01*
X3958183Y9714204D03*
G01*
X5409996Y9069984D03*
G01*
X5437682Y9845725D03*
D26*
G01*
X2714218Y10042220D03*
G01*
X2778201Y10044201D03*
G01*
X3078200Y10154208D03*
G01*
X4927676Y8651722D03*
G01*
X4827676Y8645728D03*
G01*
X4483684Y8649741D03*
G01*
X4768037Y8645956D03*
G01*
X5067681Y9405721D03*
G01*
X5067681Y9465716D03*
G01*
X5217668Y9405721D03*
G01*
X5217668Y9465716D03*
D27*
G01*
X3597986Y9673970D03*
G01*
X3539997Y9799980D03*
G01*
X3489985Y9759975D03*
G01*
X3440201Y9798202D03*
G01*
X3389985Y9749967D03*
G01*
X3340201Y9798202D03*
G01*
X3289985Y9759975D03*
G01*
X3238195Y9798202D03*
G01*
X3138195Y9804196D03*
G01*
X3090189Y9760204D03*
D28*
G01*
X5531993Y8427974D03*
D26*
G01*
X2238197Y9654209D03*
G01*
X2208199Y9194215D03*
G01*
X2208199Y9074200D03*
G01*
X2628188Y9464192D03*
G01*
X3881983Y8487994D03*
G01*
X3750005Y8495969D03*
G01*
X3410000Y8909989D03*
D28*
G01*
X2177084Y9604705D03*
G01*
X2685084Y10112705D03*
G01*
X2685084Y9096705D03*
G01*
X3701084Y9096705D03*
G01*
X4159986Y9039987D03*
G01*
X4717084Y9096705D03*
G01*
X-112801Y9984714D03*
G01*
X-112801Y9476714D03*
G01*
X-112801Y8968714D03*
G01*
X-105994Y8489975D03*
G01*
X395198Y10492714D03*
G01*
X395198Y9984714D03*
G01*
X395198Y9476714D03*
G01*
X395198Y8968714D03*
G01*
X402005Y8489975D03*
G01*
X903198Y10492714D03*
G01*
X903198Y9984714D03*
G01*
X903198Y9476714D03*
G01*
X903198Y8968714D03*
G01*
X910005Y8489975D03*
G01*
X1411198Y10492714D03*
G01*
X1411198Y9984714D03*
G01*
X1411198Y9476714D03*
G01*
X1411198Y8968714D03*
G01*
X1418005Y8489975D03*
G01*
X1919198Y10492714D03*
G01*
X1919198Y9984714D03*
G01*
X1919198Y9476714D03*
G01*
X1919198Y8968714D03*
G01*
X1926005Y8489975D03*
G01*
X2427198Y10492714D03*
G01*
X2935198Y10492714D03*
G01*
X2942005Y8489975D03*
G01*
X3443198Y10492714D03*
G01*
X3450005Y8489975D03*
G01*
X3951198Y9984714D03*
G01*
X4459198Y9984714D03*
G01*
X4967198Y10492714D03*
G01*
X4967198Y9984714D03*
G01*
X5475198Y10492714D03*
G01*
X5983198Y9476714D03*
G01*
X5983198Y8460714D03*
D14*
X4419841Y10399979D02*
G01*
X4399851Y10399979D01*
X4219943Y10399979D02*
G01*
X4199953Y10399979D01*
X4020096Y10399979D02*
G01*
X4000106Y10399979D01*
X3800043Y10359979D02*
G01*
X3800043Y10439979D01*
X4619929Y10359979D02*
G01*
X4619929Y10439979D01*
X5963925Y9053728D02*
G01*
X6043924Y9053728D01*
X5533941Y9917734D02*
G01*
X5643940Y9917734D01*
X5533941Y9053728D02*
G01*
X5643940Y9053728D01*
X5963925Y9917734D02*
G01*
X6043924Y9917734D01*
M02*
