G04 Layer: BottomLayer*
G04 EasyEDA v6.5.9, 2022-08-17 00:45:25*
G04 3d046d26f260489bb0fd4f172441b01e,e2b945bbd7ed4cf1bff08b0f7bdd4537,10*
G04 Gerber Generator version 0.2*
G04 Scale: 100 percent, Rotated: No, Reflected: No *
G04 Dimensions in millimeters *
G04 leading zeros omitted , absolute positions ,4 integer and 5 decimal *
%FSLAX45Y45*%
%MOMM*%

%ADD10C,0.2400*%
%ADD11C,1.6000*%
%ADD12C,1.0000*%
%ADD13C,0.6096*%
%ADD14C,0.5000*%
%ADD15C,0.6100*%
%ADD16C,0.0132*%

%LPD*%
G36*
X-183896Y8055864D02*
G01*
X-187807Y8056625D01*
X-191109Y8058861D01*
X-193294Y8062112D01*
X-194056Y8066024D01*
X-194106Y10299293D01*
X-193192Y10321899D01*
X-190601Y10343235D01*
X-186385Y10364368D01*
X-180543Y10385044D01*
X-173024Y10405211D01*
X-163982Y10424769D01*
X-153466Y10443514D01*
X-141478Y10461396D01*
X-128117Y10478262D01*
X-113487Y10494060D01*
X-97688Y10508640D01*
X-80772Y10521950D01*
X-62839Y10533837D01*
X-44043Y10544352D01*
X-24485Y10553344D01*
X-4318Y10560761D01*
X16408Y10566552D01*
X37541Y10570718D01*
X58877Y10573207D01*
X80670Y10574020D01*
X5872937Y10574020D01*
X5875883Y10573613D01*
X5879338Y10572546D01*
X5883402Y10572089D01*
X5905906Y10571175D01*
X5927242Y10568584D01*
X5948375Y10564368D01*
X5969050Y10558475D01*
X5989218Y10551007D01*
X6008776Y10541965D01*
X6027521Y10531449D01*
X6045403Y10519460D01*
X6062268Y10506100D01*
X6078067Y10491470D01*
X6092647Y10475671D01*
X6105956Y10458754D01*
X6117844Y10440822D01*
X6128359Y10422026D01*
X6137351Y10402468D01*
X6144768Y10382300D01*
X6150559Y10361574D01*
X6154724Y10340441D01*
X6157214Y10319105D01*
X6158077Y10297312D01*
X6158992Y10291114D01*
X6158992Y8066024D01*
X6158230Y8062112D01*
X6155994Y8058861D01*
X6152743Y8056625D01*
X6148832Y8055864D01*
G37*

%LPC*%
G36*
X4331055Y10431322D02*
G01*
X4373626Y10431322D01*
X4373626Y10470946D01*
X4367022Y10468356D01*
X4357217Y10462666D01*
X4348327Y10455605D01*
X4340656Y10447274D01*
X4334256Y10437926D01*
G37*
G36*
X2440990Y8184083D02*
G01*
X2454808Y8184997D01*
X2468422Y8187690D01*
X2481529Y8192160D01*
X2493924Y8198307D01*
X2505456Y8205978D01*
X2515870Y8215122D01*
X2525014Y8225536D01*
X2532684Y8237016D01*
X2538831Y8249462D01*
X2543251Y8262569D01*
X2545994Y8276183D01*
X2546858Y8290001D01*
X2545994Y8303818D01*
X2543251Y8317382D01*
X2538831Y8330488D01*
X2532684Y8342934D01*
X2525014Y8354466D01*
X2515870Y8364880D01*
X2505456Y8373973D01*
X2493924Y8381695D01*
X2481529Y8387791D01*
X2468422Y8392261D01*
X2454808Y8394954D01*
X2440990Y8395868D01*
X2427173Y8394954D01*
X2413609Y8392261D01*
X2400452Y8387791D01*
X2388057Y8381695D01*
X2376525Y8373973D01*
X2366111Y8364880D01*
X2356967Y8354466D01*
X2349296Y8342934D01*
X2343150Y8330488D01*
X2338730Y8317382D01*
X2336038Y8303818D01*
X2335123Y8290001D01*
X2336038Y8276183D01*
X2338730Y8262569D01*
X2343150Y8249462D01*
X2349296Y8237016D01*
X2356967Y8225536D01*
X2366111Y8215122D01*
X2376525Y8205978D01*
X2388057Y8198307D01*
X2400452Y8192160D01*
X2413609Y8187690D01*
X2427173Y8184997D01*
G37*
G36*
X2694990Y8184083D02*
G01*
X2708808Y8184997D01*
X2722422Y8187690D01*
X2735529Y8192160D01*
X2747924Y8198307D01*
X2759456Y8205978D01*
X2769870Y8215122D01*
X2779014Y8225536D01*
X2786684Y8237016D01*
X2792831Y8249462D01*
X2797251Y8262569D01*
X2799994Y8276183D01*
X2800858Y8290001D01*
X2799994Y8303818D01*
X2797251Y8317382D01*
X2792831Y8330488D01*
X2786684Y8342934D01*
X2779014Y8354466D01*
X2769870Y8364880D01*
X2759456Y8373973D01*
X2747924Y8381695D01*
X2735529Y8387791D01*
X2722422Y8392261D01*
X2708808Y8394954D01*
X2694990Y8395868D01*
X2681173Y8394954D01*
X2667609Y8392261D01*
X2654452Y8387791D01*
X2642057Y8381695D01*
X2630525Y8373973D01*
X2620111Y8364880D01*
X2610967Y8354466D01*
X2603296Y8342934D01*
X2597150Y8330488D01*
X2592730Y8317382D01*
X2590038Y8303818D01*
X2589123Y8290001D01*
X2590038Y8276183D01*
X2592730Y8262569D01*
X2597150Y8249462D01*
X2603296Y8237016D01*
X2610967Y8225536D01*
X2620111Y8215122D01*
X2630525Y8205978D01*
X2642057Y8198307D01*
X2654452Y8192160D01*
X2667609Y8187690D01*
X2681173Y8184997D01*
G37*
G36*
X3456990Y8184083D02*
G01*
X3470808Y8184997D01*
X3484422Y8187690D01*
X3497529Y8192160D01*
X3509924Y8198307D01*
X3521456Y8205978D01*
X3531870Y8215122D01*
X3541014Y8225536D01*
X3548684Y8237016D01*
X3554831Y8249462D01*
X3559251Y8262569D01*
X3561994Y8276183D01*
X3562858Y8290001D01*
X3561994Y8303818D01*
X3559251Y8317382D01*
X3554831Y8330488D01*
X3548684Y8342934D01*
X3541014Y8354466D01*
X3531870Y8364880D01*
X3521456Y8373973D01*
X3509924Y8381695D01*
X3497529Y8387791D01*
X3484422Y8392261D01*
X3470808Y8394954D01*
X3456990Y8395868D01*
X3443173Y8394954D01*
X3429609Y8392261D01*
X3416452Y8387791D01*
X3404057Y8381695D01*
X3392525Y8373973D01*
X3382111Y8364880D01*
X3372967Y8354466D01*
X3365296Y8342934D01*
X3359150Y8330488D01*
X3354730Y8317382D01*
X3352037Y8303818D01*
X3351123Y8290001D01*
X3352037Y8276183D01*
X3354730Y8262569D01*
X3359150Y8249462D01*
X3365296Y8237016D01*
X3372967Y8225536D01*
X3382111Y8215122D01*
X3392525Y8205978D01*
X3404057Y8198307D01*
X3416452Y8192160D01*
X3429609Y8187690D01*
X3443173Y8184997D01*
G37*
G36*
X2948990Y8184083D02*
G01*
X2962808Y8184997D01*
X2976422Y8187690D01*
X2989529Y8192160D01*
X3001924Y8198307D01*
X3013456Y8205978D01*
X3023870Y8215122D01*
X3033014Y8225536D01*
X3040684Y8237016D01*
X3046831Y8249462D01*
X3051251Y8262569D01*
X3053994Y8276183D01*
X3054858Y8290001D01*
X3053994Y8303818D01*
X3051251Y8317382D01*
X3046831Y8330488D01*
X3040684Y8342934D01*
X3033014Y8354466D01*
X3023870Y8364880D01*
X3013456Y8373973D01*
X3001924Y8381695D01*
X2989529Y8387791D01*
X2976422Y8392261D01*
X2962808Y8394954D01*
X2948990Y8395868D01*
X2935173Y8394954D01*
X2921609Y8392261D01*
X2908452Y8387791D01*
X2896057Y8381695D01*
X2884525Y8373973D01*
X2874111Y8364880D01*
X2864967Y8354466D01*
X2857296Y8342934D01*
X2851150Y8330488D01*
X2846730Y8317382D01*
X2844038Y8303818D01*
X2843123Y8290001D01*
X2844038Y8276183D01*
X2846730Y8262569D01*
X2851150Y8249462D01*
X2857296Y8237016D01*
X2864967Y8225536D01*
X2874111Y8215122D01*
X2884525Y8205978D01*
X2896057Y8198307D01*
X2908452Y8192160D01*
X2921609Y8187690D01*
X2935173Y8184997D01*
G37*
G36*
X3202990Y8184083D02*
G01*
X3216808Y8184997D01*
X3230422Y8187690D01*
X3243529Y8192160D01*
X3255924Y8198307D01*
X3267456Y8205978D01*
X3277870Y8215122D01*
X3287014Y8225536D01*
X3294684Y8237016D01*
X3300831Y8249462D01*
X3305251Y8262569D01*
X3307994Y8276183D01*
X3308858Y8290001D01*
X3307994Y8303818D01*
X3305251Y8317382D01*
X3300831Y8330488D01*
X3294684Y8342934D01*
X3287014Y8354466D01*
X3277870Y8364880D01*
X3267456Y8373973D01*
X3255924Y8381695D01*
X3243529Y8387791D01*
X3230422Y8392261D01*
X3216808Y8394954D01*
X3202990Y8395868D01*
X3189173Y8394954D01*
X3175609Y8392261D01*
X3162452Y8387791D01*
X3150057Y8381695D01*
X3138525Y8373973D01*
X3128111Y8364880D01*
X3118967Y8354466D01*
X3111296Y8342934D01*
X3105150Y8330488D01*
X3100730Y8317382D01*
X3098038Y8303818D01*
X3097123Y8290001D01*
X3098038Y8276183D01*
X3100730Y8262569D01*
X3105150Y8249462D01*
X3111296Y8237016D01*
X3118967Y8225536D01*
X3128111Y8215122D01*
X3138525Y8205978D01*
X3150057Y8198307D01*
X3162452Y8192160D01*
X3175609Y8187690D01*
X3189173Y8184997D01*
G37*
G36*
X3964990Y8184083D02*
G01*
X3978808Y8184997D01*
X3992422Y8187690D01*
X4005529Y8192160D01*
X4017924Y8198307D01*
X4029456Y8205978D01*
X4039870Y8215122D01*
X4049014Y8225536D01*
X4056684Y8237016D01*
X4062831Y8249462D01*
X4067251Y8262569D01*
X4069994Y8276183D01*
X4070858Y8290001D01*
X4069994Y8303818D01*
X4067251Y8317382D01*
X4062831Y8330488D01*
X4056684Y8342934D01*
X4049014Y8354466D01*
X4039870Y8364880D01*
X4029456Y8373973D01*
X4017924Y8381695D01*
X4005529Y8387791D01*
X3992422Y8392261D01*
X3978808Y8394954D01*
X3964990Y8395868D01*
X3951173Y8394954D01*
X3937609Y8392261D01*
X3924452Y8387791D01*
X3912057Y8381695D01*
X3900525Y8373973D01*
X3890111Y8364880D01*
X3880967Y8354466D01*
X3873296Y8342934D01*
X3867150Y8330488D01*
X3862730Y8317382D01*
X3860037Y8303818D01*
X3859123Y8290001D01*
X3860037Y8276183D01*
X3862730Y8262569D01*
X3867150Y8249462D01*
X3873296Y8237016D01*
X3880967Y8225536D01*
X3890111Y8215122D01*
X3900525Y8205978D01*
X3912057Y8198307D01*
X3924452Y8192160D01*
X3937609Y8187690D01*
X3951173Y8184997D01*
G37*
G36*
X75590Y8184083D02*
G01*
X234442Y8184083D01*
X240741Y8184794D01*
X246227Y8186674D01*
X251104Y8189772D01*
X255219Y8193887D01*
X258267Y8198764D01*
X260197Y8204250D01*
X260908Y8210550D01*
X260908Y8369401D01*
X260197Y8375751D01*
X258267Y8381187D01*
X255219Y8386114D01*
X251104Y8390178D01*
X246227Y8393277D01*
X240741Y8395157D01*
X234442Y8395868D01*
X75590Y8395868D01*
X69240Y8395157D01*
X63804Y8393277D01*
X58877Y8390178D01*
X54813Y8386114D01*
X51714Y8381187D01*
X49784Y8375751D01*
X49072Y8369401D01*
X49072Y8210550D01*
X49784Y8204250D01*
X51714Y8198764D01*
X54813Y8193887D01*
X58877Y8189772D01*
X63804Y8186674D01*
X69240Y8184794D01*
G37*
G36*
X408990Y8184083D02*
G01*
X422808Y8184997D01*
X436422Y8187690D01*
X449529Y8192160D01*
X461924Y8198307D01*
X473456Y8205978D01*
X483870Y8215122D01*
X493014Y8225536D01*
X500684Y8237016D01*
X506831Y8249462D01*
X511251Y8262569D01*
X513994Y8276183D01*
X514858Y8290001D01*
X513994Y8303818D01*
X511251Y8317382D01*
X507898Y8327288D01*
X507390Y8330996D01*
X508254Y8334654D01*
X510336Y8337753D01*
X1971700Y9799116D01*
X1975002Y9801301D01*
X1978914Y9802063D01*
X1996948Y9802063D01*
X2001316Y9801098D01*
X2004822Y9798354D01*
X2006803Y9794392D01*
X2006955Y9789922D01*
X2005126Y9785858D01*
X2001774Y9782962D01*
X1998980Y9781438D01*
X1992833Y9776409D01*
X636524Y8420150D01*
X631494Y8414004D01*
X628040Y8407450D01*
X625856Y8400338D01*
X625297Y8394547D01*
X624382Y8391245D01*
X622452Y8388451D01*
X619658Y8386419D01*
X610057Y8381695D01*
X598525Y8373973D01*
X588111Y8364880D01*
X578967Y8354466D01*
X571296Y8342934D01*
X565150Y8330488D01*
X560730Y8317382D01*
X558038Y8303818D01*
X557123Y8290001D01*
X558038Y8276183D01*
X560730Y8262569D01*
X565150Y8249462D01*
X571296Y8237016D01*
X578967Y8225536D01*
X588111Y8215122D01*
X598525Y8205978D01*
X610057Y8198307D01*
X622452Y8192160D01*
X635609Y8187690D01*
X649173Y8184997D01*
X662990Y8184083D01*
X676808Y8184997D01*
X690422Y8187690D01*
X703529Y8192160D01*
X715924Y8198307D01*
X727456Y8205978D01*
X737870Y8215122D01*
X747014Y8225536D01*
X754684Y8237016D01*
X760831Y8249462D01*
X765251Y8262569D01*
X767994Y8276183D01*
X768858Y8290001D01*
X767994Y8303818D01*
X765251Y8317382D01*
X760831Y8330488D01*
X754684Y8342934D01*
X747014Y8354466D01*
X737870Y8364880D01*
X727456Y8373973D01*
X719836Y8379053D01*
X716788Y8382304D01*
X715416Y8386521D01*
X715924Y8390940D01*
X718312Y8394700D01*
X2032711Y9709099D01*
X2036013Y9711283D01*
X2039924Y9712096D01*
X2260092Y9712096D01*
X2263952Y9711283D01*
X2267254Y9709099D01*
X2311654Y9664700D01*
X2313787Y9661550D01*
X2314651Y9657842D01*
X2314041Y9654082D01*
X2312111Y9650831D01*
X2309114Y9648444D01*
X2305507Y9647377D01*
X2302611Y9647123D01*
X2295499Y9644938D01*
X2288946Y9641484D01*
X2282850Y9636455D01*
X2197252Y9550857D01*
X2193950Y9548672D01*
X2190089Y9547910D01*
X2050491Y9547910D01*
X2042617Y9547098D01*
X2035505Y9544964D01*
X2028952Y9541459D01*
X2023211Y9536734D01*
X2018538Y9530994D01*
X2015032Y9524492D01*
X2012848Y9517380D01*
X2012086Y9509506D01*
X2012086Y9442907D01*
X2011324Y9438995D01*
X2009089Y9435693D01*
X964742Y8391347D01*
X961644Y8389213D01*
X957986Y8388350D01*
X954278Y8388908D01*
X944422Y8392261D01*
X930808Y8394954D01*
X916990Y8395868D01*
X903173Y8394954D01*
X889609Y8392261D01*
X876452Y8387791D01*
X864057Y8381695D01*
X852525Y8373973D01*
X842111Y8364880D01*
X832967Y8354466D01*
X825296Y8342934D01*
X819150Y8330488D01*
X814730Y8317382D01*
X812038Y8303818D01*
X811123Y8290001D01*
X812038Y8276183D01*
X814730Y8262569D01*
X819150Y8249462D01*
X825296Y8237016D01*
X832967Y8225536D01*
X842111Y8215122D01*
X852525Y8205978D01*
X864057Y8198307D01*
X876452Y8192160D01*
X889609Y8187690D01*
X903173Y8184997D01*
X916990Y8184083D01*
X930808Y8184997D01*
X944422Y8187690D01*
X957529Y8192160D01*
X969924Y8198307D01*
X981456Y8205978D01*
X991869Y8215122D01*
X1001014Y8225536D01*
X1008684Y8237016D01*
X1014831Y8249462D01*
X1019251Y8262569D01*
X1021994Y8276183D01*
X1022858Y8290001D01*
X1021994Y8303818D01*
X1019251Y8317382D01*
X1015898Y8327288D01*
X1015390Y8330996D01*
X1016253Y8334654D01*
X1018336Y8337753D01*
X2076450Y9395815D01*
X2081479Y9401962D01*
X2084984Y9408515D01*
X2087118Y9415576D01*
X2087880Y9423501D01*
X2087880Y9461906D01*
X2088692Y9465818D01*
X2090877Y9469120D01*
X2094179Y9471304D01*
X2098040Y9472066D01*
X2209495Y9472066D01*
X2217369Y9472828D01*
X2224481Y9475012D01*
X2231034Y9478518D01*
X2237181Y9483547D01*
X2322728Y9569094D01*
X2326030Y9571278D01*
X2329891Y9572091D01*
X2374950Y9572091D01*
X2378811Y9571278D01*
X2382113Y9569094D01*
X2384348Y9565792D01*
X2385110Y9561931D01*
X2384348Y9558020D01*
X2382113Y9554718D01*
X1893316Y9065920D01*
X1890014Y9063685D01*
X1886153Y9062923D01*
X1865528Y9062923D01*
X1857654Y9062161D01*
X1850542Y9060027D01*
X1843989Y9056522D01*
X1837893Y9051493D01*
X1233525Y8447125D01*
X1228496Y8441029D01*
X1225042Y8434476D01*
X1222857Y8427364D01*
X1222095Y8419490D01*
X1222095Y8398916D01*
X1221333Y8395004D01*
X1218742Y8391347D01*
X1215644Y8389213D01*
X1211986Y8388350D01*
X1208278Y8388908D01*
X1198422Y8392261D01*
X1184808Y8394954D01*
X1170990Y8395868D01*
X1157173Y8394954D01*
X1143609Y8392261D01*
X1130452Y8387791D01*
X1118057Y8381695D01*
X1106525Y8373973D01*
X1096111Y8364880D01*
X1086967Y8354466D01*
X1079296Y8342934D01*
X1073150Y8330488D01*
X1068730Y8317382D01*
X1066038Y8303818D01*
X1065123Y8290001D01*
X1066038Y8276183D01*
X1068730Y8262569D01*
X1073150Y8249462D01*
X1079296Y8237016D01*
X1086967Y8225536D01*
X1096111Y8215122D01*
X1106525Y8205978D01*
X1118057Y8198307D01*
X1130452Y8192160D01*
X1143609Y8187690D01*
X1157173Y8184997D01*
X1170990Y8184083D01*
X1184808Y8184997D01*
X1198422Y8187690D01*
X1211529Y8192160D01*
X1223924Y8198307D01*
X1235456Y8205978D01*
X1245870Y8215122D01*
X1255014Y8225536D01*
X1262684Y8237016D01*
X1268831Y8249462D01*
X1273251Y8262569D01*
X1275994Y8276183D01*
X1276858Y8290001D01*
X1275994Y8303818D01*
X1273251Y8317382D01*
X1269898Y8327288D01*
X1269390Y8330996D01*
X1270254Y8334654D01*
X1272336Y8337753D01*
X1286459Y8351824D01*
X1291488Y8357971D01*
X1294993Y8364474D01*
X1297127Y8371586D01*
X1297889Y8379510D01*
X1297889Y8400084D01*
X1298702Y8403945D01*
X1300886Y8407247D01*
X1877771Y8984132D01*
X1881073Y8986367D01*
X1884934Y8987129D01*
X1905558Y8987129D01*
X1913432Y8987891D01*
X1920544Y8990025D01*
X1927098Y8993530D01*
X1933193Y8998559D01*
X2453741Y9519107D01*
X2457043Y9521291D01*
X2460904Y9522053D01*
X3043936Y9522053D01*
X3047847Y9521291D01*
X3051149Y9519107D01*
X3053334Y9515805D01*
X3054096Y9511893D01*
X3053334Y9508032D01*
X3051149Y9504730D01*
X2277262Y8730843D01*
X2273960Y8728659D01*
X2270099Y8727897D01*
X1825498Y8727897D01*
X1817624Y8727135D01*
X1810512Y8724950D01*
X1803958Y8721445D01*
X1797812Y8716416D01*
X1472742Y8391347D01*
X1469644Y8389213D01*
X1465986Y8388350D01*
X1462278Y8388908D01*
X1452422Y8392261D01*
X1438808Y8394954D01*
X1424990Y8395868D01*
X1411173Y8394954D01*
X1397609Y8392261D01*
X1384452Y8387791D01*
X1372057Y8381695D01*
X1360525Y8373973D01*
X1350111Y8364880D01*
X1340967Y8354466D01*
X1333296Y8342934D01*
X1327150Y8330488D01*
X1322730Y8317382D01*
X1320038Y8303818D01*
X1319123Y8290001D01*
X1320038Y8276183D01*
X1322730Y8262569D01*
X1327150Y8249462D01*
X1333296Y8237016D01*
X1340967Y8225536D01*
X1350111Y8215122D01*
X1360525Y8205978D01*
X1372057Y8198307D01*
X1384452Y8192160D01*
X1397609Y8187690D01*
X1411173Y8184997D01*
X1424990Y8184083D01*
X1438808Y8184997D01*
X1452422Y8187690D01*
X1465529Y8192160D01*
X1477924Y8198307D01*
X1489456Y8205978D01*
X1499870Y8215122D01*
X1509014Y8225536D01*
X1516684Y8237016D01*
X1522831Y8249462D01*
X1527251Y8262569D01*
X1529994Y8276183D01*
X1530858Y8290001D01*
X1529994Y8303818D01*
X1527251Y8317382D01*
X1523898Y8327288D01*
X1523390Y8330996D01*
X1524254Y8334654D01*
X1526336Y8337753D01*
X1837740Y8649106D01*
X1840992Y8651290D01*
X1844903Y8652052D01*
X1966112Y8652052D01*
X1970481Y8651087D01*
X1973986Y8648344D01*
X1975967Y8644382D01*
X1976120Y8639911D01*
X1974291Y8635847D01*
X1970938Y8632952D01*
X1968042Y8631428D01*
X1961946Y8626398D01*
X1726692Y8391347D01*
X1723593Y8389264D01*
X1719935Y8388400D01*
X1716227Y8388908D01*
X1706422Y8392261D01*
X1692808Y8394954D01*
X1678990Y8395868D01*
X1665173Y8394954D01*
X1651609Y8392261D01*
X1638452Y8387791D01*
X1626057Y8381695D01*
X1614525Y8373973D01*
X1604111Y8364880D01*
X1594967Y8354466D01*
X1587296Y8342934D01*
X1581150Y8330488D01*
X1576730Y8317382D01*
X1574038Y8303818D01*
X1573123Y8290001D01*
X1574038Y8276183D01*
X1576730Y8262569D01*
X1581150Y8249462D01*
X1587296Y8237016D01*
X1594967Y8225536D01*
X1604111Y8215122D01*
X1614525Y8205978D01*
X1626057Y8198307D01*
X1638452Y8192160D01*
X1651609Y8187690D01*
X1665173Y8184997D01*
X1678990Y8184083D01*
X1692808Y8184997D01*
X1706422Y8187690D01*
X1719529Y8192160D01*
X1731924Y8198307D01*
X1743456Y8205978D01*
X1753870Y8215122D01*
X1763014Y8225536D01*
X1770684Y8237016D01*
X1776831Y8249462D01*
X1781251Y8262569D01*
X1783994Y8276183D01*
X1784857Y8290001D01*
X1783994Y8303818D01*
X1781251Y8317382D01*
X1777898Y8327339D01*
X1777390Y8331047D01*
X1778203Y8334705D01*
X1780336Y8337803D01*
X2001774Y8559038D01*
X2005075Y8561273D01*
X2008987Y8562035D01*
X2093925Y8562035D01*
X2097786Y8561273D01*
X2101088Y8559038D01*
X2103272Y8555736D01*
X2104085Y8551875D01*
X2103272Y8547963D01*
X2101088Y8544661D01*
X1954326Y8397951D01*
X1950720Y8395614D01*
X1946503Y8395004D01*
X1932990Y8395868D01*
X1919173Y8394954D01*
X1905609Y8392261D01*
X1892452Y8387791D01*
X1880057Y8381695D01*
X1868525Y8373973D01*
X1858111Y8364880D01*
X1848967Y8354466D01*
X1841296Y8342934D01*
X1835150Y8330488D01*
X1830730Y8317382D01*
X1828038Y8303818D01*
X1827123Y8290001D01*
X1828038Y8276183D01*
X1830730Y8262569D01*
X1835150Y8249462D01*
X1841296Y8237016D01*
X1848967Y8225536D01*
X1858111Y8215122D01*
X1868525Y8205978D01*
X1880057Y8198307D01*
X1892452Y8192160D01*
X1905609Y8187690D01*
X1919173Y8184997D01*
X1932990Y8184083D01*
X1946808Y8184997D01*
X1960422Y8187690D01*
X1973529Y8192160D01*
X1985924Y8198307D01*
X1997456Y8205978D01*
X2007870Y8215122D01*
X2017014Y8225536D01*
X2024684Y8237016D01*
X2030831Y8249462D01*
X2035251Y8262569D01*
X2037994Y8276183D01*
X2038857Y8290001D01*
X2037994Y8303818D01*
X2035251Y8317382D01*
X2030831Y8330488D01*
X2024684Y8342934D01*
X2022043Y8346897D01*
X2020671Y8350046D01*
X2020417Y8353501D01*
X2021332Y8356853D01*
X2023313Y8359698D01*
X2162708Y8499094D01*
X2166010Y8501278D01*
X2169922Y8502091D01*
X2320848Y8502091D01*
X2324760Y8501278D01*
X2328062Y8499094D01*
X2330246Y8495792D01*
X2331008Y8491931D01*
X2330246Y8488019D01*
X2328011Y8484717D01*
X2234641Y8391347D01*
X2231542Y8389264D01*
X2227935Y8388400D01*
X2224227Y8388908D01*
X2214422Y8392261D01*
X2200808Y8394954D01*
X2186990Y8395868D01*
X2173173Y8394954D01*
X2159609Y8392261D01*
X2146452Y8387791D01*
X2134057Y8381695D01*
X2122525Y8373973D01*
X2112111Y8364880D01*
X2102967Y8354466D01*
X2095296Y8342934D01*
X2089150Y8330488D01*
X2084730Y8317382D01*
X2082038Y8303818D01*
X2081123Y8290001D01*
X2082038Y8276183D01*
X2084730Y8262569D01*
X2089150Y8249462D01*
X2095296Y8237016D01*
X2102967Y8225536D01*
X2112111Y8215122D01*
X2122525Y8205978D01*
X2134057Y8198307D01*
X2146452Y8192160D01*
X2159609Y8187690D01*
X2173173Y8184997D01*
X2186990Y8184083D01*
X2200808Y8184997D01*
X2214422Y8187690D01*
X2227529Y8192160D01*
X2239924Y8198307D01*
X2251456Y8205978D01*
X2261870Y8215122D01*
X2271014Y8225536D01*
X2278684Y8237016D01*
X2284831Y8249462D01*
X2289251Y8262569D01*
X2291994Y8276183D01*
X2292858Y8290001D01*
X2291994Y8303818D01*
X2289251Y8317382D01*
X2285898Y8327339D01*
X2285339Y8331047D01*
X2286203Y8334705D01*
X2288336Y8337803D01*
X3546398Y9595612D01*
X3551428Y9601758D01*
X3554933Y9608312D01*
X3557066Y9615424D01*
X3557727Y9622129D01*
X3558895Y9625939D01*
X3561384Y9628987D01*
X3564890Y9630867D01*
X3568852Y9631222D01*
X3572662Y9630105D01*
X3577996Y9627209D01*
X3586683Y9624364D01*
X3595725Y9623145D01*
X3604818Y9623552D01*
X3613708Y9625584D01*
X3622090Y9629190D01*
X3629710Y9634220D01*
X3636314Y9640519D01*
X3641648Y9647885D01*
X3645611Y9656114D01*
X3648049Y9664903D01*
X3648862Y9673996D01*
X3648049Y9683038D01*
X3645611Y9691878D01*
X3641648Y9700056D01*
X3636314Y9707473D01*
X3629710Y9713772D01*
X3622090Y9718751D01*
X3613708Y9722358D01*
X3605784Y9724186D01*
X3602634Y9725456D01*
X3600094Y9727742D01*
X3598468Y9730740D01*
X3597910Y9734092D01*
X3597910Y9779508D01*
X3597148Y9787382D01*
X3594963Y9794494D01*
X3591610Y9800793D01*
X3590442Y9804654D01*
X3590036Y9809073D01*
X3587597Y9817862D01*
X3583686Y9826091D01*
X3578301Y9833457D01*
X3571697Y9839756D01*
X3564077Y9844786D01*
X3555695Y9848342D01*
X3546805Y9850374D01*
X3537712Y9850780D01*
X3528669Y9849561D01*
X3519982Y9846767D01*
X3511956Y9842449D01*
X3504844Y9836759D01*
X3495446Y9825786D01*
X3491839Y9824059D01*
X3487877Y9823907D01*
X3484118Y9825278D01*
X3481222Y9827971D01*
X3478529Y9831679D01*
X3471926Y9837978D01*
X3464306Y9843008D01*
X3455924Y9846564D01*
X3447034Y9848596D01*
X3437940Y9849002D01*
X3428898Y9847783D01*
X3420211Y9844989D01*
X3412185Y9840671D01*
X3405073Y9834981D01*
X3396183Y9824821D01*
X3392576Y9823094D01*
X3388563Y9822942D01*
X3384854Y9824313D01*
X3381908Y9827006D01*
X3378504Y9831679D01*
X3371900Y9837978D01*
X3364331Y9843008D01*
X3355898Y9846564D01*
X3347008Y9848596D01*
X3337915Y9849002D01*
X3328873Y9847783D01*
X3320186Y9844989D01*
X3312160Y9840671D01*
X3305048Y9834981D01*
X3299053Y9828123D01*
X3297936Y9826244D01*
X3295243Y9823297D01*
X3291636Y9821570D01*
X3287674Y9821418D01*
X3283915Y9822789D01*
X3281019Y9825482D01*
X3276498Y9831679D01*
X3269894Y9837978D01*
X3262325Y9843008D01*
X3253892Y9846564D01*
X3245002Y9848596D01*
X3235909Y9849002D01*
X3226866Y9847783D01*
X3218180Y9844989D01*
X3210153Y9840671D01*
X3203041Y9834981D01*
X3198012Y9829190D01*
X3195167Y9826955D01*
X3191713Y9825837D01*
X3188106Y9825990D01*
X3184753Y9827412D01*
X3182112Y9829901D01*
X3176524Y9837674D01*
X3169920Y9843973D01*
X3162300Y9849002D01*
X3153918Y9852558D01*
X3141472Y9855504D01*
X3138424Y9857587D01*
X3129584Y9866426D01*
X3123438Y9871456D01*
X3116884Y9874961D01*
X3109772Y9877094D01*
X3101898Y9877907D01*
X1959508Y9877907D01*
X1951583Y9877094D01*
X1944522Y9874961D01*
X1937969Y9871456D01*
X1931822Y9866426D01*
X456742Y8391347D01*
X453643Y8389213D01*
X449986Y8388350D01*
X446278Y8388908D01*
X436422Y8392261D01*
X422808Y8394954D01*
X408990Y8395868D01*
X395173Y8394954D01*
X381609Y8392261D01*
X368452Y8387791D01*
X356057Y8381695D01*
X344525Y8373973D01*
X334111Y8364880D01*
X324967Y8354466D01*
X317296Y8342934D01*
X311150Y8330488D01*
X306730Y8317382D01*
X304038Y8303818D01*
X303123Y8290001D01*
X304038Y8276183D01*
X306730Y8262569D01*
X311150Y8249462D01*
X317296Y8237016D01*
X324967Y8225536D01*
X334111Y8215122D01*
X344525Y8205978D01*
X356057Y8198307D01*
X368452Y8192160D01*
X381609Y8187690D01*
X395173Y8184997D01*
G37*
G36*
X4446320Y10431322D02*
G01*
X4488840Y10431322D01*
X4485640Y10437926D01*
X4479290Y10447274D01*
X4471568Y10455605D01*
X4462678Y10462666D01*
X4452874Y10468356D01*
X4446320Y10470946D01*
G37*
G36*
X4373626Y10329011D02*
G01*
X4373626Y10368635D01*
X4331055Y10368635D01*
X4334256Y10362031D01*
X4340656Y10352684D01*
X4348327Y10344353D01*
X4357217Y10337292D01*
X4367022Y10331602D01*
G37*
G36*
X4446320Y10329011D02*
G01*
X4452874Y10331602D01*
X4462678Y10337292D01*
X4471568Y10344353D01*
X4479290Y10352684D01*
X4485640Y10362031D01*
X4488840Y10368635D01*
X4446320Y10368635D01*
G37*
G36*
X4000398Y10324084D02*
G01*
X4019651Y10324084D01*
X4031335Y10324947D01*
X4042359Y10327487D01*
X4052925Y10331602D01*
X4062729Y10337292D01*
X4071620Y10344353D01*
X4079341Y10352684D01*
X4085742Y10362031D01*
X4090619Y10372242D01*
X4093972Y10383113D01*
X4095699Y10394289D01*
X4095699Y10405668D01*
X4093972Y10416844D01*
X4090619Y10427716D01*
X4085742Y10437926D01*
X4079341Y10447274D01*
X4071620Y10455605D01*
X4062729Y10462666D01*
X4052925Y10468356D01*
X4042359Y10472470D01*
X4031335Y10475010D01*
X4019651Y10475874D01*
X4000398Y10475874D01*
X3988714Y10475010D01*
X3977640Y10472470D01*
X3967073Y10468356D01*
X3957269Y10462666D01*
X3948429Y10455605D01*
X3940708Y10447274D01*
X3934307Y10437926D01*
X3929379Y10427716D01*
X3926027Y10416844D01*
X3924350Y10405668D01*
X3924350Y10394289D01*
X3926027Y10383113D01*
X3929379Y10372242D01*
X3934307Y10362031D01*
X3940708Y10352684D01*
X3948429Y10344353D01*
X3957269Y10337292D01*
X3967073Y10331602D01*
X3977640Y10327487D01*
X3988714Y10324947D01*
G37*
G36*
X4200347Y10324084D02*
G01*
X4219549Y10324084D01*
X4231284Y10324947D01*
X4242308Y10327487D01*
X4252874Y10331602D01*
X4262678Y10337292D01*
X4271568Y10344353D01*
X4279290Y10352684D01*
X4285640Y10362031D01*
X4290568Y10372242D01*
X4293920Y10383113D01*
X4295597Y10394289D01*
X4295597Y10405668D01*
X4293920Y10416844D01*
X4290568Y10427716D01*
X4285640Y10437926D01*
X4279290Y10447274D01*
X4271568Y10455605D01*
X4262678Y10462666D01*
X4252874Y10468356D01*
X4242308Y10472470D01*
X4231284Y10475010D01*
X4219549Y10475874D01*
X4200347Y10475874D01*
X4188663Y10475010D01*
X4177588Y10472470D01*
X4167022Y10468356D01*
X4157218Y10462666D01*
X4148328Y10455605D01*
X4140657Y10447274D01*
X4134256Y10437926D01*
X4129328Y10427716D01*
X4125976Y10416844D01*
X4124299Y10405668D01*
X4124299Y10394289D01*
X4125976Y10383113D01*
X4129328Y10372242D01*
X4134256Y10362031D01*
X4140657Y10352684D01*
X4148328Y10344353D01*
X4157218Y10337292D01*
X4167022Y10331602D01*
X4177588Y10327487D01*
X4188663Y10324947D01*
G37*
G36*
X3794353Y10284307D02*
G01*
X3805682Y10284307D01*
X3816908Y10285984D01*
X3827729Y10289336D01*
X3837940Y10294264D01*
X3847337Y10300665D01*
X3855618Y10308386D01*
X3862679Y10317226D01*
X3868369Y10327081D01*
X3872534Y10337596D01*
X3875024Y10348671D01*
X3875887Y10360355D01*
X3875887Y10439603D01*
X3875024Y10451287D01*
X3872534Y10462361D01*
X3868369Y10472877D01*
X3862679Y10482732D01*
X3855618Y10491571D01*
X3847337Y10499293D01*
X3837940Y10505694D01*
X3827729Y10510621D01*
X3816908Y10513974D01*
X3805682Y10515650D01*
X3794353Y10515650D01*
X3783126Y10513974D01*
X3772255Y10510621D01*
X3762044Y10505694D01*
X3752697Y10499293D01*
X3744366Y10491571D01*
X3737305Y10482732D01*
X3731615Y10472877D01*
X3727500Y10462361D01*
X3724960Y10451287D01*
X3724097Y10439603D01*
X3724097Y10360355D01*
X3724960Y10348671D01*
X3727500Y10337596D01*
X3731615Y10327081D01*
X3737305Y10317226D01*
X3744366Y10308386D01*
X3752697Y10300665D01*
X3762044Y10294264D01*
X3772255Y10289336D01*
X3783126Y10285984D01*
G37*
G36*
X4614316Y10284307D02*
G01*
X4625644Y10284307D01*
X4636871Y10285984D01*
X4647692Y10289336D01*
X4657902Y10294264D01*
X4667300Y10300665D01*
X4675581Y10308386D01*
X4682642Y10317226D01*
X4688332Y10327081D01*
X4692497Y10337596D01*
X4694986Y10348671D01*
X4695901Y10360355D01*
X4695901Y10439603D01*
X4694986Y10451287D01*
X4692497Y10462361D01*
X4688332Y10472877D01*
X4682642Y10482732D01*
X4675581Y10491571D01*
X4667300Y10499293D01*
X4657902Y10505694D01*
X4647692Y10510621D01*
X4636871Y10513974D01*
X4625644Y10515650D01*
X4614316Y10515650D01*
X4603089Y10513974D01*
X4592269Y10510621D01*
X4582058Y10505694D01*
X4572660Y10499293D01*
X4564329Y10491571D01*
X4557268Y10482732D01*
X4551629Y10472877D01*
X4547463Y10462361D01*
X4544923Y10451287D01*
X4544060Y10439603D01*
X4544060Y10360355D01*
X4544923Y10348671D01*
X4547463Y10337596D01*
X4551629Y10327081D01*
X4557268Y10317226D01*
X4564329Y10308386D01*
X4572660Y10300665D01*
X4582058Y10294264D01*
X4592269Y10289336D01*
X4603089Y10285984D01*
G37*
G36*
X16611Y10259009D02*
G01*
X30124Y10259466D01*
X43434Y10261701D01*
X56286Y10265664D01*
X68529Y10271353D01*
X79908Y10278618D01*
X90220Y10287355D01*
X99263Y10297363D01*
X106933Y10308488D01*
X113030Y10320528D01*
X117449Y10333278D01*
X120142Y10346486D01*
X121005Y10359948D01*
X120142Y10373461D01*
X117449Y10386669D01*
X113030Y10399420D01*
X106933Y10411460D01*
X99263Y10422585D01*
X90220Y10432592D01*
X79908Y10441330D01*
X68529Y10448594D01*
X56286Y10454284D01*
X43434Y10458246D01*
X30124Y10460482D01*
X16611Y10460939D01*
X3200Y10459618D01*
X-9956Y10456468D01*
X-22555Y10451642D01*
X-34391Y10445140D01*
X-45262Y10437114D01*
X-54965Y10427766D01*
X-63296Y10417149D01*
X-70205Y10405567D01*
X-75438Y10393121D01*
X-79044Y10380116D01*
X-80822Y10366705D01*
X-80822Y10353243D01*
X-79044Y10339832D01*
X-75438Y10326827D01*
X-70205Y10314381D01*
X-63296Y10302798D01*
X-54965Y10292181D01*
X-45262Y10282834D01*
X-34391Y10274808D01*
X-22555Y10268305D01*
X-9956Y10263479D01*
X3200Y10260330D01*
G37*
G36*
X5939942Y10254335D02*
G01*
X5953404Y10254792D01*
X5966714Y10257028D01*
X5979617Y10260990D01*
X5991860Y10266680D01*
X6003239Y10273944D01*
X6013551Y10282682D01*
X6022594Y10292689D01*
X6030214Y10303814D01*
X6036310Y10315854D01*
X6040729Y10328605D01*
X6043422Y10341813D01*
X6044336Y10355275D01*
X6043422Y10368788D01*
X6040729Y10381996D01*
X6036310Y10394746D01*
X6030214Y10406786D01*
X6022594Y10417911D01*
X6013551Y10427919D01*
X6003239Y10436656D01*
X5991860Y10443921D01*
X5979617Y10449610D01*
X5966714Y10453573D01*
X5953404Y10455808D01*
X5939942Y10456265D01*
X5926480Y10454944D01*
X5913374Y10451795D01*
X5900775Y10446969D01*
X5888939Y10440466D01*
X5878068Y10432440D01*
X5868365Y10423093D01*
X5859983Y10412476D01*
X5853125Y10400893D01*
X5847842Y10388447D01*
X5844286Y10375442D01*
X5842508Y10362031D01*
X5842508Y10348569D01*
X5844286Y10335158D01*
X5847842Y10322153D01*
X5853125Y10309707D01*
X5859983Y10298125D01*
X5868365Y10287508D01*
X5878068Y10278160D01*
X5888939Y10270134D01*
X5900775Y10263632D01*
X5913374Y10258806D01*
X5926480Y10255656D01*
G37*
G36*
X5647791Y9949078D02*
G01*
X5712815Y9949078D01*
X5709666Y9955682D01*
X5703265Y9965029D01*
X5695543Y9973360D01*
X5686653Y9980422D01*
X5676849Y9986111D01*
X5666282Y9990226D01*
X5655259Y9992766D01*
X5647791Y9993325D01*
G37*
G36*
X5465064Y9949078D02*
G01*
X5530088Y9949078D01*
X5530088Y9993325D01*
X5522620Y9992766D01*
X5511546Y9990226D01*
X5500979Y9986111D01*
X5491175Y9980422D01*
X5482336Y9973360D01*
X5474614Y9965029D01*
X5468213Y9955682D01*
G37*
G36*
X6055258Y9949078D02*
G01*
X6112814Y9949078D01*
X6109614Y9955682D01*
X6103264Y9965029D01*
X6095542Y9973360D01*
X6086652Y9980422D01*
X6076848Y9986111D01*
X6066282Y9990226D01*
X6055258Y9992766D01*
G37*
G36*
X5895035Y9949078D02*
G01*
X5952591Y9949078D01*
X5952591Y9992766D01*
X5941568Y9990226D01*
X5931001Y9986111D01*
X5921197Y9980422D01*
X5912307Y9973360D01*
X5904585Y9965029D01*
X5898184Y9955682D01*
G37*
G36*
X5368848Y9877094D02*
G01*
X5406339Y9877094D01*
X5406339Y9914686D01*
X5404002Y9913721D01*
X5394045Y9907778D01*
X5385054Y9900412D01*
X5377332Y9891725D01*
X5371033Y9881971D01*
G37*
G36*
X5647791Y8978138D02*
G01*
X5655259Y8978696D01*
X5666282Y8981236D01*
X5676849Y8985351D01*
X5686653Y8991041D01*
X5695543Y8998102D01*
X5703265Y9006433D01*
X5709666Y9015780D01*
X5712815Y9022384D01*
X5647791Y9022384D01*
G37*
G36*
X5530088Y8978138D02*
G01*
X5530088Y9022384D01*
X5450636Y9022384D01*
X5446471Y9023299D01*
X5443016Y9025839D01*
X5441340Y9028836D01*
X5441340Y9001099D01*
X5448757Y9004757D01*
X5458561Y9011666D01*
X5462219Y9013240D01*
X5466232Y9013342D01*
X5469940Y9011869D01*
X5472785Y9009075D01*
X5474614Y9006433D01*
X5482336Y8998102D01*
X5491175Y8991041D01*
X5501030Y8985351D01*
X5511546Y8981236D01*
X5522620Y8978696D01*
G37*
G36*
X5952591Y8978696D02*
G01*
X5952591Y9022384D01*
X5895035Y9022384D01*
X5898184Y9015780D01*
X5904585Y9006382D01*
X5912307Y8998102D01*
X5921197Y8991041D01*
X5931001Y8985351D01*
X5941568Y8981186D01*
G37*
G36*
X6055258Y8978696D02*
G01*
X6066282Y8981186D01*
X6076848Y8985351D01*
X6086652Y8991041D01*
X6095542Y8998102D01*
X6103264Y9006382D01*
X6109614Y9015780D01*
X6112814Y9022384D01*
X6055258Y9022384D01*
G37*
G36*
X5378653Y9001099D02*
G01*
X5378653Y9038640D01*
X5340908Y9038640D01*
X5346293Y9028734D01*
X5353354Y9019489D01*
X5361736Y9011462D01*
X5371236Y9004757D01*
G37*
G36*
X5530088Y9870694D02*
G01*
X5530088Y9886391D01*
X5469026Y9886391D01*
X5469026Y9877094D01*
X5520842Y9877094D01*
X5525109Y9876129D01*
X5528614Y9873488D01*
G37*
G36*
X5895035Y9085072D02*
G01*
X5952591Y9085072D01*
X5952591Y9128760D01*
X5941568Y9126220D01*
X5931001Y9122105D01*
X5921197Y9116415D01*
X5912307Y9109354D01*
X5904585Y9101023D01*
X5898184Y9091676D01*
G37*
G36*
X6055258Y9085072D02*
G01*
X6112814Y9085072D01*
X6109614Y9091676D01*
X6103264Y9101023D01*
X6095542Y9109354D01*
X6086652Y9116415D01*
X6076848Y9122105D01*
X6066282Y9126220D01*
X6055258Y9128760D01*
G37*
G36*
X5504840Y9085072D02*
G01*
X5530088Y9085072D01*
X5530088Y9129318D01*
X5522620Y9128760D01*
X5511546Y9126220D01*
X5501030Y9122105D01*
X5491175Y9116415D01*
X5485993Y9112300D01*
X5482234Y9110421D01*
X5478068Y9110218D01*
X5474106Y9111742D01*
X5471160Y9114739D01*
X5470347Y9115958D01*
X5462625Y9124645D01*
X5453634Y9132062D01*
X5443677Y9137954D01*
X5441340Y9138920D01*
X5441340Y9101328D01*
X5493156Y9101328D01*
X5497423Y9100362D01*
X5500928Y9097721D01*
X5502960Y9093860D01*
X5504586Y9087510D01*
G37*
G36*
X5647791Y9085072D02*
G01*
X5712815Y9085072D01*
X5709666Y9091676D01*
X5703265Y9101023D01*
X5695543Y9109354D01*
X5686653Y9116415D01*
X5676849Y9122105D01*
X5666079Y9126321D01*
X5662828Y9128404D01*
X5660542Y9131554D01*
X5659628Y9135313D01*
X5660186Y9139123D01*
X5662168Y9142476D01*
X5665216Y9144863D01*
X5669534Y9147048D01*
X5677509Y9152890D01*
X5684316Y9160052D01*
X5689904Y9168282D01*
X5693968Y9177274D01*
X5696458Y9186875D01*
X5697321Y9196730D01*
X5696458Y9206585D01*
X5693968Y9216186D01*
X5689904Y9225178D01*
X5684316Y9233408D01*
X5677509Y9240570D01*
X5669534Y9246412D01*
X5660694Y9250883D01*
X5651246Y9253778D01*
X5641390Y9255048D01*
X5631535Y9254642D01*
X5621832Y9252559D01*
X5612638Y9248851D01*
X5604205Y9243669D01*
X5596788Y9237116D01*
X5590590Y9229394D01*
X5585714Y9220758D01*
X5582462Y9211462D01*
X5580786Y9201658D01*
X5580786Y9191802D01*
X5582462Y9181998D01*
X5585714Y9172702D01*
X5590590Y9164066D01*
X5596788Y9156344D01*
X5604205Y9149791D01*
X5612638Y9144609D01*
X5621832Y9140901D01*
X5631535Y9138818D01*
X5638038Y9138564D01*
X5641797Y9137650D01*
X5644946Y9135414D01*
X5647029Y9132214D01*
X5647791Y9128404D01*
G37*
G36*
X5341112Y9101328D02*
G01*
X5378653Y9101328D01*
X5378653Y9138920D01*
X5376316Y9137954D01*
X5366359Y9132062D01*
X5357368Y9124645D01*
X5349646Y9115958D01*
X5343347Y9106204D01*
G37*
G36*
X3710990Y8184083D02*
G01*
X3724808Y8184997D01*
X3738422Y8187690D01*
X3751529Y8192160D01*
X3763924Y8198307D01*
X3775456Y8205978D01*
X3785870Y8215122D01*
X3795014Y8225536D01*
X3802684Y8237016D01*
X3808831Y8249462D01*
X3813251Y8262569D01*
X3815994Y8276183D01*
X3816858Y8290001D01*
X3815994Y8303818D01*
X3813251Y8317382D01*
X3808831Y8330488D01*
X3802684Y8342934D01*
X3795014Y8354466D01*
X3785870Y8364880D01*
X3775456Y8373973D01*
X3763924Y8381695D01*
X3751529Y8387791D01*
X3738422Y8392261D01*
X3724808Y8394954D01*
X3710990Y8395868D01*
X3697173Y8394954D01*
X3683609Y8392261D01*
X3670452Y8387791D01*
X3658057Y8381695D01*
X3646525Y8373973D01*
X3636111Y8364880D01*
X3626967Y8354466D01*
X3619296Y8342934D01*
X3613150Y8330488D01*
X3608730Y8317382D01*
X3606037Y8303818D01*
X3605123Y8290001D01*
X3606037Y8276183D01*
X3608730Y8262569D01*
X3613150Y8249462D01*
X3619296Y8237016D01*
X3626967Y8225536D01*
X3636111Y8215122D01*
X3646525Y8205978D01*
X3658057Y8198307D01*
X3670452Y8192160D01*
X3683609Y8187690D01*
X3697173Y8184997D01*
G37*
G36*
X4426864Y9155125D02*
G01*
X4426864Y9192869D01*
X4389272Y9192869D01*
X4392980Y9185452D01*
X4399635Y9175953D01*
X4407712Y9167571D01*
X4416958Y9160510D01*
G37*
G36*
X4489551Y9155328D02*
G01*
X4494428Y9157563D01*
X4504182Y9163862D01*
X4512868Y9171584D01*
X4520234Y9180576D01*
X4526178Y9190532D01*
X4527143Y9192869D01*
X4489551Y9192869D01*
G37*
G36*
X4489551Y9255556D02*
G01*
X4527143Y9255556D01*
X4526178Y9257893D01*
X4520234Y9267850D01*
X4512868Y9276842D01*
X4504182Y9284563D01*
X4494428Y9290862D01*
X4489551Y9293047D01*
G37*
G36*
X4389272Y9255556D02*
G01*
X4426864Y9255556D01*
X4426864Y9293250D01*
X4416958Y9287916D01*
X4407712Y9280855D01*
X4399635Y9272473D01*
X4392980Y9262973D01*
G37*
G36*
X6055258Y9842703D02*
G01*
X6066282Y9845192D01*
X6076848Y9849358D01*
X6086652Y9855047D01*
X6095542Y9862108D01*
X6103264Y9870389D01*
X6109614Y9879787D01*
X6112814Y9886391D01*
X6055258Y9886391D01*
G37*
G36*
X3926840Y9645142D02*
G01*
X3926840Y9682835D01*
X3889298Y9682835D01*
X3892956Y9675418D01*
X3899662Y9665919D01*
X3907688Y9657537D01*
X3916934Y9650526D01*
G37*
G36*
X3989527Y9645345D02*
G01*
X3994454Y9647529D01*
X4004208Y9653879D01*
X4012844Y9661601D01*
X4020261Y9670542D01*
X4026204Y9680549D01*
X4027119Y9682835D01*
X3989527Y9682835D01*
G37*
G36*
X5641390Y9716414D02*
G01*
X5651246Y9717684D01*
X5660694Y9720580D01*
X5669534Y9725050D01*
X5677509Y9730892D01*
X5684316Y9738055D01*
X5689904Y9746284D01*
X5693968Y9755276D01*
X5696458Y9764877D01*
X5697321Y9774732D01*
X5696458Y9784588D01*
X5693968Y9794189D01*
X5689904Y9803180D01*
X5684316Y9811410D01*
X5677509Y9818573D01*
X5669534Y9824415D01*
X5665216Y9826599D01*
X5662168Y9828987D01*
X5660186Y9832340D01*
X5659628Y9836150D01*
X5660542Y9839909D01*
X5662828Y9843058D01*
X5666079Y9845141D01*
X5676849Y9849358D01*
X5686653Y9855047D01*
X5695543Y9862108D01*
X5703265Y9870440D01*
X5709666Y9879787D01*
X5712815Y9886391D01*
X5647791Y9886391D01*
X5647791Y9843058D01*
X5647029Y9839248D01*
X5644946Y9836048D01*
X5641797Y9833813D01*
X5638038Y9832898D01*
X5631535Y9832644D01*
X5621832Y9830562D01*
X5612638Y9826853D01*
X5604205Y9821672D01*
X5596788Y9815118D01*
X5590590Y9807397D01*
X5585714Y9798761D01*
X5582462Y9789464D01*
X5580786Y9779660D01*
X5580786Y9769805D01*
X5582462Y9760000D01*
X5585714Y9750704D01*
X5590590Y9742068D01*
X5596788Y9734346D01*
X5604205Y9727793D01*
X5612638Y9722612D01*
X5621832Y9718903D01*
X5631535Y9716820D01*
G37*
G36*
X3989527Y9745573D02*
G01*
X4027119Y9745573D01*
X4026204Y9747859D01*
X4020261Y9757867D01*
X4012844Y9766808D01*
X4004208Y9774529D01*
X3994454Y9780879D01*
X3989527Y9783064D01*
G37*
G36*
X3889298Y9745573D02*
G01*
X3926840Y9745573D01*
X3926840Y9783267D01*
X3916934Y9777882D01*
X3907688Y9770872D01*
X3899662Y9762490D01*
X3892956Y9752990D01*
G37*
G36*
X5469026Y9776815D02*
G01*
X5476443Y9780524D01*
X5485942Y9787178D01*
X5494324Y9795256D01*
X5501386Y9804501D01*
X5506770Y9814407D01*
X5469026Y9814407D01*
G37*
G36*
X5406339Y9776815D02*
G01*
X5406339Y9814407D01*
X5368594Y9814407D01*
X5373979Y9804501D01*
X5381040Y9795256D01*
X5389422Y9787178D01*
X5398922Y9780524D01*
G37*
G36*
X5952591Y9842703D02*
G01*
X5952591Y9886391D01*
X5895035Y9886391D01*
X5898184Y9879787D01*
X5904585Y9870389D01*
X5912307Y9862108D01*
X5921197Y9855047D01*
X5931001Y9849358D01*
X5941568Y9845192D01*
G37*

%LPD*%
D10*
X408993Y8289983D02*
G01*
X1958990Y9839980D01*
X3102411Y9839980D01*
X3138195Y9804196D01*
X3238195Y9798202D02*
G01*
X3119973Y9679980D01*
X2349995Y9679980D01*
X2279995Y9749980D01*
X2019995Y9749980D01*
X662993Y8392977D01*
X662993Y8289983D01*
X3289985Y9759975D02*
G01*
X3139991Y9609980D01*
X2309997Y9609980D01*
X2209998Y9509980D01*
X2049995Y9509980D01*
X2049995Y9422983D01*
X916993Y8289980D01*
X3340201Y9798202D02*
G01*
X3340201Y9730188D01*
X3169993Y9559980D01*
X2429995Y9559980D01*
X2429992Y9548977D01*
X1906041Y9025026D01*
X1865040Y9025026D01*
X1259997Y8419983D01*
X1259997Y8378987D01*
X1170993Y8289983D01*
X3389985Y9749967D02*
G01*
X3349980Y9749967D01*
X2289992Y8689980D01*
X1824992Y8689980D01*
X1424993Y8289980D01*
X3440175Y9798304D02*
G01*
X3440175Y9740137D01*
X2299970Y8599931D01*
X1989074Y8599931D01*
X1678939Y8290052D01*
X3539997Y9799980D02*
G01*
X3559992Y9779985D01*
X3559992Y9729980D01*
X3560063Y9729978D02*
G01*
X3539997Y9729978D01*
X3519931Y9709912D01*
X3519931Y9622789D01*
X2186940Y8290052D01*
X1932993Y8289980D02*
G01*
X1932993Y8322983D01*
X2149995Y8539980D01*
X2340000Y8539980D01*
X3489985Y9689965D01*
X3489985Y9759975D01*
G36*
X74996Y8369983D02*
G01*
X234995Y8369983D01*
X234995Y8209983D01*
X74996Y8209983D01*
G37*
D11*
G01*
X408990Y8289975D03*
G01*
X662990Y8289975D03*
G01*
X916990Y8289975D03*
G01*
X1170990Y8289975D03*
G01*
X1424990Y8289975D03*
G01*
X1678990Y8289975D03*
G01*
X1932990Y8289975D03*
G01*
X2186990Y8289975D03*
G01*
X2440990Y8289975D03*
G01*
X2694990Y8289975D03*
G01*
X2948990Y8289975D03*
G01*
X3202990Y8289975D03*
G01*
X3456990Y8289975D03*
G01*
X3710990Y8289975D03*
G01*
X3964990Y8289975D03*
D12*
G01*
X4458182Y9224213D03*
G01*
X3958183Y9714204D03*
G01*
X5409996Y9069984D03*
G01*
X5437682Y9845725D03*
D13*
G01*
X2714218Y10042220D03*
G01*
X2778201Y10044201D03*
G01*
X3078200Y10154208D03*
G01*
X4927676Y8651722D03*
G01*
X4827676Y8645728D03*
G01*
X4483684Y8649741D03*
G01*
X4768037Y8645956D03*
G01*
X5067681Y9405721D03*
G01*
X5067681Y9465716D03*
G01*
X5217668Y9405721D03*
G01*
X5217668Y9465716D03*
D14*
G01*
X3597986Y9673970D03*
G01*
X3539997Y9799980D03*
G01*
X3489985Y9759975D03*
G01*
X3440201Y9798202D03*
G01*
X3389985Y9749967D03*
G01*
X3340201Y9798202D03*
G01*
X3289985Y9759975D03*
G01*
X3238195Y9798202D03*
G01*
X3138195Y9804196D03*
G01*
X3090189Y9760204D03*
D15*
G01*
X5531993Y8427974D03*
D13*
G01*
X2238197Y9654209D03*
G01*
X2208199Y9194215D03*
G01*
X2208199Y9074200D03*
G01*
X2628188Y9464192D03*
G01*
X3881983Y8487994D03*
G01*
X3750005Y8495969D03*
G01*
X3410000Y8909989D03*
D15*
G01*
X2177084Y9604705D03*
G01*
X2685084Y10112705D03*
G01*
X2685084Y9096705D03*
G01*
X3701084Y9096705D03*
G01*
X4159986Y9039987D03*
G01*
X4717084Y9096705D03*
G01*
X-112801Y9984714D03*
G01*
X-112801Y9476714D03*
G01*
X-112801Y8968714D03*
G01*
X-105994Y8489975D03*
G01*
X395198Y10492714D03*
G01*
X395198Y9984714D03*
G01*
X395198Y9476714D03*
G01*
X395198Y8968714D03*
G01*
X402005Y8489975D03*
G01*
X903198Y10492714D03*
G01*
X903198Y9984714D03*
G01*
X903198Y9476714D03*
G01*
X903198Y8968714D03*
G01*
X910005Y8489975D03*
G01*
X1411198Y10492714D03*
G01*
X1411198Y9984714D03*
G01*
X1411198Y9476714D03*
G01*
X1411198Y8968714D03*
G01*
X1418005Y8489975D03*
G01*
X1919198Y10492714D03*
G01*
X1919198Y9984714D03*
G01*
X1919198Y9476714D03*
G01*
X1919198Y8968714D03*
G01*
X1926005Y8489975D03*
G01*
X2427198Y10492714D03*
G01*
X2935198Y10492714D03*
G01*
X2942005Y8489975D03*
G01*
X3443198Y10492714D03*
G01*
X3450005Y8489975D03*
G01*
X3951198Y9984714D03*
G01*
X4459198Y9984714D03*
G01*
X4967198Y10492714D03*
G01*
X4967198Y9984714D03*
G01*
X5475198Y10492714D03*
G01*
X5983198Y9476714D03*
G01*
X5983198Y8460714D03*
D12*
X4419841Y10399979D02*
G01*
X4399851Y10399979D01*
X4219943Y10399979D02*
G01*
X4199953Y10399979D01*
X4020096Y10399979D02*
G01*
X4000106Y10399979D01*
X3800043Y10359979D02*
G01*
X3800043Y10439979D01*
X4619929Y10359979D02*
G01*
X4619929Y10439979D01*
X5963925Y9053728D02*
G01*
X6043924Y9053728D01*
X5533941Y9917734D02*
G01*
X5643940Y9917734D01*
X5533941Y9053728D02*
G01*
X5643940Y9053728D01*
X5963925Y9917734D02*
G01*
X6043924Y9917734D01*
M02*
