G04 Layer: TopPasteMaskLayer*
G04 EasyEDA v6.5.9, 2022-08-17 00:45:25*
G04 3d046d26f260489bb0fd4f172441b01e,e2b945bbd7ed4cf1bff08b0f7bdd4537,10*
G04 Gerber Generator version 0.2*
G04 Scale: 100 percent, Rotated: No, Reflected: No *
G04 Dimensions in millimeters *
G04 leading zeros omitted , absolute positions ,4 integer and 5 decimal *
%FSLAX45Y45*%
%MOMM*%

%ADD10C,0.2700*%
%ADD11R,0.8000X0.8000*%
%ADD12R,1.5000X0.5000*%
%ADD13R,0.8350X0.3150*%
%ADD14R,1.5500X1.0000*%
%ADD15R,0.0105X1.0000*%

%LPD*%
G36*
X5355132Y10152837D02*
G01*
X5351119Y10148824D01*
X5351119Y10102850D01*
X5355132Y10098836D01*
X5405170Y10098836D01*
X5409184Y10102850D01*
X5409184Y10148824D01*
X5405170Y10152837D01*
G37*
G36*
X5270042Y10152837D02*
G01*
X5266080Y10148824D01*
X5266080Y10102850D01*
X5270042Y10098836D01*
X5320131Y10098836D01*
X5324144Y10102850D01*
X5324144Y10148824D01*
X5320131Y10152837D01*
G37*
G36*
X5655157Y8452713D02*
G01*
X5651195Y8448751D01*
X5651195Y8402726D01*
X5655157Y8398713D01*
X5705246Y8398713D01*
X5709259Y8402726D01*
X5709259Y8448751D01*
X5705246Y8452713D01*
G37*
G36*
X5570118Y8452713D02*
G01*
X5566105Y8448751D01*
X5566105Y8402726D01*
X5570118Y8398713D01*
X5620156Y8398713D01*
X5624169Y8402726D01*
X5624169Y8448751D01*
X5620156Y8452713D01*
G37*
G36*
X3859479Y8599982D02*
G01*
X3854500Y8592972D01*
X3854500Y8544966D01*
X3859479Y8539988D01*
X3904487Y8539988D01*
X3909466Y8544966D01*
X3909466Y8592972D01*
X3904487Y8599982D01*
G37*
G36*
X3859479Y8695994D02*
G01*
X3854500Y8690965D01*
X3854500Y8642959D01*
X3859479Y8636000D01*
X3904487Y8636000D01*
X3909466Y8642959D01*
X3909466Y8690965D01*
X3904487Y8695994D01*
G37*
G36*
X2724607Y10010038D02*
G01*
X2719628Y10005060D01*
X2719628Y9957054D01*
X2724607Y9950043D01*
X2769616Y9950043D01*
X2774594Y9957054D01*
X2774594Y10005060D01*
X2769616Y10010038D01*
G37*
G36*
X2724607Y9914026D02*
G01*
X2719628Y9907016D01*
X2719628Y9859060D01*
X2724607Y9854031D01*
X2769616Y9854031D01*
X2774594Y9859060D01*
X2774594Y9907016D01*
X2769616Y9914026D01*
G37*
G36*
X3839718Y9749840D02*
G01*
X3834688Y9742830D01*
X3834688Y9694824D01*
X3839718Y9689846D01*
X3884676Y9689846D01*
X3889705Y9694824D01*
X3889705Y9742830D01*
X3884676Y9749840D01*
G37*
G36*
X3839718Y9845802D02*
G01*
X3834688Y9840823D01*
X3834688Y9792817D01*
X3839718Y9785807D01*
X3884676Y9785807D01*
X3889705Y9792817D01*
X3889705Y9840823D01*
X3884676Y9845802D01*
G37*
G36*
X3036316Y10125506D02*
G01*
X3029305Y10120528D01*
X3029305Y10075519D01*
X3036316Y10070541D01*
X3084322Y10070541D01*
X3089300Y10075519D01*
X3089300Y10120528D01*
X3084322Y10125506D01*
G37*
G36*
X2938322Y10125506D02*
G01*
X2933293Y10120528D01*
X2933293Y10075519D01*
X2938322Y10070541D01*
X2986278Y10070541D01*
X2993288Y10075519D01*
X2993288Y10120528D01*
X2986278Y10125506D01*
G37*
G36*
X3727500Y8601964D02*
G01*
X3722471Y8595004D01*
X3722471Y8546998D01*
X3727500Y8541969D01*
X3772509Y8541969D01*
X3777487Y8546998D01*
X3777487Y8595004D01*
X3772509Y8601964D01*
G37*
G36*
X3727500Y8697976D02*
G01*
X3722471Y8692997D01*
X3722471Y8644991D01*
X3727500Y8637981D01*
X3772509Y8637981D01*
X3777487Y8644991D01*
X3777487Y8692997D01*
X3772509Y8697976D01*
G37*
G36*
X2259279Y9223451D02*
G01*
X2254250Y9218472D01*
X2254250Y9173464D01*
X2259279Y9168434D01*
X2307285Y9168434D01*
X2314244Y9173464D01*
X2314244Y9218472D01*
X2307285Y9223451D01*
G37*
G36*
X2357272Y9223451D02*
G01*
X2350262Y9218472D01*
X2350262Y9173464D01*
X2357272Y9168434D01*
X2405278Y9168434D01*
X2410256Y9173464D01*
X2410256Y9218472D01*
X2405278Y9223451D01*
G37*
G36*
X2259279Y9101074D02*
G01*
X2254250Y9096044D01*
X2254250Y9051036D01*
X2259279Y9046057D01*
X2307285Y9046057D01*
X2314244Y9051036D01*
X2314244Y9096044D01*
X2307285Y9101074D01*
G37*
G36*
X2357272Y9101074D02*
G01*
X2350262Y9096044D01*
X2350262Y9051036D01*
X2357272Y9046057D01*
X2405278Y9046057D01*
X2410256Y9051036D01*
X2410256Y9096044D01*
X2405278Y9101074D01*
G37*
G36*
X2783179Y8961678D02*
G01*
X2776220Y8956700D01*
X2776220Y8911691D01*
X2783179Y8906713D01*
X2831185Y8906713D01*
X2836214Y8911691D01*
X2836214Y8956700D01*
X2831185Y8961678D01*
G37*
G36*
X2685186Y8961678D02*
G01*
X2680208Y8956700D01*
X2680208Y8911691D01*
X2685186Y8906713D01*
X2733192Y8906713D01*
X2740202Y8911691D01*
X2740202Y8956700D01*
X2733192Y8961678D01*
G37*
G36*
X4905197Y8603742D02*
G01*
X4900168Y8598712D01*
X4900168Y8550757D01*
X4905197Y8543747D01*
X4950155Y8543747D01*
X4955184Y8550757D01*
X4955184Y8598712D01*
X4950155Y8603742D01*
G37*
G36*
X4905197Y8507730D02*
G01*
X4900168Y8500719D01*
X4900168Y8452713D01*
X4905197Y8447735D01*
X4950155Y8447735D01*
X4955184Y8452713D01*
X4955184Y8500719D01*
X4950155Y8507730D01*
G37*
G36*
X4459681Y8603640D02*
G01*
X4454652Y8598662D01*
X4454652Y8550656D01*
X4459681Y8543645D01*
X4504639Y8543645D01*
X4509668Y8550656D01*
X4509668Y8598662D01*
X4504639Y8603640D01*
G37*
G36*
X4459681Y8507628D02*
G01*
X4454652Y8500618D01*
X4454652Y8452662D01*
X4459681Y8447633D01*
X4504639Y8447633D01*
X4509668Y8452662D01*
X4509668Y8500618D01*
X4504639Y8507628D01*
G37*
G36*
X3257397Y10125049D02*
G01*
X3253384Y10121036D01*
X3253384Y10075011D01*
X3257397Y10070998D01*
X3307486Y10070998D01*
X3311448Y10075011D01*
X3311448Y10121036D01*
X3307486Y10125049D01*
G37*
G36*
X3172358Y10125049D02*
G01*
X3168345Y10121036D01*
X3168345Y10075011D01*
X3172358Y10070998D01*
X3222396Y10070998D01*
X3226409Y10075011D01*
X3226409Y10121036D01*
X3222396Y10125049D01*
G37*
G36*
X4240631Y9251188D02*
G01*
X4236618Y9247225D01*
X4236618Y9201200D01*
X4240631Y9197187D01*
X4290720Y9197187D01*
X4294682Y9201200D01*
X4294682Y9247225D01*
X4290720Y9251188D01*
G37*
G36*
X4325670Y9251188D02*
G01*
X4321708Y9247225D01*
X4321708Y9201200D01*
X4325670Y9197187D01*
X4375759Y9197187D01*
X4379772Y9201200D01*
X4379772Y9247225D01*
X4375759Y9251188D01*
G37*
G36*
X2379370Y8977223D02*
G01*
X2372969Y8970822D01*
X2372969Y8897213D01*
X2379370Y8890812D01*
X2429662Y8890812D01*
X2457094Y8920175D01*
X2457094Y8947861D01*
X2429662Y8977223D01*
G37*
G36*
X2536088Y8978341D02*
G01*
X2508656Y8948978D01*
X2508656Y8921343D01*
X2536088Y8891930D01*
X2586431Y8891930D01*
X2592832Y8898331D01*
X2592832Y8971940D01*
X2586431Y8978341D01*
G37*
G36*
X5473954Y9475724D02*
G01*
X5473954Y9445701D01*
X5588914Y9445701D01*
X5588914Y9475724D01*
G37*
G36*
X5473954Y9425736D02*
G01*
X5473954Y9395714D01*
X5588914Y9395714D01*
X5588914Y9425736D01*
G37*
G36*
X5473954Y9195714D02*
G01*
X5473954Y9135719D01*
X5588914Y9135719D01*
X5588914Y9195714D01*
G37*
G36*
X5473954Y9525711D02*
G01*
X5473954Y9495739D01*
X5588914Y9495739D01*
X5588914Y9525711D01*
G37*
G36*
X5473954Y9375749D02*
G01*
X5473954Y9345726D01*
X5588914Y9345726D01*
X5588914Y9375749D01*
G37*
G36*
X5473954Y9325711D02*
G01*
X5473954Y9295739D01*
X5588914Y9295739D01*
X5588914Y9325711D01*
G37*
G36*
X5473954Y9575698D02*
G01*
X5473954Y9545726D01*
X5588914Y9545726D01*
X5588914Y9575698D01*
G37*
G36*
X5473954Y9625736D02*
G01*
X5473954Y9595713D01*
X5588914Y9595713D01*
X5588914Y9625736D01*
G37*
G36*
X5473954Y9275724D02*
G01*
X5473954Y9215729D01*
X5588914Y9215729D01*
X5588914Y9275724D01*
G37*
G36*
X5473954Y9675723D02*
G01*
X5473954Y9645700D01*
X5588914Y9645700D01*
X5588914Y9675723D01*
G37*
G36*
X5473954Y9755733D02*
G01*
X5473954Y9695738D01*
X5588914Y9695738D01*
X5588914Y9755733D01*
G37*
G36*
X5473954Y9835743D02*
G01*
X5473954Y9775748D01*
X5588914Y9775748D01*
X5588914Y9835743D01*
G37*
G36*
X5533948Y9103715D02*
G01*
X5528970Y9103461D01*
X5524042Y9102750D01*
X5519216Y9101480D01*
X5514492Y9099804D01*
X5510022Y9097619D01*
X5505754Y9095028D01*
X5501792Y9092031D01*
X5498134Y9088628D01*
X5494832Y9084919D01*
X5491937Y9080855D01*
X5489448Y9076537D01*
X5487365Y9072016D01*
X5485790Y9067241D01*
X5484672Y9062415D01*
X5484063Y9057436D01*
X5483961Y9052458D01*
X5484317Y9047530D01*
X5485180Y9042603D01*
X5486552Y9037777D01*
X5488381Y9033154D01*
X5490616Y9028734D01*
X5493359Y9024518D01*
X5496458Y9020657D01*
X5499912Y9017050D01*
X5503722Y9013850D01*
X5507888Y9011056D01*
X5512257Y9008668D01*
X5516829Y9006738D01*
X5521604Y9005265D01*
X5526481Y9004300D01*
X5531459Y9003792D01*
X5643930Y9003741D01*
X5648909Y9003995D01*
X5653836Y9004706D01*
X5658662Y9005925D01*
X5663336Y9007652D01*
X5667857Y9009837D01*
X5672124Y9012428D01*
X5676087Y9015425D01*
X5679744Y9018828D01*
X5683046Y9022537D01*
X5685942Y9026601D01*
X5688431Y9030919D01*
X5690463Y9035440D01*
X5692089Y9040164D01*
X5693156Y9045041D01*
X5693816Y9049969D01*
X5693918Y9054947D01*
X5693562Y9059926D01*
X5692698Y9064853D01*
X5691327Y9069628D01*
X5689498Y9074302D01*
X5687263Y9078722D01*
X5684520Y9082887D01*
X5681421Y9086799D01*
X5677966Y9090355D01*
X5674106Y9093606D01*
X5669991Y9096400D01*
X5665622Y9098788D01*
X5661050Y9100718D01*
X5656275Y9102191D01*
X5651398Y9103156D01*
X5646420Y9103664D01*
G37*
G36*
X5533948Y9967722D02*
G01*
X5528970Y9967468D01*
X5524042Y9966756D01*
X5519216Y9965486D01*
X5514492Y9963810D01*
X5510022Y9961626D01*
X5505754Y9959035D01*
X5501792Y9956038D01*
X5498134Y9952634D01*
X5494832Y9948926D01*
X5491937Y9944862D01*
X5489448Y9940544D01*
X5487365Y9936022D01*
X5485790Y9931247D01*
X5484672Y9926421D01*
X5484063Y9921443D01*
X5483961Y9916464D01*
X5484317Y9911537D01*
X5485180Y9906609D01*
X5486552Y9901834D01*
X5488381Y9897160D01*
X5490616Y9892741D01*
X5493359Y9888524D01*
X5496458Y9884664D01*
X5499912Y9881057D01*
X5503722Y9877856D01*
X5507888Y9875062D01*
X5512257Y9872675D01*
X5516829Y9870744D01*
X5521604Y9869271D01*
X5526481Y9868306D01*
X5531459Y9867798D01*
X5643930Y9867747D01*
X5648909Y9868001D01*
X5653836Y9868712D01*
X5658662Y9869932D01*
X5663336Y9871659D01*
X5667857Y9873843D01*
X5672124Y9876434D01*
X5676087Y9879431D01*
X5679744Y9882835D01*
X5683046Y9886543D01*
X5685942Y9890607D01*
X5688431Y9894925D01*
X5690463Y9899446D01*
X5692089Y9904171D01*
X5693156Y9909048D01*
X5693816Y9913975D01*
X5693918Y9918954D01*
X5693562Y9923932D01*
X5692698Y9928860D01*
X5691327Y9933635D01*
X5689498Y9938308D01*
X5687263Y9942728D01*
X5684520Y9946894D01*
X5681421Y9950805D01*
X5677966Y9954361D01*
X5674106Y9957612D01*
X5669991Y9960406D01*
X5665622Y9962794D01*
X5661050Y9964724D01*
X5656275Y9966198D01*
X5651398Y9967163D01*
X5646420Y9967671D01*
G37*
G36*
X5963920Y9103715D02*
G01*
X5958941Y9103461D01*
X5954014Y9102750D01*
X5949188Y9101480D01*
X5944514Y9099804D01*
X5939993Y9097619D01*
X5935776Y9095028D01*
X5931763Y9092031D01*
X5928106Y9088628D01*
X5924854Y9084919D01*
X5921908Y9080855D01*
X5919419Y9076537D01*
X5917387Y9072016D01*
X5915812Y9067241D01*
X5914694Y9062415D01*
X5914085Y9057436D01*
X5913932Y9052458D01*
X5914288Y9047530D01*
X5915152Y9042603D01*
X5916523Y9037777D01*
X5918352Y9033154D01*
X5920638Y9028734D01*
X5923330Y9024518D01*
X5926429Y9020657D01*
X5929934Y9017050D01*
X5933744Y9013850D01*
X5937859Y9011056D01*
X5942228Y9008668D01*
X5946800Y9006738D01*
X5951575Y9005265D01*
X5956452Y9004300D01*
X5961430Y9003792D01*
X6043930Y9003741D01*
X6048908Y9003995D01*
X6053836Y9004706D01*
X6058662Y9005925D01*
X6063335Y9007652D01*
X6067806Y9009837D01*
X6072073Y9012428D01*
X6076035Y9015425D01*
X6079693Y9018828D01*
X6082995Y9022537D01*
X6085941Y9026601D01*
X6088430Y9030919D01*
X6090462Y9035440D01*
X6092037Y9040164D01*
X6093155Y9045041D01*
X6093764Y9049969D01*
X6093917Y9054947D01*
X6093510Y9059926D01*
X6092647Y9064853D01*
X6091326Y9069628D01*
X6089497Y9074302D01*
X6087211Y9078722D01*
X6084519Y9082887D01*
X6081420Y9086799D01*
X6077915Y9090355D01*
X6074105Y9093606D01*
X6069990Y9096400D01*
X6065621Y9098788D01*
X6060998Y9100718D01*
X6056274Y9102191D01*
X6051397Y9103156D01*
X6046419Y9103664D01*
G37*
G36*
X5963920Y9967722D02*
G01*
X5958941Y9967468D01*
X5954014Y9966756D01*
X5949188Y9965486D01*
X5944514Y9963810D01*
X5939993Y9961626D01*
X5935776Y9959035D01*
X5931763Y9956038D01*
X5928106Y9952634D01*
X5924854Y9948926D01*
X5921908Y9944862D01*
X5919419Y9940544D01*
X5917387Y9936022D01*
X5915812Y9931247D01*
X5914694Y9926421D01*
X5914085Y9921443D01*
X5913932Y9916464D01*
X5914288Y9911537D01*
X5915152Y9906609D01*
X5916523Y9901834D01*
X5918352Y9897160D01*
X5920638Y9892741D01*
X5923330Y9888524D01*
X5926429Y9884664D01*
X5929934Y9881057D01*
X5933744Y9877856D01*
X5937859Y9875062D01*
X5942228Y9872675D01*
X5946800Y9870744D01*
X5951575Y9869271D01*
X5956452Y9868306D01*
X5961430Y9867798D01*
X6043930Y9867747D01*
X6048908Y9868001D01*
X6053836Y9868712D01*
X6058662Y9869932D01*
X6063335Y9871659D01*
X6067806Y9873843D01*
X6072073Y9876434D01*
X6076035Y9879431D01*
X6079693Y9882835D01*
X6082995Y9886543D01*
X6085941Y9890607D01*
X6088430Y9894925D01*
X6090462Y9899446D01*
X6092037Y9904171D01*
X6093155Y9909048D01*
X6093764Y9913975D01*
X6093917Y9918954D01*
X6093510Y9923932D01*
X6092647Y9928860D01*
X6091326Y9933635D01*
X6089497Y9938308D01*
X6087211Y9942728D01*
X6084519Y9946894D01*
X6081420Y9950805D01*
X6077915Y9954361D01*
X6074105Y9957612D01*
X6069990Y9960406D01*
X6065621Y9962794D01*
X6060998Y9964724D01*
X6056274Y9966198D01*
X6051397Y9967163D01*
X6046419Y9967671D01*
G37*
D10*
X2901805Y9776129D02*
G01*
X2778805Y9776129D01*
X2901805Y9726117D02*
G01*
X2778805Y9726117D01*
X2901805Y9676129D02*
G01*
X2778805Y9676129D01*
X2901805Y9626117D02*
G01*
X2778805Y9626117D01*
X2901805Y9576130D02*
G01*
X2778805Y9576130D01*
X2901805Y9526117D02*
G01*
X2778805Y9526117D01*
X2901805Y9476130D02*
G01*
X2778805Y9476130D01*
X2901805Y9426117D02*
G01*
X2778805Y9426117D01*
X2901805Y9376130D02*
G01*
X2778805Y9376130D01*
X2901805Y9326118D02*
G01*
X2778805Y9326118D01*
X2901805Y9276130D02*
G01*
X2778805Y9276130D01*
X2901805Y9226118D02*
G01*
X2778805Y9226118D01*
X2990291Y9137632D02*
G01*
X2990291Y9014630D01*
X3040303Y9137632D02*
G01*
X3040303Y9014630D01*
X3090290Y9137632D02*
G01*
X3090290Y9014630D01*
X3140303Y9137632D02*
G01*
X3140303Y9014630D01*
X3190290Y9137632D02*
G01*
X3190290Y9014630D01*
X3240303Y9137632D02*
G01*
X3240303Y9014630D01*
X3290290Y9137632D02*
G01*
X3290290Y9014630D01*
X3340303Y9137632D02*
G01*
X3340303Y9014630D01*
X3390290Y9137632D02*
G01*
X3390290Y9014630D01*
X3440302Y9137632D02*
G01*
X3440302Y9014630D01*
X3490290Y9137632D02*
G01*
X3490290Y9014630D01*
X3540302Y9137632D02*
G01*
X3540302Y9014630D01*
X3751790Y9226118D02*
G01*
X3628791Y9226118D01*
X3751790Y9276130D02*
G01*
X3628791Y9276130D01*
X3751790Y9326118D02*
G01*
X3628791Y9326118D01*
X3751790Y9376130D02*
G01*
X3628791Y9376130D01*
X3751790Y9426117D02*
G01*
X3628791Y9426117D01*
X3751790Y9476130D02*
G01*
X3628791Y9476130D01*
X3751790Y9526117D02*
G01*
X3628791Y9526117D01*
X3751790Y9576130D02*
G01*
X3628791Y9576130D01*
X3751790Y9626117D02*
G01*
X3628791Y9626117D01*
X3751790Y9676129D02*
G01*
X3628791Y9676129D01*
X3751790Y9726117D02*
G01*
X3628791Y9726117D01*
X3751790Y9776129D02*
G01*
X3628791Y9776129D01*
X3540302Y9987617D02*
G01*
X3540302Y9864615D01*
X3490290Y9987617D02*
G01*
X3490290Y9864615D01*
X3440302Y9987617D02*
G01*
X3440302Y9864615D01*
X3390290Y9987617D02*
G01*
X3390290Y9864615D01*
X3340303Y9987617D02*
G01*
X3340303Y9864615D01*
X3290290Y9987617D02*
G01*
X3290290Y9864615D01*
X3240303Y9987617D02*
G01*
X3240303Y9864615D01*
X3190290Y9987617D02*
G01*
X3190290Y9864615D01*
X3140303Y9987617D02*
G01*
X3140303Y9864615D01*
X3090290Y9987617D02*
G01*
X3090290Y9864615D01*
X3040303Y9987617D02*
G01*
X3040303Y9864615D01*
X2990291Y9987617D02*
G01*
X2990291Y9864615D01*
D11*
G01*
X5552516Y10125837D03*
G01*
X5722696Y10125837D03*
D12*
G01*
X2338197Y9774199D03*
G01*
X2338197Y9654209D03*
G01*
X2338197Y9534220D03*
D11*
G01*
X5677865Y8595740D03*
G01*
X5507685Y8595740D03*
G36*
X5095679Y9556234D02*
G01*
X5195679Y9556234D01*
X5195679Y9501233D01*
X5095679Y9501233D01*
G37*
G36*
X5095679Y9461238D02*
G01*
X5195679Y9461238D01*
X5195679Y9406237D01*
X5095679Y9406237D01*
G37*
G36*
X5095679Y9366242D02*
G01*
X5195679Y9366242D01*
X5195679Y9311241D01*
X5095679Y9311241D01*
G37*
G36*
X4815669Y9366242D02*
G01*
X4915669Y9366242D01*
X4915669Y9311241D01*
X4815669Y9311241D01*
G37*
G36*
X4815669Y9461238D02*
G01*
X4915669Y9461238D01*
X4915669Y9406237D01*
X4815669Y9406237D01*
G37*
G36*
X4815669Y9556234D02*
G01*
X4915669Y9556234D01*
X4915669Y9501233D01*
X4815669Y9501233D01*
G37*
G01*
X4113275Y9224213D03*
G01*
X3943095Y9224213D03*
D13*
G01*
X4795011Y8473312D03*
G01*
X4795011Y8538337D03*
G01*
X4795011Y8603335D03*
G01*
X4626508Y8603335D03*
G01*
X4626508Y8473312D03*
D14*
G01*
X5227675Y9695738D03*
G01*
X5227675Y9895738D03*
G36*
X5637674Y8913230D02*
G01*
X5737674Y8913230D01*
X5737674Y8758229D01*
X5637674Y8758229D01*
G37*
G36*
X5437675Y8913230D02*
G01*
X5537674Y8913230D01*
X5537674Y8758229D01*
X5437675Y8758229D01*
G37*
M02*
