G04 Layer: TopSolderMaskLayer*
G04 EasyEDA v6.5.9, 2022-08-17 00:45:25*
G04 3d046d26f260489bb0fd4f172441b01e,e2b945bbd7ed4cf1bff08b0f7bdd4537,10*
G04 Gerber Generator version 0.2*
G04 Scale: 100 percent, Rotated: No, Reflected: No *
G04 Dimensions in millimeters *
G04 leading zeros omitted , absolute positions ,4 integer and 5 decimal *
%FSLAX45Y45*%
%MOMM*%

%ADD10C,2.0000*%
%ADD11C,1.1016*%
%ADD12C,0.3700*%
%ADD13R,1.2516X0.4016*%
%ADD14C,1.7016*%
%ADD15C,0.7000*%
%ADD16C,0.0160*%

%LPD*%
G36*
X470611Y9966401D02*
G01*
X465124Y9966198D01*
X459892Y9965537D01*
X454812Y9964470D01*
X449935Y9962997D01*
X445262Y9961118D01*
X440791Y9958832D01*
X436575Y9956190D01*
X432612Y9953142D01*
X428853Y9949738D01*
X425399Y9945979D01*
X422198Y9941864D01*
X419303Y9937394D01*
X416712Y9932568D01*
X414426Y9927386D01*
X412496Y9921900D01*
X410819Y9916109D01*
X409549Y9910013D01*
X408635Y9903612D01*
X408025Y9896906D01*
X407873Y9889947D01*
X425145Y9889947D01*
X425348Y9896906D01*
X425958Y9903510D01*
X426974Y9909759D01*
X428345Y9915652D01*
X430123Y9921138D01*
X432257Y9926218D01*
X434746Y9930841D01*
X437591Y9935108D01*
X440690Y9938867D01*
X444144Y9942169D01*
X447903Y9945014D01*
X451916Y9947351D01*
X456184Y9949230D01*
X460756Y9950551D01*
X465582Y9951364D01*
X470611Y9951669D01*
X475640Y9951364D01*
X480517Y9950551D01*
X485089Y9949230D01*
X489407Y9947351D01*
X493471Y9945014D01*
X497230Y9942169D01*
X500684Y9938867D01*
X503834Y9935108D01*
X506679Y9930841D01*
X509117Y9926218D01*
X511301Y9921138D01*
X513080Y9915652D01*
X514451Y9909759D01*
X515467Y9903510D01*
X516077Y9896906D01*
X516331Y9889947D01*
X516077Y9882936D01*
X515467Y9876282D01*
X514451Y9869982D01*
X513080Y9864039D01*
X511301Y9858502D01*
X509117Y9853320D01*
X506679Y9848596D01*
X503834Y9844278D01*
X500684Y9840417D01*
X497230Y9837013D01*
X493471Y9834067D01*
X489407Y9831628D01*
X485089Y9829749D01*
X480517Y9828326D01*
X475640Y9827463D01*
X470611Y9827209D01*
X465582Y9827463D01*
X460756Y9828326D01*
X456184Y9829749D01*
X451916Y9831628D01*
X447903Y9834067D01*
X444144Y9837013D01*
X440690Y9840417D01*
X437591Y9844278D01*
X434746Y9848596D01*
X432257Y9853320D01*
X430123Y9858502D01*
X428345Y9864039D01*
X426974Y9869982D01*
X425958Y9876282D01*
X425348Y9882936D01*
X425145Y9889947D01*
X407873Y9889947D01*
X408025Y9882936D01*
X408635Y9876231D01*
X409549Y9869779D01*
X410819Y9863632D01*
X412496Y9857790D01*
X414426Y9852253D01*
X416712Y9847021D01*
X419303Y9842144D01*
X422198Y9837623D01*
X425399Y9833406D01*
X428853Y9829546D01*
X432612Y9826040D01*
X436575Y9822942D01*
X440791Y9820249D01*
X445262Y9817912D01*
X449935Y9815982D01*
X454812Y9814458D01*
X459892Y9813340D01*
X465124Y9812680D01*
X470611Y9812477D01*
X476046Y9812680D01*
X481380Y9813340D01*
X486460Y9814458D01*
X491388Y9815982D01*
X496062Y9817912D01*
X500532Y9820249D01*
X504799Y9822942D01*
X508762Y9826040D01*
X512521Y9829546D01*
X515975Y9833406D01*
X519176Y9837623D01*
X522071Y9842144D01*
X524713Y9847021D01*
X526999Y9852253D01*
X528929Y9857790D01*
X530606Y9863632D01*
X531876Y9869779D01*
X532841Y9876231D01*
X533400Y9882936D01*
X533603Y9889947D01*
X533400Y9896906D01*
X532841Y9903612D01*
X531876Y9910013D01*
X530606Y9916109D01*
X528929Y9921900D01*
X526999Y9927386D01*
X524713Y9932568D01*
X522071Y9937394D01*
X519176Y9941864D01*
X515975Y9945979D01*
X512521Y9949738D01*
X508762Y9953142D01*
X504799Y9956190D01*
X500532Y9958832D01*
X496062Y9961118D01*
X491388Y9962997D01*
X486460Y9964470D01*
X481380Y9965537D01*
X476046Y9966198D01*
G37*
G36*
X-69138Y9963861D02*
G01*
X-69138Y9949891D01*
X-34086Y9949891D01*
X-27584Y9949637D01*
X-21437Y9948875D01*
X-15747Y9947605D01*
X-10515Y9945878D01*
X-5689Y9943642D01*
X-1320Y9940950D01*
X2692Y9937800D01*
X6197Y9934194D01*
X9347Y9930130D01*
X12039Y9925659D01*
X14325Y9920732D01*
X16205Y9915398D01*
X17627Y9909606D01*
X18643Y9903460D01*
X19304Y9896906D01*
X19507Y9889947D01*
X19304Y9883038D01*
X18643Y9876434D01*
X17627Y9870236D01*
X16205Y9864394D01*
X14325Y9858959D01*
X12039Y9853930D01*
X9347Y9849307D01*
X6197Y9845141D01*
X2692Y9841382D01*
X-1320Y9838131D01*
X-5689Y9835286D01*
X-10515Y9832949D01*
X-15747Y9831120D01*
X-21437Y9829800D01*
X-27584Y9828987D01*
X-34086Y9828733D01*
X-52374Y9828733D01*
X-52374Y9949891D01*
X-69138Y9949891D01*
X-69138Y9815017D01*
X-32054Y9815017D01*
X-25450Y9815220D01*
X-19151Y9815830D01*
X-13208Y9816896D01*
X-7569Y9818319D01*
X-2235Y9820148D01*
X2743Y9822383D01*
X7366Y9824974D01*
X11684Y9827920D01*
X15646Y9831273D01*
X19304Y9834930D01*
X22606Y9838994D01*
X25552Y9843363D01*
X28143Y9848088D01*
X30429Y9853168D01*
X32359Y9858502D01*
X33934Y9864191D01*
X35153Y9870186D01*
X36068Y9876485D01*
X36576Y9883089D01*
X36779Y9889947D01*
X36576Y9896805D01*
X36068Y9903358D01*
X35153Y9909606D01*
X33934Y9915550D01*
X32359Y9921189D01*
X30429Y9926523D01*
X28143Y9931501D01*
X25501Y9936124D01*
X22555Y9940442D01*
X19253Y9944404D01*
X15595Y9948062D01*
X11582Y9951313D01*
X7213Y9954209D01*
X2540Y9956698D01*
X-2438Y9958882D01*
X-7823Y9960660D01*
X-13512Y9962032D01*
X-19558Y9963048D01*
X-25908Y9963658D01*
X-32562Y9963861D01*
G37*
G36*
X69545Y9963861D02*
G01*
X69545Y9815017D01*
X156413Y9815017D01*
X156413Y9829241D01*
X86309Y9829241D01*
X86309Y9886391D01*
X143459Y9886391D01*
X143459Y9900615D01*
X86309Y9900615D01*
X86309Y9949637D01*
X154381Y9949637D01*
X154381Y9963861D01*
G37*
G36*
X167843Y9963861D02*
G01*
X215595Y9815017D01*
X234899Y9815017D01*
X282397Y9963861D01*
X265379Y9963861D01*
X226009Y9832543D01*
X225247Y9832543D01*
X221183Y9845141D01*
X214223Y9868966D01*
X185623Y9963861D01*
G37*
G36*
X617677Y9927539D02*
G01*
X612140Y9927132D01*
X606907Y9926066D01*
X602030Y9924338D01*
X597408Y9922052D01*
X592988Y9919258D01*
X588721Y9916058D01*
X584606Y9912553D01*
X580593Y9908743D01*
X580085Y9908743D01*
X578307Y9924745D01*
X564845Y9924745D01*
X564845Y9815017D01*
X581355Y9815017D01*
X581355Y9895281D01*
X585470Y9899396D01*
X589432Y9903002D01*
X593242Y9906050D01*
X596950Y9908540D01*
X600659Y9910521D01*
X604469Y9911943D01*
X608431Y9912756D01*
X612597Y9913061D01*
X617880Y9912604D01*
X622401Y9911283D01*
X626160Y9909048D01*
X629208Y9905796D01*
X631545Y9901580D01*
X633171Y9896348D01*
X634085Y9889998D01*
X634441Y9882581D01*
X634441Y9815017D01*
X651205Y9815017D01*
X651205Y9884613D01*
X650951Y9891369D01*
X650290Y9897567D01*
X649173Y9903206D01*
X647547Y9908286D01*
X645515Y9912756D01*
X642975Y9916617D01*
X639978Y9919970D01*
X636524Y9922662D01*
X632561Y9924796D01*
X628091Y9926320D01*
X623112Y9927234D01*
G37*
G36*
X728421Y9927539D02*
G01*
X723646Y9927285D01*
X719023Y9926523D01*
X714451Y9925253D01*
X710031Y9923526D01*
X705764Y9921341D01*
X701700Y9918649D01*
X697890Y9915550D01*
X694385Y9912045D01*
X691134Y9908082D01*
X688187Y9903764D01*
X685647Y9898989D01*
X683463Y9893909D01*
X681736Y9888423D01*
X680466Y9882581D01*
X679933Y9878517D01*
X695655Y9878517D01*
X697026Y9886442D01*
X699414Y9893503D01*
X702716Y9899599D01*
X706780Y9904679D01*
X711504Y9908692D01*
X716737Y9911638D01*
X722426Y9913467D01*
X728421Y9914077D01*
X734822Y9913518D01*
X740460Y9911791D01*
X745337Y9908997D01*
X749401Y9905034D01*
X752602Y9900005D01*
X754938Y9893909D01*
X756361Y9886746D01*
X756869Y9878517D01*
X679933Y9878517D01*
X679653Y9876383D01*
X679399Y9869881D01*
X679653Y9863277D01*
X680415Y9857028D01*
X681685Y9851186D01*
X683463Y9845700D01*
X685596Y9840569D01*
X688238Y9835845D01*
X691184Y9831527D01*
X694537Y9827666D01*
X698246Y9824161D01*
X702259Y9821113D01*
X706526Y9818522D01*
X711098Y9816388D01*
X715873Y9814661D01*
X720902Y9813442D01*
X726084Y9812731D01*
X731469Y9812477D01*
X736955Y9812680D01*
X742137Y9813340D01*
X747014Y9814407D01*
X751535Y9815779D01*
X755802Y9817455D01*
X759866Y9819335D01*
X767283Y9823653D01*
X761187Y9834575D01*
X754888Y9830816D01*
X748284Y9828022D01*
X741172Y9826294D01*
X733501Y9825685D01*
X728116Y9825990D01*
X723087Y9827006D01*
X718413Y9828580D01*
X714146Y9830816D01*
X710234Y9833559D01*
X706780Y9836861D01*
X703732Y9840671D01*
X701192Y9844938D01*
X699058Y9849662D01*
X697484Y9854844D01*
X696417Y9860381D01*
X695909Y9866325D01*
X770839Y9866325D01*
X771398Y9870795D01*
X771601Y9876231D01*
X771245Y9883902D01*
X770280Y9891064D01*
X768705Y9897618D01*
X766470Y9903612D01*
X763676Y9909048D01*
X760272Y9913772D01*
X756310Y9917887D01*
X751789Y9921290D01*
X746709Y9923983D01*
X741121Y9925913D01*
X735025Y9927132D01*
G37*
G36*
X285445Y9798507D02*
G01*
X285445Y9787077D01*
X393141Y9787077D01*
X393141Y9798507D01*
G37*
D10*
X79951Y10599978D02*
G01*
X5880039Y10599978D01*
X6184839Y10295178D02*
G01*
X6184839Y8030009D01*
X-220017Y8030009D01*
X-220030Y8030034D02*
G01*
X-220030Y8300008D01*
X-220055Y8220039D02*
G01*
X-220055Y10300035D01*
D11*
X4419841Y10399979D02*
G01*
X4399851Y10399979D01*
X4219943Y10399979D02*
G01*
X4199953Y10399979D01*
X4020096Y10399979D02*
G01*
X4000106Y10399979D01*
X3800043Y10359979D02*
G01*
X3800043Y10439979D01*
X4619929Y10359979D02*
G01*
X4619929Y10439979D01*
D12*
X2901805Y9776129D02*
G01*
X2778805Y9776129D01*
X2901805Y9726117D02*
G01*
X2778805Y9726117D01*
X2901805Y9676129D02*
G01*
X2778805Y9676129D01*
X2901805Y9626117D02*
G01*
X2778805Y9626117D01*
X2901805Y9576130D02*
G01*
X2778805Y9576130D01*
X2901805Y9526117D02*
G01*
X2778805Y9526117D01*
X2901805Y9476130D02*
G01*
X2778805Y9476130D01*
X2901805Y9426117D02*
G01*
X2778805Y9426117D01*
X2901805Y9376130D02*
G01*
X2778805Y9376130D01*
X2901805Y9326118D02*
G01*
X2778805Y9326118D01*
X2901805Y9276130D02*
G01*
X2778805Y9276130D01*
X2901805Y9226118D02*
G01*
X2778805Y9226118D01*
X2990291Y9137632D02*
G01*
X2990291Y9014630D01*
X3040303Y9137632D02*
G01*
X3040303Y9014630D01*
X3090290Y9137632D02*
G01*
X3090290Y9014630D01*
X3140303Y9137632D02*
G01*
X3140303Y9014630D01*
X3190290Y9137632D02*
G01*
X3190290Y9014630D01*
X3240303Y9137632D02*
G01*
X3240303Y9014630D01*
X3290290Y9137632D02*
G01*
X3290290Y9014630D01*
X3340303Y9137632D02*
G01*
X3340303Y9014630D01*
X3390290Y9137632D02*
G01*
X3390290Y9014630D01*
X3440302Y9137632D02*
G01*
X3440302Y9014630D01*
X3490290Y9137632D02*
G01*
X3490290Y9014630D01*
X3540302Y9137632D02*
G01*
X3540302Y9014630D01*
X3751790Y9226118D02*
G01*
X3628791Y9226118D01*
X3751790Y9276130D02*
G01*
X3628791Y9276130D01*
X3751790Y9326118D02*
G01*
X3628791Y9326118D01*
X3751790Y9376130D02*
G01*
X3628791Y9376130D01*
X3751790Y9426117D02*
G01*
X3628791Y9426117D01*
X3751790Y9476130D02*
G01*
X3628791Y9476130D01*
X3751790Y9526117D02*
G01*
X3628791Y9526117D01*
X3751790Y9576130D02*
G01*
X3628791Y9576130D01*
X3751790Y9626117D02*
G01*
X3628791Y9626117D01*
X3751790Y9676129D02*
G01*
X3628791Y9676129D01*
X3751790Y9726117D02*
G01*
X3628791Y9726117D01*
X3751790Y9776129D02*
G01*
X3628791Y9776129D01*
X3540302Y9987617D02*
G01*
X3540302Y9864615D01*
X3490290Y9987617D02*
G01*
X3490290Y9864615D01*
X3440302Y9987617D02*
G01*
X3440302Y9864615D01*
X3390290Y9987617D02*
G01*
X3390290Y9864615D01*
X3340303Y9987617D02*
G01*
X3340303Y9864615D01*
X3290290Y9987617D02*
G01*
X3290290Y9864615D01*
X3240303Y9987617D02*
G01*
X3240303Y9864615D01*
X3190290Y9987617D02*
G01*
X3190290Y9864615D01*
X3140303Y9987617D02*
G01*
X3140303Y9864615D01*
X3090290Y9987617D02*
G01*
X3090290Y9864615D01*
X3040303Y9987617D02*
G01*
X3040303Y9864615D01*
X2990291Y9987617D02*
G01*
X2990291Y9864615D01*
D11*
X5963925Y9053728D02*
G01*
X6043924Y9053728D01*
X5533941Y9917734D02*
G01*
X5643940Y9917734D01*
X5533941Y9053728D02*
G01*
X5643940Y9053728D01*
X5963925Y9917734D02*
G01*
X6043924Y9917734D01*
G36*
X5507481Y10080752D02*
G01*
X5507481Y10170921D01*
X5597652Y10170921D01*
X5597652Y10080752D01*
G37*
G36*
X5677661Y10080752D02*
G01*
X5677661Y10170921D01*
X5767831Y10170921D01*
X5767831Y10080752D01*
G37*
G36*
X5347461Y10093705D02*
G01*
X5347461Y10157968D01*
X5414263Y10157968D01*
X5414263Y10093705D01*
G37*
G36*
X5261102Y10093705D02*
G01*
X5261102Y10157968D01*
X5327650Y10157968D01*
X5327650Y10093705D01*
G37*
G36*
X2258313Y9744202D02*
G01*
X2258313Y9804145D01*
X2418079Y9804145D01*
X2418079Y9744202D01*
G37*
G36*
X2258313Y9624313D02*
G01*
X2258313Y9684258D01*
X2418079Y9684258D01*
X2418079Y9624313D01*
G37*
G36*
X2258313Y9504171D02*
G01*
X2258313Y9564115D01*
X2418079Y9564115D01*
X2418079Y9504171D01*
G37*
G36*
X5632704Y8550655D02*
G01*
X5632704Y8640826D01*
X5722874Y8640826D01*
X5722874Y8550655D01*
G37*
G36*
X5462524Y8550655D02*
G01*
X5462524Y8640826D01*
X5552693Y8640826D01*
X5552693Y8550655D01*
G37*
G36*
X5647690Y8393684D02*
G01*
X5647690Y8457692D01*
X5714238Y8457692D01*
X5714238Y8393684D01*
G37*
G36*
X5561075Y8393684D02*
G01*
X5561075Y8457692D01*
X5627877Y8457692D01*
X5627877Y8393684D01*
G37*
G36*
X3849877Y8627871D02*
G01*
X3849877Y8717026D01*
X3914140Y8717026D01*
X3914140Y8627871D01*
G37*
G36*
X3849877Y8518905D02*
G01*
X3849877Y8608060D01*
X3914140Y8608060D01*
X3914140Y8518905D01*
G37*
G36*
X2715006Y9832847D02*
G01*
X2715006Y9922002D01*
X2779268Y9922002D01*
X2779268Y9832847D01*
G37*
G36*
X2715006Y9942068D02*
G01*
X2715006Y10031221D01*
X2779268Y10031221D01*
X2779268Y9942068D01*
G37*
G36*
X3830065Y9777729D02*
G01*
X3830065Y9866884D01*
X3894327Y9866884D01*
X3894327Y9777729D01*
G37*
G36*
X3830065Y9668763D02*
G01*
X3830065Y9757918D01*
X3894327Y9757918D01*
X3894327Y9668763D01*
G37*
G36*
X2912109Y10066020D02*
G01*
X2912109Y10130028D01*
X3001263Y10130028D01*
X3001263Y10066020D01*
G37*
G36*
X3021329Y10066020D02*
G01*
X3021329Y10130028D01*
X3110484Y10130028D01*
X3110484Y10066020D01*
G37*
G36*
X3717797Y8629904D02*
G01*
X3717797Y8719058D01*
X3782059Y8719058D01*
X3782059Y8629904D01*
G37*
G36*
X3717797Y8520937D02*
G01*
X3717797Y8610092D01*
X3782059Y8610092D01*
X3782059Y8520937D01*
G37*
G36*
X2342134Y9163812D02*
G01*
X2342134Y9228074D01*
X2431288Y9228074D01*
X2431288Y9163812D01*
G37*
G36*
X2233168Y9163812D02*
G01*
X2233168Y9228074D01*
X2322322Y9228074D01*
X2322322Y9163812D01*
G37*
G36*
X2342134Y9041384D02*
G01*
X2342134Y9105645D01*
X2431288Y9105645D01*
X2431288Y9041384D01*
G37*
G36*
X2233168Y9041384D02*
G01*
X2233168Y9105645D01*
X2322322Y9105645D01*
X2322322Y9041384D01*
G37*
G36*
X2659125Y8902192D02*
G01*
X2659125Y8966200D01*
X2748279Y8966200D01*
X2748279Y8902192D01*
G37*
G36*
X2768091Y8902192D02*
G01*
X2768091Y8966200D01*
X2857245Y8966200D01*
X2857245Y8902192D01*
G37*
G36*
X4895595Y8426704D02*
G01*
X4895595Y8515858D01*
X4959858Y8515858D01*
X4959858Y8426704D01*
G37*
G36*
X4895595Y8535670D02*
G01*
X4895595Y8624824D01*
X4959858Y8624824D01*
X4959858Y8535670D01*
G37*
G36*
X4450079Y8426450D02*
G01*
X4450079Y8515604D01*
X4514341Y8515604D01*
X4514341Y8426450D01*
G37*
G36*
X4450079Y8535670D02*
G01*
X4450079Y8624824D01*
X4514341Y8624824D01*
X4514341Y8535670D01*
G37*
G36*
X5090668Y9496044D02*
G01*
X5090668Y9561321D01*
X5200650Y9561321D01*
X5200650Y9496044D01*
G37*
G36*
X5090668Y9401047D02*
G01*
X5090668Y9466326D01*
X5200650Y9466326D01*
X5200650Y9401047D01*
G37*
G36*
X5090668Y9306052D02*
G01*
X5090668Y9371329D01*
X5200650Y9371329D01*
X5200650Y9306052D01*
G37*
G36*
X4810506Y9306052D02*
G01*
X4810506Y9371329D01*
X4920741Y9371329D01*
X4920741Y9306052D01*
G37*
G36*
X4810506Y9401047D02*
G01*
X4810506Y9466326D01*
X4920741Y9466326D01*
X4920741Y9401047D01*
G37*
G36*
X4810506Y9496044D02*
G01*
X4810506Y9561321D01*
X4920741Y9561321D01*
X4920741Y9496044D01*
G37*
G36*
X4068318Y9179052D02*
G01*
X4068318Y9269221D01*
X4158488Y9269221D01*
X4158488Y9179052D01*
G37*
G36*
X3898138Y9179052D02*
G01*
X3898138Y9269221D01*
X3988308Y9269221D01*
X3988308Y9179052D01*
G37*
G36*
X3249929Y10066020D02*
G01*
X3249929Y10130028D01*
X3316477Y10130028D01*
X3316477Y10066020D01*
G37*
G36*
X3163315Y10066020D02*
G01*
X3163315Y10130028D01*
X3229863Y10130028D01*
X3229863Y10066020D01*
G37*
G36*
X4231640Y9192005D02*
G01*
X4231640Y9256268D01*
X4298188Y9256268D01*
X4298188Y9192005D01*
G37*
G36*
X4318000Y9192005D02*
G01*
X4318000Y9256268D01*
X4384802Y9256268D01*
X4384802Y9192005D01*
G37*
G36*
X2367279Y8885174D02*
G01*
X2367279Y8981947D01*
X2457450Y8981947D01*
X2457450Y8885174D01*
G37*
G36*
X2507234Y8885174D02*
G01*
X2507234Y8981947D01*
X2597404Y8981947D01*
X2597404Y8885174D01*
G37*
G36*
X4748275Y8452612D02*
G01*
X4748275Y8494268D01*
X4841747Y8494268D01*
X4841747Y8452612D01*
G37*
G36*
X4748275Y8517636D02*
G01*
X4748275Y8559292D01*
X4841747Y8559292D01*
X4841747Y8517636D01*
G37*
G36*
X4748275Y8582405D02*
G01*
X4748275Y8624062D01*
X4841747Y8624062D01*
X4841747Y8582405D01*
G37*
G36*
X4579620Y8582405D02*
G01*
X4579620Y8624062D01*
X4673345Y8624062D01*
X4673345Y8582405D01*
G37*
G36*
X4579620Y8452612D02*
G01*
X4579620Y8494268D01*
X4673345Y8494268D01*
X4673345Y8452612D01*
G37*
G36*
X5139943Y9635489D02*
G01*
X5139943Y9755886D01*
X5315458Y9755886D01*
X5315458Y9635489D01*
G37*
G36*
X5139943Y9835642D02*
G01*
X5139943Y9955784D01*
X5315458Y9955784D01*
X5315458Y9835642D01*
G37*
G36*
X5627624Y8748013D02*
G01*
X5627624Y8923274D01*
X5747765Y8923274D01*
X5747765Y8748013D01*
G37*
G36*
X5427472Y8748013D02*
G01*
X5427472Y8923274D01*
X5547868Y8923274D01*
X5547868Y8748013D01*
G37*
G36*
X5468874Y9130537D02*
G01*
X5468874Y9200895D01*
X5594095Y9200895D01*
X5594095Y9130537D01*
G37*
G36*
X5468874Y9210547D02*
G01*
X5468874Y9280905D01*
X5594095Y9280905D01*
X5594095Y9210547D01*
G37*
G36*
X5468874Y9770618D02*
G01*
X5468874Y9840721D01*
X5594095Y9840721D01*
X5594095Y9770618D01*
G37*
G36*
X5468874Y9690608D02*
G01*
X5468874Y9760712D01*
X5594095Y9760712D01*
X5594095Y9690608D01*
G37*
G36*
X5468874Y9640570D02*
G01*
X5468874Y9680702D01*
X5594095Y9680702D01*
X5594095Y9640570D01*
G37*
G36*
X5468874Y9590531D02*
G01*
X5468874Y9630918D01*
X5594095Y9630918D01*
X5594095Y9590531D01*
G37*
G36*
X5468874Y9540747D02*
G01*
X5468874Y9580879D01*
X5594095Y9580879D01*
X5594095Y9540747D01*
G37*
G36*
X5468874Y9490710D02*
G01*
X5468874Y9530842D01*
X5594095Y9530842D01*
X5594095Y9490710D01*
G37*
D13*
G01*
X5531434Y9460712D03*
G36*
X5468874Y9390634D02*
G01*
X5468874Y9430765D01*
X5594095Y9430765D01*
X5594095Y9390634D01*
G37*
G36*
X5468874Y9340595D02*
G01*
X5468874Y9380728D01*
X5594095Y9380728D01*
X5594095Y9340595D01*
G37*
G36*
X5468874Y9290558D02*
G01*
X5468874Y9330689D01*
X5594095Y9330689D01*
X5594095Y9290558D01*
G37*
G36*
X69850Y8204962D02*
G01*
X69850Y8375142D01*
X240029Y8375142D01*
X240029Y8204962D01*
G37*
D14*
G01*
X408990Y8289975D03*
G01*
X662990Y8289975D03*
G01*
X916990Y8289975D03*
G01*
X1170990Y8289975D03*
G01*
X1424990Y8289975D03*
G01*
X1678990Y8289975D03*
G01*
X1932990Y8289975D03*
G01*
X2186990Y8289975D03*
G01*
X2440990Y8289975D03*
G01*
X2694990Y8289975D03*
G01*
X2948990Y8289975D03*
G01*
X3202990Y8289975D03*
G01*
X3456990Y8289975D03*
G01*
X3710990Y8289975D03*
G01*
X3964990Y8289975D03*
D11*
G01*
X4458182Y9224213D03*
G01*
X3958183Y9714204D03*
G01*
X5409996Y9069984D03*
G01*
X5437682Y9845725D03*
D10*
G75*
G01*
X5883933Y10598031D02*
G02*
X6183932Y10298031I0J-300000D01*
G75*
G01*
X-220055Y10300033D02*
G02*
X79944Y10600032I299999J0D01*
D15*
G75*
G01
X6055131Y10353980D02*
G03X6055131Y10353980I-111150J0D01*
G75*
G01
X131140Y10359974D02*
G03X131140Y10359974I-111150J0D01*
M02*
